<svg width="26" height="26" viewBox="0 0 26 26" fill="none" xmlns="http://www.w3.org/2000/svg">
<path d="M24.8892 10.7814H13.8864V3.38129C13.8864 2.57595 14.5416 1.92075 15.347 1.92075C16.1523 1.92075 16.8075 2.57595 16.8075 3.38129V5.5721C16.8075 5.9754 17.1345 6.30237 17.5378 6.30237C17.9411 6.30237 18.2681 5.9754 18.2681 5.5721V3.38129C18.2681 1.7706 16.9577 0.460205 15.347 0.460205C13.7363 0.460205 12.4259 1.7706 12.4259 3.38129V6.30237H10.9653V5.5721C10.9653 5.1688 10.6384 4.84183 10.2351 4.84183C9.83177 4.84183 9.5048 5.1688 9.5048 5.5721V8.49318C9.5048 8.89649 9.83177 9.22345 10.2351 9.22345C10.6384 9.22345 10.9653 8.89649 10.9653 8.49318V7.76291H12.4259V10.7814H1.42314C1.01984 10.7814 0.692871 11.1083 0.692871 11.5116C0.692871 11.9149 1.01984 12.2419 1.42314 12.2419H2.23467C2.59849 16.4527 6.0236 21.0052 10.2351 21.0052H16.0772C20.2877 21.0052 23.7137 16.4527 24.0776 12.2419H24.8892C25.2925 12.2419 25.6194 11.9149 25.6194 11.5116C25.6194 11.1083 25.2925 10.7814 24.8892 10.7814Z" fill="#CBD2E0"/>
<path d="M10.9653 23.196C10.9653 24.4038 11.9483 25.3868 13.1562 25.3868C14.364 25.3868 15.347 24.4038 15.347 23.196V22.4657H10.9653V23.196Z" fill="#CBD2E0"/>
</svg>
