<svg width="27" height="27" viewBox="0 0 27 27" fill="none" xmlns="http://www.w3.org/2000/svg">
<path d="M1.28804 5.37966C0.870091 5.37966 0.53125 5.7185 0.53125 6.13645V21.3228C0.53125 21.7407 0.870091 22.0795 1.28804 22.0795C2.54195 22.0795 3.55842 21.0631 3.55842 19.8092V7.65004C3.55842 6.39613 2.54195 5.37966 1.28804 5.37966Z" fill="#CBD2E0"/>
<path d="M20.3088 19.0524V20.566C20.3088 20.9839 20.6476 21.3228 21.0656 21.3228H25.6063C26.0243 21.3228 26.3631 20.9839 26.3631 20.566V19.0524H20.3088Z" fill="#CBD2E0"/>
<path d="M20.3088 10.7277H16.8095C16.3095 10.1725 15.6791 9.74751 14.9608 9.49212V5.32921H17.0397C17.1911 5.42794 17.707 6.086 18.7447 6.086C19.9967 6.086 21.0151 5.06756 21.0151 3.81562C21.0151 2.56369 19.9967 1.54524 18.7447 1.54524C17.7058 1.54524 17.1914 2.2031 17.0397 2.30204H15.0539L14.875 1.79801C14.6607 1.19419 14.0872 0.788452 13.4472 0.788452C12.8071 0.788452 12.2336 1.19419 12.0193 1.79801L11.8405 2.30204H9.85463C9.70322 2.2033 9.18734 1.54524 8.14963 1.54524C6.89769 1.54524 5.87925 2.56369 5.87925 3.81562C5.87925 5.06756 6.89769 6.086 8.14963 6.086C9.18855 6.086 9.70292 5.42814 9.85463 5.32921H11.9336V9.49212C11.2152 9.74746 10.5849 10.1725 10.0848 10.7277H5.072V16.782H10.0848C10.916 17.7046 12.1077 18.2956 13.4472 18.2956C14.7867 18.2956 15.9783 17.7046 16.8095 16.782H18.7952C19.3493 16.782 19.8131 17.0945 20.0768 17.5388H26.3631V16.782C26.3631 13.4382 23.6525 10.7277 20.3088 10.7277Z" fill="#CBD2E0"/>
<path d="M24.732 24.5214L23.9915 23.2258C23.857 22.99 23.6064 22.8444 23.3352 22.8444H23.3344C23.0632 22.8444 22.8134 22.9893 22.6781 23.2243L21.9376 24.525C21.8615 24.7113 21.8223 24.9072 21.8223 25.1067C21.8223 25.9411 22.5015 26.6203 23.3359 26.6203C24.1703 26.6203 24.8495 25.9411 24.8495 25.1067C24.8495 24.9171 24.8262 24.6861 24.732 24.5214Z" fill="#CBD2E0"/>
</svg>
