<svg width="25" height="28" viewBox="0 0 25 28" fill="none" xmlns="http://www.w3.org/2000/svg">
<path d="M2.16579 14.1229C2.20689 14.1229 2.24765 14.1304 2.28612 14.1449C2.32579 14.1414 2.36575 14.1449 2.40422 14.1552L6.30951 14.1634C6.35941 14.1368 6.4151 14.123 6.47163 14.1231C6.68524 14.1229 6.89003 14.0379 7.04107 13.8868C7.19212 13.7358 7.27708 13.531 7.27733 13.3174V1.16996C7.27708 0.956349 7.19212 0.751557 7.04107 0.600511C6.89003 0.449466 6.68524 0.364502 6.47163 0.364258H2.16579C1.95218 0.364502 1.74738 0.449466 1.59634 0.600511C1.44529 0.751557 1.36033 0.956349 1.36009 1.16996V13.3172C1.36033 13.5308 1.44529 13.7356 1.59634 13.8866C1.74738 14.0377 1.95218 14.1226 2.16579 14.1229Z" fill="#CBD2E0"/>
<path d="M9.84878 12.3979C9.33693 12.3979 8.92056 12.8717 8.92056 13.4543V14.1688L23.3166 14.1987V13.4543C23.3166 12.8717 22.9002 12.3979 22.3884 12.3979H9.84878Z" fill="#CBD2E0"/>
<path d="M24.2616 26.7578L15.9169 26.7129L15.898 23.0761C15.659 23.0958 15.4184 23.1064 15.1762 23.1064C15.0846 23.1064 14.9968 23.07 14.932 23.0052C14.8673 22.9405 14.8309 22.8527 14.8309 22.7611C14.8309 22.6695 14.8673 22.5817 14.932 22.5169C14.9968 22.4522 15.0846 22.4158 15.1762 22.4158C15.4964 22.4157 15.8163 22.3965 16.1342 22.3582C16.1682 22.3471 16.2037 22.3412 16.2394 22.341H16.2413C16.2471 22.341 16.2524 22.3415 16.258 22.3418C17.9736 22.107 19.5659 21.3195 20.7938 20.0987C22.2251 18.6858 23.0479 16.8471 23.1334 14.8889L2.54579 14.8462C1.79925 16.837 2.01006 19.4371 3.11496 21.7C4.33042 24.1896 6.43456 25.9478 9.03986 26.6508C9.06283 26.657 9.08511 26.6656 9.10633 26.6764L10.3802 26.6832L1.24159 26.6341H1.23975C1.14817 26.6339 1.06025 26.6701 0.995323 26.7346C0.930399 26.7992 0.893792 26.887 0.893556 26.9786C0.893319 27.0701 0.929472 27.1581 0.994061 27.223C1.05865 27.2879 1.14639 27.3245 1.23796 27.3247L24.258 27.4484H24.2598C24.3051 27.4485 24.3501 27.4397 24.392 27.4224C24.4339 27.4052 24.4721 27.3798 24.5042 27.3479C24.5364 27.3159 24.5619 27.2779 24.5794 27.236C24.5968 27.1942 24.6059 27.1493 24.606 27.104C24.6061 27.0586 24.5973 27.0137 24.58 26.9717C24.5628 26.9298 24.5375 26.8917 24.5055 26.8595C24.4735 26.8274 24.4355 26.8018 24.3936 26.7844C24.3518 26.7669 24.3069 26.7579 24.2616 26.7578H24.2616Z" fill="#CBD2E0"/>
</svg>
