<svg width="29" height="28" viewBox="0 0 29 28" fill="none" xmlns="http://www.w3.org/2000/svg">
<path d="M11.8463 9.22326C12.0511 9.22326 12.256 9.14515 12.4122 8.98884L12.839 8.56204C13.1515 8.24951 13.1515 7.74285 12.839 7.43032C12.5265 7.1178 12.0198 7.1178 11.7072 7.43032L11.2804 7.85712C10.7748 8.36277 11.1399 9.22326 11.8463 9.22326Z" fill="#CBD2E0"/>
<path d="M15.2607 9.65006C15.4655 9.65006 15.6704 9.57195 15.8266 9.41564L16.2534 8.98884C16.5659 8.67631 16.5659 8.16965 16.2534 7.85712C15.9409 7.5446 15.4342 7.5446 15.1217 7.85712L14.6949 8.28392C14.1893 8.78957 14.5543 9.65006 15.2607 9.65006Z" fill="#CBD2E0"/>
<path d="M11.8463 12.6377C12.0511 12.6377 12.256 12.5596 12.4122 12.4032L12.839 11.9764C13.1515 11.6639 13.1515 11.1573 12.839 10.8447C12.5265 10.5322 12.0198 10.5322 11.7072 10.8447L11.2804 11.2715C10.7748 11.7772 11.1399 12.6377 11.8463 12.6377Z" fill="#CBD2E0"/>
<path d="M1.54976 16.0521H27.2645C27.7065 16.0521 28.0648 15.6938 28.0648 15.2518C28.0648 14.8099 27.7065 14.4516 27.2645 14.4516H26.3042V4.44554C26.3042 2.43531 24.6779 0.805786 22.6649 0.805786C21.8242 0.805786 21.0041 1.09969 20.3558 1.63159L19.8532 2.04394C18.7285 1.38202 17.2539 1.53321 16.2893 2.49784L15.0822 3.70499C14.7696 4.01752 14.7696 4.52418 15.0822 4.83671L18.1001 7.85467C18.4126 8.16719 18.9193 8.16725 19.2318 7.85467C20.5133 6.5732 20.4337 6.64751 20.4391 6.64751C21.3692 5.71741 21.543 4.31302 20.9608 3.20553L21.371 2.86899C21.7323 2.57258 22.1887 2.40826 22.656 2.40634C23.7494 2.39653 24.7037 3.2855 24.7037 4.44554V14.4516C23.8838 14.4516 2.36191 14.4516 1.54976 14.4516C1.10781 14.4516 0.749512 14.8099 0.749512 15.2519C0.749512 15.6938 1.10781 16.0521 1.54976 16.0521Z" fill="#CBD2E0"/>
<path d="M2.93345 17.6526L3.27441 19.5278C3.78182 22.3186 5.85271 24.4861 8.48527 25.1945V26.3487C8.48527 26.7906 8.84357 27.1489 9.28553 27.1489C9.72748 27.1489 10.0858 26.7906 10.0858 26.3487V25.4362C10.3356 25.4456 18.5075 25.4445 18.7285 25.4362V26.3487C18.7285 26.7906 19.0868 27.1489 19.5287 27.1489C19.9707 27.1489 20.329 26.7906 20.329 26.3487V25.1945C22.9616 24.4861 25.0324 22.3186 25.5399 19.5278L25.8808 17.6526H2.93345V17.6526Z" fill="#CBD2E0"/>
</svg>
