<svg width="21" height="25" viewBox="0 0 21 25" fill="none" xmlns="http://www.w3.org/2000/svg">
<path d="M18.7682 0.303223H2.94518C1.85436 0.303223 0.967331 1.19025 0.967331 2.28111V6.73133C0.967331 7.00465 1.1885 7.22581 1.46182 7.22581H20.2516C20.5249 7.22581 20.7461 7.00465 20.7461 6.73133V2.28111C20.746 1.19025 19.859 0.303223 18.7682 0.303223ZM5.91199 5.24792H2.94518C2.67186 5.24792 2.45069 5.02676 2.45069 4.75344V2.77555C2.45069 2.50223 2.67186 2.28107 2.94518 2.28107H7.88988C8.1632 2.28107 8.38436 2.50223 8.38436 2.77555C8.38436 4.13875 7.27519 5.24792 5.91199 5.24792ZM12.3401 5.24792H11.3512C11.0779 5.24792 10.8567 5.02676 10.8567 4.75344C10.8567 4.48012 11.0779 4.25896 11.3512 4.25896H12.3401C12.6134 4.25896 12.8346 4.48012 12.8346 4.75344C12.8346 5.02676 12.6134 5.24792 12.3401 5.24792ZM12.8346 2.77555C12.8346 2.50223 13.0557 2.28107 13.3291 2.28107H14.318C14.5913 2.28107 14.8125 2.50223 14.8125 2.77555C14.8125 3.04887 14.5913 3.27003 14.318 3.27003H13.3291C13.0557 3.27003 12.8346 3.04887 12.8346 2.77555ZM15.3069 5.24792H14.318C14.0447 5.24792 13.8235 5.02676 13.8235 4.75344C13.8235 4.48012 14.0447 4.25896 14.318 4.25896H15.3069C15.5802 4.25896 15.8014 4.48012 15.8014 4.75344C15.8014 5.02676 15.5802 5.24792 15.3069 5.24792ZM17.2848 3.27003H16.2959C16.0226 3.27003 15.8014 3.04887 15.8014 2.77555C15.8014 2.50223 16.0226 2.28107 16.2959 2.28107H17.2848C17.5581 2.28107 17.7793 2.50223 17.7793 2.77555C17.7792 3.04887 17.5581 3.27003 17.2848 3.27003Z" fill="#CBD2E0"/>
<path d="M20.2516 8.21474H1.46177C1.18845 8.21474 0.967285 8.4359 0.967285 8.70922V22.0599C0.967285 23.1507 1.85432 24.0378 2.94518 24.0378H18.7682C19.859 24.0378 20.746 23.1507 20.746 22.0599V8.70922C20.746 8.4359 20.5249 8.21474 20.2516 8.21474ZM10.8567 22.0598C7.58471 22.0598 4.92307 19.3982 4.92307 16.1262C4.92307 12.8542 7.58471 10.1926 10.8567 10.1926C14.1287 10.1926 16.7903 12.8542 16.7903 16.1262C16.7903 19.3982 14.1287 22.0598 10.8567 22.0598Z" fill="#CBD2E0"/>
<path d="M14.0442 13.8166C13.287 12.7658 12.1064 12.1719 10.8456 12.1719C10.595 12.1719 10.3414 12.1955 10.0869 12.2434C8.55379 12.5327 7.30991 13.7461 6.99167 15.2633C6.73959 16.4647 7.02839 17.6874 7.78409 18.6179C8.53979 19.5484 9.65958 20.082 10.8566 20.082C12.129 20.082 13.2908 19.4818 14.0446 18.4354C14.1465 18.2939 14.1702 18.1181 14.1103 17.9525C13.9253 17.445 13.8235 16.7964 13.8235 16.1262C13.8235 15.456 13.9253 14.8075 14.1103 14.2999C14.1707 14.1344 14.1466 13.9581 14.0442 13.8166ZM9.27524 14.9403C9.01592 15.2846 8.8788 15.6945 8.8788 16.1262C8.8788 16.3995 8.65763 16.6207 8.38432 16.6207C8.111 16.6207 7.88983 16.3995 7.88983 16.1262C7.88983 15.4782 8.09556 14.862 8.48523 14.3453C8.64845 14.128 8.95992 14.0831 9.17771 14.2478C9.396 14.4125 9.43943 14.7225 9.27524 14.9403Z" fill="#CBD2E0"/>
</svg>
