<svg width="18" height="34" viewBox="0 0 18 34" fill="none" xmlns="http://www.w3.org/2000/svg">
<path d="M8.8385 8.57057C11.2164 8.57057 13.1509 6.81467 13.1509 4.65638C13.1509 2.49808 11.2164 0.742188 8.8385 0.742188C6.46064 0.742188 4.5265 2.49808 4.5265 4.65638C4.5265 6.81467 6.46064 8.57057 8.8385 8.57057Z" fill="#CBD2E0"/>
<path d="M17.6217 20.251L14.1283 10.4265C13.9413 9.90059 13.3181 9.48879 12.7092 9.48879H4.96706C4.35816 9.48879 3.73494 9.90059 3.54789 10.4265L0.055312 20.251C-0.0481601 20.5425 -0.00517902 20.8373 0.173509 21.0602C0.352198 21.283 0.648287 21.4109 0.985765 21.4109H1.8812C2.49009 21.4109 3.11331 20.9991 3.30036 20.4732L4.29528 17.6737V32.1713C4.29528 33.1672 5.18793 33.9774 6.28513 33.9774H6.42521C7.52242 33.9774 8.41506 33.1672 8.41506 32.1713V22.7196H9.26155V32.1713C9.26155 33.1672 10.1542 33.9774 11.2514 33.9774H11.3915C12.4887 33.9774 13.3813 33.1672 13.3813 32.1713V17.6723L14.3771 20.4732C14.5641 20.9991 15.1873 21.4109 15.7962 21.4109H16.6916C17.0291 21.4109 17.3248 21.283 17.5039 21.0602C17.683 20.8373 17.7252 20.5425 17.6217 20.251Z" fill="#CBD2E0"/>
</svg>
