<svg width="36" height="36" viewBox="0 0 36 36" fill="none" xmlns="http://www.w3.org/2000/svg">
<path d="M24.4768 11.2915C24.0948 11.2915 23.7847 11.6007 23.7847 11.9833C23.7847 12.3655 24.0948 12.6753 24.4768 12.6753C24.8595 12.6753 25.1688 12.3655 25.1688 11.9833C25.1688 11.6007 24.8595 11.2915 24.4768 11.2915Z" fill="#4ECDC4"/>
<path d="M11.9026 23.8653C11.5198 23.8653 11.2106 24.1754 11.2106 24.5574C11.2106 24.9402 11.5198 25.2494 11.9026 25.2494C12.2846 25.2494 12.5947 24.9402 12.5947 24.5574C12.5947 24.1754 12.2846 23.8653 11.9026 23.8653Z" fill="#4ECDC4"/>
<path d="M35.0456 4.81194C34.812 4.7576 34.5666 4.82816 34.3979 4.99846L31.5289 7.89018H30.1534L28.6393 6.32146V4.92683L31.4672 2.05673C31.6346 1.88697 31.7027 1.64286 31.6473 1.41064C31.5921 1.1787 31.4213 0.991633 31.1953 0.9154C30.4848 0.675887 29.7414 0.554509 28.9853 0.554509C26.7313 0.554509 24.6836 1.60555 23.367 3.43812C22.1349 5.15363 21.7551 7.25599 22.2992 9.26806L17.2016 14.3657L8.70894 5.85352V4.18288C8.70894 3.93985 8.58134 3.7144 8.37292 3.5895L3.47968 0.653179C3.20718 0.48963 2.85873 0.532612 2.63435 0.757257L0.677165 2.71418C0.452791 2.93882 0.409809 3.28728 0.573088 3.55977L3.50887 8.45301C3.63376 8.66144 3.85895 8.78876 4.10198 8.78903L5.77208 8.78957L14.2656 17.3017L9.18742 22.3799C7.17536 21.836 5.07192 22.2163 3.3556 23.4493C1.52411 24.765 0.473877 26.8122 0.473877 29.0662C0.473877 29.8221 0.595255 30.5657 0.834768 31.2759C0.911271 31.5032 1.10023 31.6749 1.3338 31.729C1.56763 31.7833 1.81282 31.7127 1.98178 31.5424L4.85052 28.651H6.23353L7.80928 30.2267V31.6098L4.91783 34.4785C4.74752 34.6474 4.67697 34.8926 4.7313 35.1265C4.78537 35.36 4.95703 35.549 5.18438 35.6255C5.89453 35.865 6.63821 35.9864 7.39406 35.9864C9.64807 35.9864 11.695 34.9359 13.011 33.1044C14.2439 31.3881 14.6243 29.2849 14.0804 27.2728L18.1589 23.1944L19.0931 24.2092L18.6644 24.6377C18.3941 24.908 18.3941 25.3462 18.6644 25.6165C18.9347 25.8866 19.3727 25.8866 19.6433 25.6165L20.0314 25.2283L28.7972 34.7499C28.8037 34.7569 28.8104 34.7637 28.8172 34.7705C30.4391 36.3924 33.067 36.393 34.6898 34.7702C36.308 33.1512 36.308 30.5168 34.6898 28.8978C34.6828 28.8908 34.6755 28.884 34.6682 28.8773L25.1318 20.1283L25.5156 19.7444C25.786 19.4744 25.786 19.0362 25.5156 18.7658C25.2453 18.4955 24.8074 18.4955 24.5368 18.7658L24.111 19.1919L23.0943 18.2587L27.1925 14.1605C27.775 14.3162 28.3763 14.3951 28.9853 14.3951C32.8013 14.3951 35.9055 11.2907 35.9055 7.47496C35.9055 6.71884 35.7841 5.97544 35.5446 5.26501C35.4681 5.03766 35.2791 4.866 35.0456 4.81194ZM6.549 7.60877C6.41925 7.47874 6.24326 7.41251 6.05944 7.41251L4.49423 7.41197L2.03801 3.31106L3.23097 2.1181L7.32485 4.57486V6.14007C7.32485 6.32335 7.39757 6.49907 7.52706 6.62882L16.223 15.3445L15.2442 16.3231L6.549 7.60877ZM24.1521 21.108L33.721 29.8864C34.7898 30.9666 34.7866 32.7157 33.711 33.7919C32.6329 34.8699 30.8876 34.8732 29.8052 33.8013L21.0108 24.2487L24.1521 21.108ZM23.1313 20.1713L20.0725 23.2295L19.1383 22.2147L22.1146 19.2381L23.1313 20.1713ZM28.9853 13.011C28.38 13.011 27.7848 12.914 27.2165 12.7226C26.9676 12.6391 26.6924 12.7034 26.5064 12.8891C23.037 16.3585 15.5613 23.834 12.8085 26.587C12.6225 26.773 12.5579 27.0482 12.642 27.2974C13.2172 29.0057 12.942 30.8277 11.8867 32.2969C10.8343 33.7618 9.19662 34.6023 7.39406 34.6023C7.19158 34.6023 6.99018 34.5912 6.79068 34.5699L8.98873 32.3888C9.11957 32.2591 9.19337 32.0823 9.19337 31.8977V29.9399C9.19337 29.7564 9.12038 29.5804 8.99062 29.4506L7.00938 27.4694C6.87962 27.3396 6.70363 27.2666 6.52008 27.2666H4.56235C4.37771 27.2666 4.20092 27.3404 4.07089 27.4713L1.89014 29.6693C1.86851 29.4698 1.8577 29.2684 1.8577 29.0659C1.8577 27.2631 2.69788 25.6257 4.16307 24.5733C5.63204 23.518 7.45434 23.2425 9.16283 23.818C9.4118 23.9021 9.687 23.8375 9.87298 23.6515C9.9111 23.6137 23.5611 9.96334 23.5709 9.95361C23.7569 9.76763 23.8212 9.4927 23.7374 9.24346C23.1619 7.53524 23.4365 5.71376 24.4911 4.2456C25.5443 2.77933 27.1822 1.9386 28.985 1.9386C29.1937 1.9386 29.4011 1.95022 29.6065 1.97293L27.4542 4.15747C27.3266 4.28696 27.2552 4.46132 27.2552 4.64298V6.60071C27.2552 6.78021 27.3247 6.95241 27.4493 7.08136L29.3613 9.06261C29.4916 9.19777 29.6714 9.274 29.8593 9.274H31.817C32.0014 9.274 32.1782 9.20047 32.3082 9.06936L34.489 6.87158C34.5106 7.07108 34.5214 7.27248 34.5214 7.47496C34.5214 10.5275 32.0379 13.011 28.9853 13.011Z" fill="#4ECDC4"/>
<path d="M22.0303 13.4511L13.3702 22.1112C13.1002 22.3812 13.1002 22.8194 13.3702 23.0898C13.6406 23.3601 14.0788 23.3601 14.3491 23.0898L23.0091 14.4297C23.2795 14.1597 23.2795 13.7215 23.0091 13.4511C22.7388 13.1808 22.3006 13.1808 22.0303 13.4511Z" fill="#4ECDC4"/>
<path d="M30.7754 31.8349C31.0458 32.1045 31.484 32.1045 31.7543 31.8333C32.0241 31.5627 32.0233 31.1245 31.7527 30.8547L25.5148 24.6369C25.2442 24.3671 24.8057 24.3679 24.5362 24.6385C24.2662 24.9094 24.267 25.3473 24.5376 25.6171L30.7754 31.8349Z" fill="#4ECDC4"/>
</svg>
