<svg width="41" height="41" viewBox="0 0 41 41" fill="none" xmlns="http://www.w3.org/2000/svg">
<path d="M17.3751 30.5793C17.298 30.5791 17.2217 30.5635 17.1508 30.5333C17.0303 30.4815 16.9315 30.3897 16.871 30.2733C16.8106 30.157 16.7922 30.0233 16.8191 29.895L18.6176 21.3033H15.1592C15.0657 21.3034 14.9736 21.2803 14.8912 21.2361C14.8087 21.192 14.7384 21.1282 14.6866 21.0504C14.6347 20.9726 14.6029 20.8832 14.5939 20.7901C14.5849 20.697 14.599 20.6031 14.635 20.5168L18.4899 11.2505C18.5329 11.147 18.6057 11.0585 18.699 10.9962C18.7923 10.934 18.9019 10.9007 19.014 10.9007H25.3875C25.4909 10.9007 25.5923 10.929 25.6808 10.9824C25.7693 11.0358 25.8416 11.1123 25.8898 11.2038C25.938 11.2952 25.9603 11.3981 25.9544 11.5013C25.9484 11.6045 25.9144 11.7042 25.856 11.7895L22.0778 17.3105H25.7719C25.8755 17.3105 25.9772 17.3389 26.0658 17.3926C26.1544 17.4462 26.2267 17.5231 26.2748 17.6149C26.3229 17.7066 26.3449 17.8098 26.3386 17.9132C26.3322 18.0166 26.2977 18.1163 26.2388 18.2015L17.8419 30.3345C17.7897 30.41 17.7199 30.4717 17.6386 30.5143C17.5573 30.557 17.4669 30.5793 17.3751 30.5793ZM16.0122 20.1676H19.3184C19.4029 20.1675 19.4863 20.1864 19.5626 20.2227C19.6388 20.259 19.7061 20.3118 19.7593 20.3774C19.8126 20.4429 19.8505 20.5195 19.8705 20.6016C19.8904 20.6837 19.8917 20.7692 19.8744 20.8519L18.5063 27.3787L24.6884 18.4463H21.0011C20.8977 18.4463 20.7963 18.418 20.7078 18.3646C20.6192 18.3112 20.547 18.2347 20.4988 18.1432C20.4506 18.0518 20.4282 17.9489 20.4342 17.8457C20.4401 17.7425 20.4742 17.6428 20.5326 17.5575L24.3108 12.0365H19.3928L16.0122 20.1676Z" fill="#4ECDC4"/>
<path d="M20.4656 40.0483C16.5344 40.0483 12.6916 38.8826 9.42294 36.6986C6.15432 34.5145 3.60673 31.4103 2.10235 27.7784C0.597968 24.1465 0.204352 20.1501 0.97128 16.2945C1.73821 12.4388 3.63123 8.89725 6.41097 6.11751C9.19071 3.33778 12.7323 1.44475 16.5879 0.677823C20.4435 -0.0891046 24.44 0.30451 28.0719 1.80889C31.7038 3.31328 34.808 5.86086 36.992 9.12948C39.176 12.3981 40.3418 16.241 40.3418 20.1721C40.3358 25.4418 38.2397 30.4939 34.5135 34.2201C30.7873 37.9463 25.7352 40.0423 20.4656 40.0483ZM20.4656 1.43169C16.7591 1.43169 13.1358 2.5308 10.0539 4.59002C6.9721 6.64924 4.57009 9.5761 3.15168 13.0005C1.73326 16.4248 1.36214 20.1929 2.08524 23.8282C2.80834 27.4635 4.59319 30.8027 7.21409 33.4236C9.83498 36.0445 13.1742 37.8293 16.8095 38.5524C20.4448 39.2755 24.2128 38.9044 27.6372 37.486C31.0616 36.0676 33.9884 33.6656 36.0477 30.5837C38.1069 27.5019 39.206 23.8786 39.206 20.1721C39.2003 15.2036 37.224 10.4402 33.7107 6.92694C30.1975 3.41367 25.4341 1.4374 20.4656 1.43169Z" fill="#4ECDC4"/>
<path d="M34.526 27.1912C34.4304 27.1912 34.3363 27.1671 34.2526 27.121C34.1688 27.075 34.098 27.0085 34.0467 26.9278C33.9955 26.8471 33.9654 26.7548 33.9594 26.6594C33.9533 26.5639 33.9714 26.4685 34.0121 26.382C34.2619 25.8474 34.477 25.2973 34.656 24.7351C34.6748 24.6596 34.7089 24.5888 34.7561 24.5271C34.8034 24.4653 34.8629 24.4139 34.9308 24.376C34.9987 24.3382 35.0737 24.3147 35.1511 24.307C35.2285 24.2994 35.3067 24.3077 35.3807 24.3314C35.4548 24.3552 35.5232 24.394 35.5816 24.4452C35.6401 24.4965 35.6874 24.5593 35.7206 24.6296C35.7539 24.6999 35.7723 24.7763 35.7747 24.8541C35.7772 24.9318 35.7637 25.0092 35.735 25.0815C35.5412 25.6902 35.3085 26.2859 35.0382 26.8647C34.9925 26.9621 34.9201 27.0444 34.8294 27.1022C34.7388 27.16 34.6335 27.1909 34.526 27.1912Z" fill="#4ECDC4"/>
<path d="M20.4656 36.215C17.2989 36.216 14.2027 35.2798 11.5671 33.5243C8.93155 31.7688 6.87444 29.2726 5.65496 26.3502C4.43548 23.4277 4.10817 20.2097 4.71427 17.1015C5.32037 13.9934 6.83276 11.1341 9.06092 8.88394C11.2891 6.63377 14.1333 5.09334 17.2354 4.45671C20.3374 3.82009 23.5585 4.11575 26.4928 5.30644C29.4271 6.49713 31.9434 8.52959 33.7248 11.1478C35.5061 13.766 36.4727 16.8528 36.5028 20.0193C36.5035 20.0939 36.4895 20.1679 36.4616 20.2371C36.4336 20.3062 36.3924 20.3692 36.3401 20.4224C36.2878 20.4756 36.2256 20.518 36.157 20.5472C36.0883 20.5763 36.0146 20.5917 35.94 20.5924H35.9349C35.7852 20.5924 35.6415 20.5332 35.5352 20.4278C35.4288 20.3224 35.3684 20.1793 35.367 20.0296C35.3389 16.7592 34.2371 13.5887 32.2311 11.0057C30.2252 8.42274 27.4261 6.57032 24.2646 5.73342C21.103 4.89652 17.7541 5.12149 14.7329 6.37374C11.7117 7.62598 9.18558 9.83613 7.54311 12.6642C5.90065 15.4923 5.23281 18.7817 5.64234 22.0264C6.05187 25.2711 7.51606 28.2914 9.80971 30.6227C12.1034 32.954 15.0994 34.4672 18.337 34.9295C21.5746 35.3918 24.8744 34.7776 27.7289 33.1814C27.8599 33.1111 28.0133 33.0949 28.156 33.1365C28.2988 33.178 28.4196 33.2738 28.4924 33.4034C28.5653 33.533 28.5844 33.686 28.5457 33.8296C28.507 33.9731 28.4136 34.0958 28.2854 34.1712C25.897 35.5112 23.2042 36.215 20.4656 36.215Z" fill="#4ECDC4"/>
<path d="M31.2271 31.8423C31.1133 31.8423 31.0021 31.8082 30.908 31.7443C30.8138 31.6804 30.741 31.5897 30.699 31.4839C30.6571 31.3782 30.6478 31.2622 30.6725 31.1512C30.6972 31.0401 30.7547 30.939 30.8375 30.861C31.2203 30.4992 31.5807 30.1144 31.9165 29.7087C32.0157 29.6042 32.1509 29.5412 32.2947 29.5326C32.4385 29.524 32.5802 29.5704 32.6911 29.6624C32.8021 29.7544 32.8738 29.8851 32.892 30.028C32.9101 30.1709 32.8732 30.3154 32.7888 30.4322C32.4242 30.8744 32.0326 31.2935 31.6161 31.6872C31.5109 31.7866 31.3718 31.842 31.2271 31.8423Z" fill="#4ECDC4"/>
</svg>
