<svg width="38" height="38" viewBox="0 0 38 38" fill="none" xmlns="http://www.w3.org/2000/svg">
<path d="M17.8304 25.5168C18.1141 25.2325 18.1141 24.7725 17.8304 24.4882C17.5464 24.2048 17.0863 24.2048 16.8021 24.4882C16.5187 24.7725 16.5187 25.2325 16.8021 25.5168C17.0863 25.8002 17.5464 25.8002 17.8304 25.5168Z" fill="#4ECDC4"/>
<path d="M14.3885 8.26526C14.3885 12.6736 17.9749 16.2603 22.3832 16.2603C26.7915 16.2603 30.378 12.6736 30.378 8.26526C30.378 3.85696 26.7915 0.270508 22.3832 0.270508C17.9749 0.270508 14.3885 3.85696 14.3885 8.26526ZM28.9246 8.26526C28.9246 11.8722 25.9901 14.8066 22.3832 14.8066C18.7763 14.8066 15.8419 11.8722 15.8419 8.26526C15.8419 4.65865 18.7763 1.72423 22.3832 1.72423C25.9901 1.72423 28.9246 4.65865 28.9246 8.26526Z" fill="#4ECDC4"/>
<path d="M9.09614 37.278C9.37785 37.562 9.83649 37.5651 10.1219 37.284L13.6456 33.8126C14.2442 33.2139 14.4263 32.3276 14.163 31.5572L14.921 30.8262C15.329 30.432 15.8663 30.2148 16.4343 30.2148H26.0963C27.8105 30.2148 29.4306 29.5565 30.6588 28.3612C30.7094 28.3121 30.2752 28.8235 37.2504 20.4868C38.285 19.2629 38.1302 17.4249 36.9051 16.3892C35.6877 15.3632 33.8639 15.5106 32.8265 16.7135L28.5378 21.1216C27.9962 20.455 27.1704 20.0396 26.2781 20.0396H18.1734C17.0202 19.5571 15.7965 19.3129 14.5339 19.3129C11.0341 19.3129 7.97809 20.9293 6.33807 23.96C5.64714 23.8291 4.91843 24.0381 4.3942 24.5623L0.936676 28.0301C0.654394 28.3132 0.653827 28.7713 0.93554 29.0552L9.09614 37.278ZM14.5336 20.7663C15.6468 20.7663 16.7231 20.9904 17.7333 21.4322C17.8253 21.4726 17.9244 21.4933 18.0246 21.4933H26.2781C27.0662 21.4933 27.7318 22.1359 27.7318 22.9467C27.7318 23.7484 27.0798 24.4004 26.2781 24.4004H20.3482C19.9469 24.4004 19.6215 24.7259 19.6215 25.1272C19.6215 25.5287 19.9469 25.8539 20.3482 25.8539H26.2781C27.8812 25.8539 29.1853 24.5498 29.1853 22.9467C29.1853 22.8189 29.1762 22.6923 29.1597 22.5668C33.3084 18.3021 33.8934 17.7029 33.9184 17.6731C34.4364 17.0617 35.356 16.9842 35.9677 17.4999C36.5799 18.0176 36.6575 18.9366 36.1381 19.5514L29.6192 27.3445C28.6673 28.2584 27.4174 28.7613 26.0963 28.7613H16.4343C15.4875 28.7613 14.5913 29.1234 13.9114 29.7803L13.2937 30.3763L7.59982 24.6827C8.93058 22.1862 11.4277 20.7663 14.5336 20.7663ZM5.42279 25.5895C5.66247 25.3498 6.03052 25.3066 6.32274 25.4873C6.44854 25.5639 6.08731 25.2351 12.6178 31.7565C12.9084 32.047 12.8927 32.5099 12.6218 32.7808L9.61782 35.7403L2.47644 28.5444L5.42279 25.5895Z" fill="#4ECDC4"/>
<path d="M21.5111 3.90467V4.75634C20.6651 5.05623 20.0574 5.86416 20.0574 6.81182C20.0574 8.01393 21.0354 8.99226 22.2378 8.99226C22.6385 8.99226 22.9646 9.31828 22.9646 9.71898C22.9646 10.1197 22.6385 10.4457 22.2378 10.4457C21.9274 10.4457 21.5921 10.2506 21.2942 9.8959C21.0357 9.58863 20.5774 9.54916 20.2701 9.8073C19.9628 10.0657 19.9231 10.5241 20.1815 10.8313C20.57 11.2934 21.0269 11.6154 21.5111 11.7779V12.6261C21.5111 13.0277 21.8366 13.3529 22.2378 13.3529C22.6391 13.3529 22.9646 13.0277 22.9646 12.6261V11.7745C23.8105 11.4743 24.4183 10.6664 24.4183 9.71898C24.4183 8.51659 23.4402 7.53854 22.2378 7.53854C21.8371 7.53854 21.5111 7.21253 21.5111 6.81182C21.5111 6.41112 21.8371 6.08482 22.2378 6.08482C22.4954 6.08482 22.7672 6.21631 23.0239 6.46479C23.3124 6.74395 23.7725 6.73628 24.0517 6.44804C24.3308 6.15951 24.3231 5.69945 24.0349 5.4203C23.666 5.06333 23.2968 4.86141 22.9646 4.75123V3.90467C22.9646 3.50311 22.6391 3.17766 22.2378 3.17766C21.8366 3.17766 21.5111 3.50311 21.5111 3.90467Z" fill="#4ECDC4"/>
</svg>
