<svg width="39" height="44" viewBox="0 0 39 44" fill="none" xmlns="http://www.w3.org/2000/svg">
<path d="M26.7728 0.553223C26.3113 0.553223 25.937 0.92749 25.937 1.38901V5.23365C25.937 5.69517 26.3113 6.06944 26.7728 6.06944C27.2343 6.06944 27.6086 5.69517 27.6086 5.23365V1.38901C27.6086 0.92749 27.2343 0.553223 26.7728 0.553223Z" fill="#4ECDC4"/>
<path d="M7.54962 26.6299C7.08827 26.6299 6.71383 27.0043 6.71383 27.4657C6.71383 27.927 7.08827 28.3015 7.54962 28.3015C8.01098 28.3015 8.38541 27.927 8.38541 27.4657C8.38541 27.0043 8.01098 26.6299 7.54962 26.6299Z" fill="#4ECDC4"/>
<path d="M38.4739 24.9583C38.4739 23.1149 36.9741 21.6151 35.1307 21.6151H28.8914C29.8573 19.141 30.2483 16.2287 30.1729 13.6364C30.1585 13.1417 30.1395 12.8556 30.1139 12.6754C30.0707 10.8696 28.5878 9.4126 26.7728 9.4126C24.9294 9.4126 23.4296 10.9123 23.4296 12.7558V13.5916C23.4296 18.8776 16.6419 21.8476 11.5193 23.1212C11.132 22.2357 10.2479 21.6151 9.2212 21.6151H0.863298C0.401775 21.6151 0.0275078 21.9894 0.0275078 22.4509V42.5099C0.0275078 42.9714 0.401775 43.3457 0.863298 43.3457H9.2212C10.241 43.3457 11.12 42.7333 11.5114 41.8572C11.9355 41.9661 12.3293 42.0689 12.6927 42.1638C15.6109 42.926 17.2184 43.3457 21.1279 43.3457H30.116C31.9594 43.3457 33.4591 41.846 33.4591 40.0025C33.4591 39.3152 33.2504 38.6758 32.8933 38.1439C34.1844 37.6923 35.1307 36.4587 35.1307 34.9878C35.1307 34.303 34.9271 33.6615 34.5711 33.1272C35.8565 32.6748 36.8023 31.444 36.8023 29.9731C36.8023 29.2857 36.5936 28.6463 36.2365 28.1144C37.5276 27.6628 38.4739 26.4292 38.4739 24.9583ZM10.057 40.8383C10.057 41.2992 9.68206 41.6741 9.2212 41.6741H1.69909V23.2867H9.2212C9.68206 23.2867 10.057 23.6617 10.057 24.1225V40.8383ZM35.1307 26.6299C33.338 26.6299 32.9107 26.6299 30.9518 26.6299C30.4902 26.6299 30.116 27.0042 30.116 27.4657C30.116 27.9272 30.4902 28.3015 30.9518 28.3015H33.4591C34.3808 28.3015 35.1307 29.0513 35.1307 29.9731C35.1307 30.8963 34.3823 31.6446 33.4591 31.6446H29.2802C28.8187 31.6446 28.4444 32.0189 28.4444 32.4804C28.4444 32.9419 28.8187 33.3162 29.2802 33.3162H31.7876C32.6983 33.3162 33.4591 34.0438 33.4591 34.9878C33.4591 35.911 32.7108 36.6594 31.7876 36.6594C29.9949 36.6594 29.5675 36.6594 27.6086 36.6594C27.1471 36.6594 26.7728 37.0336 26.7728 37.4952C26.7728 37.9567 27.1471 38.331 27.6086 38.331H30.116C31.0377 38.331 31.7876 39.0808 31.7876 40.0025C31.7876 40.9243 31.0377 41.6741 30.116 41.6741H21.1279C17.4331 41.6741 15.99 41.2973 13.1152 40.5465C12.694 40.4365 12.2321 40.3159 11.7286 40.1875V24.7932C17.777 23.3525 25.1012 19.8358 25.1012 13.5916V12.7558C25.1012 11.8341 25.8511 11.0842 26.7728 11.0842C27.6928 11.0842 28.4426 11.8329 28.4444 12.7532V12.7558C28.4444 13.119 28.8977 17.5769 27.0799 21.6151H24.2654C23.8039 21.6151 23.4296 21.9894 23.4296 22.4509C23.4296 22.9125 23.8039 23.2867 24.2654 23.2867C24.8491 23.2867 34.1781 23.2867 35.1307 23.2867C36.0524 23.2867 36.8023 24.0366 36.8023 24.9583C36.8023 25.8815 36.0539 26.6299 35.1307 26.6299Z" fill="#4ECDC4"/>
<path d="M7.54962 29.9731C7.0881 29.9731 6.71383 30.3473 6.71383 30.8088V37.4952C6.71383 37.9567 7.0881 38.331 7.54962 38.331C8.01115 38.331 8.38541 37.9567 8.38541 37.4952V30.8088C8.38541 30.3473 8.01115 29.9731 7.54962 29.9731Z" fill="#4ECDC4"/>
<path d="M20.0865 11.0842H16.7433C16.2818 11.0842 15.9075 11.4585 15.9075 11.92C15.9075 12.3815 16.2818 12.7558 16.7433 12.7558H20.0865C20.548 12.7558 20.9223 12.3815 20.9223 11.92C20.9223 11.4585 20.548 11.0842 20.0865 11.0842Z" fill="#4ECDC4"/>
<path d="M36.8023 11.0842H33.4591C32.9976 11.0842 32.6233 11.4585 32.6233 11.92C32.6233 12.3815 32.9976 12.7558 33.4591 12.7558H36.8023C37.2638 12.7558 37.6381 12.3815 37.6381 11.92C37.6381 11.4585 37.2638 11.0842 36.8023 11.0842Z" fill="#4ECDC4"/>
<path d="M34.4555 4.2373C34.129 3.91101 33.6 3.91101 33.2734 4.2373L30.9099 6.60084C30.5835 6.92721 30.5835 7.45644 30.9099 7.7829C31.2364 8.10927 31.7654 8.10919 32.0919 7.7829L34.4555 5.41936C34.7819 5.09299 34.7819 4.56376 34.4555 4.2373Z" fill="#4ECDC4"/>
<path d="M22.6357 6.60084L20.2722 4.2373C19.9457 3.91101 19.4167 3.91101 19.0901 4.2373C18.7638 4.56368 18.7638 5.0929 19.0901 5.41936L21.4537 7.7829C21.7803 8.10927 22.3093 8.10919 22.6357 7.7829C22.9621 7.45652 22.9621 6.9273 22.6357 6.60084Z" fill="#4ECDC4"/>
</svg>
