<svg width="40" height="39" viewBox="0 0 40 39" fill="none" xmlns="http://www.w3.org/2000/svg">
<path d="M39.7425 21.6759C39.3892 18.1227 37.8018 14.7729 35.2725 12.2435C33.111 10.0821 30.4653 8.69309 27.6815 8.07548V6.12298C28.8185 5.84011 29.6637 4.81092 29.6637 3.58761C29.6637 2.14691 28.4916 0.974854 27.0509 0.974854H21.518C20.0773 0.974854 18.9053 2.14691 18.9053 3.58761C18.9053 4.81084 19.7504 5.84004 20.8873 6.12298V8.08094C18.1121 8.70116 15.4752 10.0882 13.3198 12.2436C12.8481 12.7153 12.4132 13.2101 12.015 13.7243C11.9957 13.7229 11.9765 13.7214 11.9568 13.7214H6.48068C6.05634 13.7214 5.71222 14.0655 5.71222 14.4899C5.71222 14.9143 6.05634 15.2583 6.48068 15.2583H10.9694C10.406 16.2016 9.95165 17.1922 9.60584 18.212H1.24233C0.817992 18.212 0.473877 18.556 0.473877 18.9804C0.473877 19.4049 0.817992 19.7489 1.24233 19.7489H9.17159C8.95012 20.7211 8.82302 21.7105 8.7902 22.7026H5.39201C4.96766 22.7026 4.62355 23.0466 4.62355 23.4711C4.62355 23.8955 4.96766 24.2395 5.39201 24.2395H8.81472C8.87957 25.2342 9.03949 26.2237 9.29454 27.1932H4.31617C3.89182 27.1932 3.54771 27.5373 3.54771 27.9617C3.54771 28.3861 3.89182 28.7302 4.31617 28.7302H9.78497C10.5388 30.7244 11.717 32.5935 13.3198 34.1964C15.8516 36.7281 19.2048 38.3159 22.7617 38.6673C23.2693 38.7174 23.7774 38.7422 24.2847 38.7422C27.2834 38.7422 30.2439 37.8744 32.756 36.2385C33.1117 36.0069 33.2122 35.5309 32.9806 35.1752C32.749 34.8196 32.273 34.719 31.9173 34.9506C26.4185 38.5314 19.0541 37.7572 14.4066 33.1096C8.95343 27.6565 8.95343 18.7836 14.4066 13.3304C19.8596 7.87737 28.7324 7.87737 34.1857 13.3304C38.8271 17.9719 39.6055 25.33 36.0366 30.8261C35.8054 31.1821 35.9066 31.6581 36.2625 31.8891C36.6186 32.1203 37.0944 32.0191 37.3255 31.6631C39.2323 28.7265 40.0907 25.1797 39.7425 21.6759ZM20.4422 3.58769C20.4422 2.99444 20.9248 2.51185 21.518 2.51185H27.0509C27.6442 2.51185 28.1268 2.99444 28.1268 3.58769C28.1268 4.18094 27.6442 4.66353 27.0509 4.66353H21.518C20.9248 4.66353 20.4422 4.18086 20.4422 3.58769ZM22.4243 7.81674V6.20044H26.1446V7.81397C24.9092 7.66704 23.6594 7.66797 22.4243 7.81674Z" fill="#4ECDC4"/>
<path d="M34.7294 32.8842C34.5265 32.8842 34.329 32.9664 34.1862 33.1093C34.0425 33.2522 33.961 33.4505 33.961 33.6526C33.961 33.8547 34.0425 34.053 34.1862 34.1959C34.329 34.3396 34.5266 34.421 34.7294 34.421C34.9315 34.421 35.129 34.3396 35.2727 34.1959C35.4156 34.053 35.4978 33.8547 35.4978 33.6526C35.4978 33.4505 35.4157 33.2522 35.2727 33.1093C35.129 32.9664 34.9314 32.8842 34.7294 32.8842Z" fill="#4ECDC4"/>
<path d="M24.2961 11.2989C17.7229 11.2989 12.3751 16.6466 12.3751 23.2199C12.3751 29.7932 17.7229 35.1409 24.2961 35.1409C30.8694 35.1409 36.2172 29.7932 36.2172 23.2199C36.2172 16.6466 30.8694 11.2989 24.2961 11.2989ZM24.2961 33.604C18.5703 33.604 13.9121 28.9457 13.9121 23.2199C13.9121 17.4941 18.5703 12.8358 24.2961 12.8358C30.022 12.8358 34.6802 17.4941 34.6802 23.2199C34.6802 28.9457 30.022 33.604 24.2961 33.604Z" fill="#4ECDC4"/>
<path d="M29.1571 17.2722L25.3509 21.0783C25.0326 20.9209 24.6746 20.832 24.2961 20.832C23.9176 20.832 23.5597 20.9209 23.2414 21.0783L21.5379 19.3748C21.2378 19.0747 20.7513 19.0747 20.4511 19.3748C20.151 19.6749 20.151 20.1615 20.4511 20.4616L22.1545 22.165C21.9971 22.4833 21.9082 22.8413 21.9082 23.2198C21.9082 24.5365 22.9794 25.6077 24.2961 25.6077C25.6129 25.6077 26.6841 24.5365 26.6841 23.2198C26.6841 22.8413 26.5951 22.4833 26.4378 22.165L30.2439 18.3589C30.5439 18.0588 30.5439 17.5722 30.2439 17.2722C29.9438 16.9721 29.4573 16.9721 29.1571 17.2722ZM24.2961 24.0709C23.8269 24.0709 23.4452 23.6891 23.4452 23.2199C23.4452 22.7507 23.8269 22.3689 24.2961 22.3689C24.7654 22.3689 25.1471 22.7507 25.1471 23.2199C25.1471 23.6891 24.7654 24.0709 24.2961 24.0709Z" fill="#4ECDC4"/>
<path d="M32.5124 22.4608H31.8004C31.3761 22.4608 31.032 22.8048 31.032 23.2292C31.032 23.6536 31.3761 23.9977 31.8004 23.9977H32.5124C32.9367 23.9977 33.2808 23.6536 33.2808 23.2292C33.2808 22.8048 32.9367 22.4608 32.5124 22.4608Z" fill="#4ECDC4"/>
<path d="M16.7917 22.442H16.0799C15.6555 22.442 15.3114 22.7861 15.3114 23.2105C15.3114 23.6349 15.6555 23.9789 16.0799 23.9789H16.7917C17.2161 23.9789 17.5602 23.6349 17.5602 23.2105C17.5602 22.7861 17.2161 22.442 16.7917 22.442Z" fill="#4ECDC4"/>
<path d="M24.3055 16.4839C24.7298 16.4839 25.074 16.1399 25.074 15.7155V15.0036C25.074 14.5792 24.7298 14.2351 24.3055 14.2351C23.8812 14.2351 23.5371 14.5792 23.5371 15.0036V15.7155C23.5371 16.1399 23.8812 16.4839 24.3055 16.4839Z" fill="#4ECDC4"/>
<path d="M24.2868 29.9558C23.8624 29.9558 23.5183 30.2998 23.5183 30.7242V31.4361C23.5183 31.8605 23.8624 32.2046 24.2868 32.2046C24.7111 32.2046 25.0552 31.8605 25.0552 31.4361V30.7242C25.0552 30.2998 24.7111 29.9558 24.2868 29.9558Z" fill="#4ECDC4"/>
<path d="M1.24232 27.193C1.04022 27.193 0.841963 27.2752 0.699032 27.4181C0.556101 27.561 0.473877 27.7593 0.473877 27.9614C0.473877 28.1643 0.556024 28.3618 0.699032 28.5047C0.842039 28.6476 1.04022 28.7298 1.24232 28.7298C1.44442 28.7298 1.64268 28.6476 1.78554 28.5047C1.92847 28.3618 2.01077 28.1635 2.01077 27.9614C2.01077 27.7593 1.92854 27.561 1.78554 27.4181C1.64268 27.2752 1.44442 27.193 1.24232 27.193Z" fill="#4ECDC4"/>
</svg>
