<svg width="24" height="36" viewBox="0 0 24 36" fill="none" xmlns="http://www.w3.org/2000/svg">
<path d="M21.4148 0.630371H2.58511C1.61186 0.630371 0.819824 1.42241 0.819824 2.39566C0.819824 3.36891 1.61186 4.16095 2.58511 4.16095H21.4149C22.3881 4.16095 23.1802 3.36891 23.1802 2.39566C23.1802 1.42241 22.3881 0.630371 21.4148 0.630371ZM21.4148 2.98407H2.58511C2.26088 2.98407 1.99671 2.72045 1.99671 2.39566C1.99671 2.07087 2.26088 1.80725 2.58511 1.80725H21.4149C21.7391 1.80725 22.0033 2.07087 22.0033 2.39566C22.0033 2.72045 21.7391 2.98407 21.4148 2.98407Z" fill="#4ECDC4"/>
<path d="M21.4148 32.4056H2.58511C1.61186 32.4056 0.819824 33.1976 0.819824 34.1709C0.819824 35.1441 1.61186 35.9362 2.58511 35.9362H21.4149C22.3881 35.9362 23.1802 35.1441 23.1802 34.1709C23.1802 33.1976 22.3881 32.4056 21.4148 32.4056ZM21.4148 34.7593H2.58511C2.26088 34.7593 1.99671 34.4957 1.99671 34.1709C1.99671 33.8461 2.26088 33.5825 2.58511 33.5825H21.4149C21.7391 33.5825 22.0033 33.8461 22.0033 34.1709C22.0033 34.4957 21.7391 34.7593 21.4148 34.7593Z" fill="#4ECDC4"/>
<path d="M16.1931 16.099C19.1812 13.111 20.8264 9.13844 20.8264 4.91354V3.57254C20.8264 3.24714 20.5628 2.98414 20.238 2.98414H3.76193C3.43714 2.98414 3.17352 3.24714 3.17352 3.57254V4.91354C3.17352 9.13906 4.81876 13.111 7.80623 16.099L8.3976 16.6904C8.81714 17.1099 9.05779 17.6901 9.05779 18.2833C9.05779 18.8764 8.81714 19.4566 8.39816 19.8762L7.80678 20.4675C4.81876 23.4556 3.17352 27.4275 3.17352 31.653V32.994C3.17352 33.3194 3.43714 33.5824 3.76193 33.5824H20.2379C20.5627 33.5824 20.8263 33.3194 20.8263 32.994V31.653C20.8263 27.4281 19.1811 23.4556 16.1931 20.4675L15.6017 19.8762C15.1762 19.4507 14.9421 18.8853 14.9421 18.2833C14.9421 17.6813 15.1762 17.1158 15.6017 16.6904L16.1931 16.099ZM14.7697 15.8583C14.1218 16.5056 13.7653 17.3665 13.7653 18.2833C13.7653 19.2 14.1218 20.0609 14.7697 20.7082L15.361 21.2996C18.1267 24.0652 19.6495 27.7422 19.6495 31.653V32.4056H4.3504V31.653C4.3504 27.7417 5.87324 24.0652 8.63826 21.2996L9.22963 20.7082C9.8781 20.0609 10.2347 19.1994 10.2347 18.2833C10.2347 17.3671 9.8781 16.5056 9.23026 15.8583L8.63888 15.267C5.87324 12.5013 4.3504 8.82421 4.3504 4.91354V4.16095H19.6496V4.91354C19.6496 8.82428 18.1268 12.5013 15.3611 15.267L14.7697 15.8583Z" fill="#4ECDC4"/>
<path d="M16.9728 10.5436C16.9133 10.3942 16.7109 10.0452 16.119 10.0452C13.0615 10.0452 11.6992 9.39027 11.159 8.99957C10.4853 8.51177 9.62089 8.38406 8.84472 8.65885C8.10392 8.92068 7.56137 9.50322 7.35719 10.2564C7.30423 10.4524 7.29478 10.5795 7.29478 10.5795C7.28595 10.6954 7.31126 10.8208 7.36836 10.9226C7.91973 11.8999 8.55579 12.9309 9.4714 13.8465L10.0621 14.4378C10.9324 15.307 11.4114 16.4638 11.4114 17.6948C11.4114 18.0202 11.675 18.2832 11.9998 18.2832C12.3246 18.2832 12.5882 18.0202 12.5882 17.6948C12.5882 16.4644 13.0672 15.3075 13.9369 14.4378L14.5289 13.8458C14.6742 13.7011 14.8637 13.5222 15.072 13.3269C16.5932 11.8964 17.2329 11.2003 16.9728 10.5436ZM14.2648 12.4696C14.0471 12.675 13.8482 12.8621 13.6964 13.0139L13.1044 13.6059C12.6473 14.0625 12.2766 14.5826 11.9993 15.1464C11.7222 14.5826 11.3515 14.0625 10.8942 13.6059L10.3034 13.0145C9.58083 12.2913 9.05186 11.4952 8.50166 10.5354C8.64702 10.0441 9.02359 9.84401 9.23722 9.76809C9.64792 9.62273 10.1087 9.69161 10.4688 9.95289C11.2184 10.4954 12.6966 11.135 15.5281 11.2139C15.1645 11.6234 14.5938 12.1607 14.2648 12.4696Z" fill="#4ECDC4"/>
<path d="M18.4321 30.5944C18.2844 28.6867 17.5195 27.8946 16.6345 26.9767C16.515 26.8525 16.3903 26.7237 16.2626 26.5872C15.5235 25.7975 14.4796 25.3444 13.3975 25.3444H10.6019C9.52036 25.3444 8.47587 25.7975 7.73679 26.5872C7.60908 26.7237 7.48496 26.8519 7.36546 26.9761C6.47985 27.8941 5.71492 28.6867 5.56783 30.595C5.55487 30.7585 5.61134 30.9198 5.72257 31.0404C5.83435 31.1605 5.99033 31.2288 6.15445 31.2288H17.8453C18.0089 31.2288 18.1654 31.1605 18.2772 31.0399C18.3885 30.9192 18.4444 30.7574 18.4321 30.5944ZM6.8247 30.0519C7.02419 29.0245 7.49965 28.5326 8.2128 27.7935C8.33637 27.6652 8.46463 27.5317 8.59647 27.391C9.11372 26.8379 9.84452 26.5213 10.6019 26.5213H13.3975C14.1554 26.5213 14.8862 26.8384 15.4035 27.3904C15.5359 27.5328 15.6641 27.6652 15.7883 27.7941C16.5009 28.5332 16.9757 29.0251 17.1758 30.0519H6.8247Z" fill="#4ECDC4"/>
<path d="M11.9823 19.4601C11.6575 19.4601 11.3939 19.7231 11.3939 20.0486V20.637C11.3939 20.9624 11.6575 21.2254 11.9823 21.2254C12.3071 21.2254 12.5707 20.9624 12.5707 20.637V20.0486C12.5707 19.7231 12.3071 19.4601 11.9823 19.4601Z" fill="#4ECDC4"/>
<path d="M11.9823 22.4022C11.6575 22.4022 11.3939 22.6652 11.3939 22.9907V23.5791C11.3939 23.9045 11.6575 24.1675 11.9823 24.1675C12.3071 24.1675 12.5707 23.9045 12.5707 23.5791V22.9907C12.5707 22.6653 12.3071 22.4022 11.9823 22.4022Z" fill="#4ECDC4"/>
</svg>
