<svg width="39" height="40" viewBox="0 0 39 40" fill="none" xmlns="http://www.w3.org/2000/svg">
<path d="M37.225 10.3695H35.95C35.2458 10.3695 34.675 10.9404 34.675 11.6445H31.4874C27.2643 11.6491 23.8419 15.0715 23.8373 19.2946V24.3947C23.8373 26.8593 21.8394 28.8572 19.3748 28.8572C16.9102 28.8572 14.9122 26.8593 14.9122 24.3947V21.8447C15.6164 21.8447 16.1872 21.2738 16.1872 20.5696V19.2946C16.1872 18.5904 15.6164 18.0196 14.9122 18.0196V9.732C14.9076 5.50886 11.4852 2.08647 7.2621 2.0819H4.07456C4.07456 1.37773 3.50372 0.806885 2.79954 0.806885H1.52453C0.820356 0.806885 0.249512 1.37773 0.249512 2.0819V12.282C0.249512 12.9862 0.820356 13.557 1.52453 13.557H2.79954C3.50372 13.557 4.07456 12.9862 4.07456 12.282H4.71207V18.0196C4.0079 18.0196 3.43705 18.5904 3.43705 19.2946V20.5696C3.43705 21.2738 4.0079 21.8447 4.71207 21.8447V24.3947C4.71207 32.4927 11.2768 39.0574 19.3748 39.0574C27.4727 39.0574 34.0374 32.4927 34.0374 24.3947V21.8447H34.675C34.675 22.5488 35.2458 23.1197 35.95 23.1197H37.225C37.9292 23.1197 38.5 22.5488 38.5 21.8447V11.6445C38.5 10.9404 37.9292 10.3695 37.225 10.3695ZM2.79954 12.282H1.52453V2.0819H2.79954V12.282ZM5.34958 11.007H4.07456V3.35692H7.2621C10.7814 3.36078 13.6333 6.21274 13.6372 9.732V18.0196H5.98709V11.6445C5.98709 11.2924 5.70166 11.007 5.34958 11.007ZM4.71207 19.2946H14.9122V20.5696H4.71207V19.2946ZM5.98709 21.8447H13.6372V24.3947C13.6388 25.204 13.8126 26.0038 14.1472 26.7407C13.3912 27.1108 12.8124 27.7649 12.5368 28.5602C11.4828 28.2351 10.336 28.5564 9.60431 29.3819C8.76025 29.0698 7.82338 29.1308 7.02686 29.5496C6.34065 27.9176 5.98715 26.1651 5.98709 24.3947V21.8447ZM19.3748 37.7824C14.4379 37.778 9.90357 35.0589 7.57448 30.706C8.20394 30.3837 8.95138 30.3904 9.57498 30.7239C9.85431 30.8346 10.173 30.7353 10.34 30.4854C10.5698 30.1017 10.951 29.8327 11.3896 29.745C11.8282 29.6572 12.2835 29.7587 12.6433 30.0245C12.8379 30.1529 13.087 30.1649 13.2929 30.0558C13.5003 29.9473 13.6322 29.7345 13.6372 29.5005C13.6764 28.7714 14.1273 28.1284 14.7994 27.843C15.7761 29.1481 17.264 29.9738 18.8883 30.112C20.5126 30.2503 22.1186 29.6879 23.3018 28.5665C23.9504 28.8338 24.4005 29.4347 24.4748 30.1323C24.4749 30.3901 24.6302 30.6225 24.8684 30.7211C25.1066 30.8198 25.3807 30.7652 25.563 30.583C25.8819 30.2715 26.3088 30.0954 26.7546 30.0915C27.1109 30.1488 27.4386 30.474 27.7293 31.0547C27.8275 31.2516 28.0203 31.3839 28.2393 31.4047H28.2967C28.4973 31.4047 28.6863 31.3103 28.8067 31.1497C29.1046 30.7646 29.5401 30.5099 30.0218 30.4389C30.4123 30.4755 30.7704 30.6718 31.0112 30.9814C28.6396 35.178 24.1951 37.7756 19.3748 37.7824ZM33.3999 20.5696C33.0479 20.5696 32.7624 20.8551 32.7624 21.2071V24.3947C32.7622 26.2557 32.3713 28.0959 31.6149 29.7963C31.1787 29.4023 30.6152 29.1787 30.0275 29.1664C29.4417 29.1815 28.8775 29.3907 28.4235 29.7612C28.0751 29.2737 27.5506 28.9408 26.9611 28.833C26.4721 28.7629 25.9734 28.8469 25.5344 29.0734C25.2381 28.4432 24.7536 27.9204 24.1478 27.5771C24.7784 26.6357 25.1142 25.5278 25.1123 24.3947V19.2946C25.1162 15.7754 27.9682 12.9234 31.4874 12.9195H34.675V20.5696H33.3999ZM37.225 21.8447H35.95V11.6445H37.225V21.8447Z" fill="#4ECDC4"/>
<path d="M25.7498 33.9573C26.1019 33.9573 26.3873 33.6719 26.3873 33.3198C26.3873 32.9677 26.1019 32.6823 25.7498 32.6823C25.3978 32.6823 25.1123 32.9677 25.1123 33.3198C25.1123 33.6719 25.3978 33.9573 25.7498 33.9573Z" fill="#4ECDC4"/>
<path d="M21.2873 36.5073C21.6394 36.5073 21.9248 36.2219 21.9248 35.8698C21.9248 35.5177 21.6394 35.2323 21.2873 35.2323C20.9352 35.2323 20.6498 35.5177 20.6498 35.8698C20.6498 36.2219 20.9352 36.5073 21.2873 36.5073Z" fill="#4ECDC4"/>
<path d="M16.8247 32.6823C17.1768 32.6823 17.4622 32.3969 17.4622 32.0448C17.4622 31.6927 17.1768 31.4073 16.8247 31.4073C16.4726 31.4073 16.1872 31.6927 16.1872 32.0448C16.1872 32.3969 16.4726 32.6823 16.8247 32.6823Z" fill="#4ECDC4"/>
<path d="M17.4622 36.5073C17.8143 36.5073 18.0997 36.2219 18.0997 35.8698C18.0997 35.5177 17.8143 35.2323 17.4622 35.2323C17.1101 35.2323 16.8247 35.5177 16.8247 35.8698C16.8247 36.2219 17.1101 36.5073 17.4622 36.5073Z" fill="#4ECDC4"/>
<path d="M21.2873 33.3198C21.6394 33.3198 21.9248 33.0344 21.9248 32.6823C21.9248 32.3302 21.6394 32.0448 21.2873 32.0448C20.9352 32.0448 20.6498 32.3302 20.6498 32.6823C20.6498 33.0344 20.9352 33.3198 21.2873 33.3198Z" fill="#4ECDC4"/>
<path d="M12.9997 33.9573C13.3518 33.9573 13.6372 33.6719 13.6372 33.3198C13.6372 32.9677 13.3518 32.6823 12.9997 32.6823C12.6476 32.6823 12.3622 32.9677 12.3622 33.3198C12.3622 33.6719 12.6476 33.9573 12.9997 33.9573Z" fill="#4ECDC4"/>
</svg>
