<svg width="40" height="43" viewBox="0 0 40 43" fill="none" xmlns="http://www.w3.org/2000/svg">
<path d="M30.4513 19.1017C30.3321 19.1017 30.2164 19.1151 30.0986 19.1193V16.7437L30.9253 17.5704C31.4762 18.1211 32.3692 18.1211 32.9201 17.5704L33.9174 16.573C34.1821 16.3084 34.3308 15.9495 34.3308 15.5753C34.3308 15.201 34.1821 14.8421 33.9174 14.5776L19.8103 0.470411C19.2594 -0.0803063 18.3664 -0.0803063 17.8155 0.470411L12.4647 5.82125V3.58386C12.4647 2.80474 11.8331 2.17314 11.054 2.17314H8.93792C8.1588 2.17314 7.5272 2.80474 7.5272 3.58386V10.7587L3.7084 14.5776C3.44372 14.8421 3.29501 15.201 3.29501 15.5753C3.29501 15.9495 3.44372 16.3084 3.7084 16.573L4.70578 17.5704C5.25666 18.1211 6.14964 18.1211 6.70053 17.5704L7.5272 16.7437V20.5124H7.17453C3.4755 20.5167 0.477908 23.5143 0.473633 27.2133V35.6776C0.473633 39.3784 3.47373 42.3785 7.17453 42.3785C10.8753 42.3785 13.8754 39.3784 13.8754 35.6776C13.8754 35.0933 14.3491 34.6196 14.9335 34.6196C15.5178 34.6196 15.9915 35.0933 15.9915 35.6776V38.2627C15.5842 38.4339 15.2812 38.7866 15.1733 39.215L14.8206 40.6257C14.7152 41.0472 14.81 41.4938 15.0774 41.8362C15.3449 42.1786 15.7552 42.3787 16.1897 42.3785H21.4361C21.8706 42.3787 22.2809 42.1786 22.5484 41.8362C22.8159 41.4938 22.9106 41.0472 22.8052 40.6257L22.4526 39.215C22.3447 38.7866 22.0416 38.4339 21.6343 38.2627V35.6776C21.6343 31.9768 18.6343 28.9767 14.9335 28.9767C11.2327 28.9767 8.23256 31.9768 8.23256 35.6776C8.23256 36.2619 7.75886 36.7356 7.17453 36.7356C6.59019 36.7356 6.11649 36.2619 6.11649 35.6776V27.2133C6.11649 26.629 6.59019 26.1553 7.17453 26.1553H7.5272C7.5272 26.9344 8.1588 27.566 8.93792 27.566H20.9911C20.9511 27.9173 20.9304 28.2705 20.929 28.624C20.929 33.8831 25.1923 38.1464 30.4513 38.1464C35.7103 38.1464 39.9736 33.8831 39.9736 28.624C39.9736 23.365 35.7103 19.1017 30.4513 19.1017ZM8.93792 3.58386H11.054V7.23196L8.93792 9.34804V3.58386ZM5.70315 16.573L4.70578 15.5749L18.8129 1.46779L32.9201 15.5749L31.9227 16.573L19.8103 4.46062C19.2594 3.9099 18.3664 3.9099 17.8155 4.46062L5.70315 16.573ZM16.1897 40.9678L16.5424 39.5571H21.0835L21.4361 40.9678H16.1897ZM7.17453 24.7446C5.81107 24.7446 4.70578 25.8499 4.70578 27.2133V35.6776C4.70578 37.0411 5.81107 38.1464 7.17453 38.1464C8.53798 38.1464 9.64328 37.0411 9.64328 35.6776C9.64328 32.7559 12.0118 30.3874 14.9335 30.3874C17.8551 30.3874 20.2236 32.7559 20.2236 35.6776V38.1464H17.4022V35.6776C17.4022 34.3142 16.2969 33.2089 14.9335 33.2089C13.57 33.2089 12.4647 34.3142 12.4647 35.6776C12.4647 38.5993 10.0962 40.9678 7.17453 40.9678C4.25284 40.9678 1.88435 38.5993 1.88435 35.6776V27.2133C1.88746 24.2929 4.25413 21.9263 7.17453 21.9231H7.5272V24.7446H7.17453ZM13.1701 26.1553V18.3964H17.4022V26.1553H13.1701ZM18.8129 26.1553V18.3964C18.8129 17.6172 18.1813 16.9856 17.4022 16.9856H13.1701C12.3909 16.9856 11.7593 17.6172 11.7593 18.3964V26.1553H8.93792V15.333L18.8129 5.45799L28.6879 15.333V19.2724C25.1 19.9564 22.2177 22.6291 21.2654 26.1553H18.8129ZM30.4513 36.7356C25.9714 36.7356 22.3397 33.104 22.3397 28.624C22.3397 24.1441 25.9714 20.5124 30.4513 20.5124C34.9312 20.5124 38.5629 24.1441 38.5629 28.624C38.5579 33.1019 34.9291 36.7306 30.4513 36.7356Z" fill="#4ECDC4"/>
<path d="M30.4513 22.6285C29.9294 22.6281 29.4502 22.9171 29.2071 23.379C28.3021 25.0895 26.5718 29.2878 26.5718 30.7401C26.5718 32.8827 28.3087 34.6196 30.4513 34.6196C32.5939 34.6196 34.3308 32.8827 34.3308 30.7401C34.3308 29.2878 32.6005 25.0895 31.6956 23.3783C31.4521 22.9168 30.9731 22.6282 30.4513 22.6285ZM30.4513 33.2089C29.0879 33.2089 27.9826 32.1036 27.9826 30.7401C27.9826 29.6941 29.5245 25.7963 30.4513 24.0392C31.3803 25.797 32.9201 29.6948 32.9201 30.7401C32.9201 31.3949 32.66 32.0228 32.197 32.4858C31.734 32.9488 31.1061 33.2089 30.4513 33.2089Z" fill="#4ECDC4"/>
</svg>
