<svg width="37" height="38" viewBox="0 0 37 38" fill="none" xmlns="http://www.w3.org/2000/svg">
<path d="M35.8829 17.1398C35.6341 16.8102 35.3768 16.4692 35.3358 16.2045C35.2914 15.9227 35.4337 15.5089 35.5715 15.1093C35.7719 14.5298 35.9979 13.8729 35.7946 13.2467C35.588 12.6086 35.0119 12.2061 34.5036 11.8509C34.162 11.6124 33.8097 11.3659 33.685 11.1223C33.5575 10.8729 33.5649 10.438 33.5717 10.0179C33.582 9.40199 33.5934 8.70467 33.2034 8.16844C32.8118 7.62993 32.1424 7.42557 31.552 7.24569C31.1519 7.12387 30.7375 6.99693 30.5422 6.80167C30.3464 6.60585 30.22 6.19144 30.0982 5.79126C29.9183 5.20095 29.7139 4.53152 29.1749 4.13988C28.6392 3.74994 27.9413 3.76076 27.326 3.77158C26.9059 3.77955 26.4704 3.78581 26.2216 3.6583C25.978 3.5342 25.7315 3.18127 25.493 2.83972C25.1383 2.33138 24.7359 1.75587 24.0978 1.54867C23.471 1.34545 22.813 1.57144 22.2329 1.77068C21.8333 1.90843 21.4183 2.05018 21.1377 2.00691C20.873 1.96536 20.532 1.70806 20.2018 1.45987C19.7055 1.0853 19.1419 0.660645 18.4656 0.660645C17.7894 0.660645 17.2258 1.0853 16.7289 1.45987C16.3993 1.70863 16.0583 1.96536 15.7936 2.00691C15.513 2.05188 15.0985 1.90843 14.6984 1.77068C14.1183 1.57087 13.4614 1.34488 12.8358 1.54753C12.1977 1.75474 11.7952 2.33024 11.44 2.83858C11.2015 3.17956 10.955 3.53249 10.7114 3.65659C10.462 3.7841 10.0266 3.77613 9.60703 3.76987C8.9911 3.75791 8.29378 3.74767 7.75755 4.13817C7.21904 4.52981 7.01468 5.19925 6.8348 5.78955C6.71298 6.1903 6.58604 6.60415 6.39079 6.79997C6.19497 6.99579 5.78055 7.12216 5.3798 7.24455C4.7895 7.42443 4.12063 7.62879 3.72842 8.1673C3.33849 8.70296 3.34987 9.40085 3.36012 10.0168C3.36695 10.4375 3.37378 10.8718 3.24684 11.1217C3.12274 11.3648 2.76981 11.6112 2.42883 11.8498C1.92049 12.205 1.34499 12.6074 1.13721 13.2455C0.93399 13.8723 1.16055 14.5292 1.36036 15.1093C1.49811 15.5094 1.64099 15.9227 1.59659 16.2045C1.55504 16.4692 1.29831 16.8102 1.04955 17.1398C0.674414 17.6367 0.249756 18.2003 0.249756 18.8765C0.249756 19.5528 0.674414 20.1163 1.04898 20.6133C1.29774 20.9429 1.55447 21.2844 1.59602 21.5491L2.72085 21.3721C2.63547 20.8262 2.29107 20.3697 1.95806 19.9279C1.678 19.5562 1.38825 19.172 1.38825 18.8765C1.38825 18.5811 1.678 18.1968 1.95806 17.8251C2.29107 17.3834 2.6349 16.9269 2.72085 16.381C2.80909 15.8197 2.61953 15.2698 2.43623 14.7381C2.28766 14.3072 2.13396 13.8609 2.21992 13.5973C2.30929 13.3224 2.7015 13.0486 3.08062 12.7833C3.53602 12.4651 4.00735 12.1361 4.26067 11.6397C4.51683 11.1376 4.50772 10.5587 4.49804 9.99856C4.49064 9.53975 4.48324 9.06614 4.64889 8.83787C4.81682 8.60732 5.27165 8.46843 5.71224 8.33409C6.2462 8.17071 6.79894 8.00222 7.1957 7.60545C7.59246 7.20869 7.76096 6.65652 7.92377 6.12256C8.05811 5.68254 8.19644 5.22714 8.42755 5.05921C8.65582 4.89299 9.13 4.90039 9.58824 4.90836C10.1484 4.91747 10.7267 4.92715 11.2294 4.67099C11.7258 4.41767 12.0548 3.9469 12.3736 3.49094C12.6383 3.11182 12.9126 2.72018 13.1876 2.63081C13.4506 2.54428 13.8969 2.69912 14.3278 2.84712C14.86 3.03042 15.4094 3.21941 15.9706 3.13174C16.516 3.04636 16.9731 2.70196 17.4148 2.36895C17.786 2.08888 18.1702 1.79914 18.4656 1.79914C18.7611 1.79914 19.1453 2.08888 19.517 2.36895C19.9588 2.70196 20.4153 3.04579 20.9612 3.13174C21.5214 3.21827 22.0724 3.03042 22.6041 2.84712C23.0356 2.69855 23.4807 2.54428 23.7454 2.63081C24.0198 2.72018 24.2942 3.11182 24.5594 3.49094C24.8776 3.94633 25.2072 4.41767 25.703 4.67099C26.2051 4.92715 26.7863 4.91918 27.3442 4.90836C27.803 4.90153 28.2772 4.89299 28.5054 5.05921C28.736 5.22714 28.8743 5.68197 29.0092 6.12256C29.172 6.65652 29.3405 7.20926 29.7373 7.60602C30.1335 8.00278 30.6862 8.17128 31.2202 8.33409C31.6596 8.46843 32.115 8.60732 32.283 8.83787C32.4492 9.06614 32.4412 9.53975 32.4338 9.99856C32.4247 10.5587 32.4156 11.1376 32.6718 11.6397C32.9251 12.1361 33.3958 12.4651 33.8512 12.7833C34.2304 13.0486 34.622 13.3224 34.7119 13.5979C34.7973 13.8615 34.6442 14.3072 34.4956 14.7381C34.3123 15.2698 34.1233 15.8197 34.211 16.381C34.297 16.9263 34.6413 17.3834 34.9738 17.8246C35.2533 18.1968 35.543 18.5811 35.543 18.8765C35.543 19.172 35.2533 19.5562 34.9732 19.9285C34.6408 20.3697 34.297 20.8262 34.2104 21.3721L35.3358 21.5491C35.3768 21.2844 35.6341 20.9435 35.8829 20.6133C36.2569 20.1163 36.6815 19.5528 36.6815 18.8765C36.6815 18.2003 36.2569 17.6367 35.8829 17.1398ZM31.219 29.4195C30.6851 29.5823 30.1323 29.7508 29.7362 30.1476C29.3394 30.5438 29.1709 31.0965 29.0075 31.6305C28.8737 32.0705 28.7348 32.5254 28.5037 32.6933C28.276 32.8589 27.799 32.851 27.3436 32.8441C26.7835 32.835 26.2051 32.8259 25.7019 33.0821C25.2061 33.3354 24.8771 33.8062 24.5589 34.2616C24.2936 34.6407 24.0198 35.0323 23.7443 35.1223C23.4801 35.2088 23.035 35.0551 22.6035 34.9059C22.0718 34.7232 21.5214 34.5371 20.9606 34.6213C20.4147 34.7073 19.9582 35.0517 19.517 35.3841C19.1453 35.6642 18.7611 35.9539 18.4656 35.9539C18.1702 35.9539 17.786 35.6642 17.4137 35.3841C16.9725 35.0517 16.5154 34.7078 15.9701 34.6213C15.4105 34.5371 14.8589 34.7232 14.3272 34.9059C13.8963 35.0545 13.4511 35.2088 13.1865 35.1223C12.9115 35.0329 12.6371 34.6407 12.3724 34.2616C12.0536 33.8056 11.7246 33.3348 11.2288 33.0815C10.7267 32.8253 10.1472 32.8344 9.58824 32.8441C9.12943 32.8498 8.65525 32.8595 8.42698 32.6927C8.19644 32.5248 8.05754 32.07 7.9232 31.6299C7.75982 31.096 7.59133 30.5432 7.19456 30.147C6.7978 29.7503 6.24563 29.5818 5.71111 29.4184C5.27108 29.2846 4.81568 29.1457 4.64832 28.9146L3.72785 29.5852C4.11949 30.1231 4.78893 30.3275 5.37867 30.5074C5.77942 30.6298 6.19383 30.7561 6.38965 30.952C6.58547 31.1478 6.71184 31.5616 6.83423 31.9624C7.01411 32.5527 7.21847 33.2215 7.75698 33.6132C8.29264 34.0043 8.99053 33.9912 9.60703 33.9815C10.0266 33.9769 10.462 33.9678 10.7114 34.0948C10.9544 34.2189 11.2009 34.5718 11.4394 34.9133C11.7946 35.4217 12.1971 35.9972 12.8352 36.205C13.4608 36.4065 14.1183 36.1822 14.6984 35.9818C15.0985 35.8446 15.513 35.6978 15.7936 35.7461C16.0583 35.7871 16.3993 36.0444 16.7289 36.2932C17.2258 36.6678 17.7894 37.0924 18.4656 37.0924C19.1419 37.0924 19.7055 36.6678 20.2024 36.2938C20.532 36.045 20.8736 35.7877 21.1383 35.7467C21.416 35.6978 21.8333 35.8446 22.2335 35.9824C22.8141 36.1828 23.4716 36.4093 24.0961 36.2055C24.7342 35.9989 25.1366 35.4222 25.4918 34.9139C25.7304 34.5729 25.9774 34.22 26.2199 34.0959C26.4692 33.9678 26.903 33.9747 27.3243 33.9826C27.9362 33.9923 28.6369 34.0043 29.1737 33.6143C29.7117 33.2227 29.916 32.5538 30.0959 31.9635C30.2183 31.5633 30.3447 31.1483 30.5405 30.9531C30.7363 30.7573 31.1502 30.6309 31.5503 30.5091C32.1406 30.3292 32.8101 30.1243 33.2017 29.5858L32.2812 28.9163C32.1145 29.1463 31.6591 29.2846 31.219 29.4195Z" fill="#4ECDC4"/>
<path d="M4.80373 26.846V25.7075C4.80373 25.3927 4.5487 25.1382 4.23448 25.1382H3.09599V26.2767H3.66523V26.846C3.66523 27.1602 3.40964 27.4152 3.09599 27.4152C2.78233 27.4152 2.52674 27.1602 2.52674 26.846V23.4305C2.52674 23.1163 2.78233 22.8613 3.09599 22.8613C3.40964 22.8613 3.66523 23.1163 3.66523 23.4305V23.9997H4.80373V23.4305C4.80373 22.489 4.03752 21.7228 3.09599 21.7228C2.15445 21.7228 1.38825 22.489 1.38825 23.4305V26.846C1.38825 27.7875 2.15445 28.5537 3.09599 28.5537C4.03752 28.5537 4.80373 27.7875 4.80373 26.846ZM5.37297 21.7228V26.846C5.37297 27.7875 6.13918 28.5537 7.08071 28.5537C8.02225 28.5537 8.78845 27.7875 8.78845 26.846V21.7228H7.64996V26.846C7.64996 27.1602 7.39437 27.4152 7.08071 27.4152C6.76706 27.4152 6.51147 27.1602 6.51147 26.846V21.7228H5.37297ZM9.3577 23.4305V28.5537H10.4962V27.4152H11.6347V28.5537H12.7732V23.4305C12.7732 22.489 12.007 21.7228 11.0654 21.7228C10.1239 21.7228 9.3577 22.489 9.3577 23.4305ZM11.6347 23.4305V26.2767H10.4962V23.4305C10.4962 23.1163 10.7518 22.8613 11.0654 22.8613C11.3791 22.8613 11.6347 23.1163 11.6347 23.4305ZM17.3271 23.4305V28.5537H18.4656V27.4152H19.6041V28.5537H20.7426V23.4305C20.7426 22.489 19.9764 21.7228 19.0349 21.7228C18.0934 21.7228 17.3271 22.489 17.3271 23.4305ZM19.0349 22.8613C19.3491 22.8613 19.6041 23.1163 19.6041 23.4305V26.2767H18.4656V23.4305C18.4656 23.1163 18.7212 22.8613 19.0349 22.8613ZM13.3424 22.292V25.136C13.3424 25.1377 13.3424 25.1388 13.3424 25.1399V28.5537H14.4809V26.7612L15.7441 28.3403C15.8522 28.4752 16.0156 28.5537 16.1887 28.5537H16.7579V27.4152H16.4619L15.0763 25.683C16.0281 25.5333 16.7579 24.7079 16.7579 23.7151C16.7579 22.6165 15.8642 21.7228 14.7655 21.7228H13.9117C13.5974 21.7228 13.3424 21.9772 13.3424 22.292ZM14.4809 22.8613H14.7655C15.2363 22.8613 15.6194 23.2444 15.6194 23.7151C15.6194 24.1859 15.2363 24.569 14.7655 24.569H14.4809V22.8613ZM23.5889 25.0289L22.41 22.0808C22.3081 21.8264 22.0371 21.6846 21.7735 21.733C21.5054 21.7842 21.3119 22.0193 21.3119 22.292V28.5537H22.4504V25.2475L23.6293 28.1957C23.7175 28.4154 23.9293 28.5537 24.1575 28.5537C24.1934 28.5537 24.2298 28.5503 24.2657 28.5435C24.5338 28.4922 24.7274 28.2571 24.7274 27.9845V21.7228H23.5889V25.0289ZM27.5736 22.8613H28.7121V21.7228H25.2966V22.8613H26.4351V28.5537H27.5736V22.8613ZM32.1276 22.8613V21.7228H29.8506C29.5358 21.7228 29.2813 21.9772 29.2813 22.292V27.9845C29.2813 28.2993 29.5358 28.5537 29.8506 28.5537H32.1276V27.4152H30.4198V25.7075H32.1276V24.569H30.4198V22.8613H32.1276ZM32.6968 22.292V27.9845C32.6968 28.2993 32.9513 28.5537 33.266 28.5537H35.543V27.4152H33.8353V25.7075H35.543V24.569H33.8353V22.8613H35.543V21.7228H33.266C32.9513 21.7228 32.6968 21.9772 32.6968 22.292Z" fill="#4ECDC4"/>
<path d="M32.6968 18.8765C32.6968 11.0295 26.3127 4.64537 18.4656 4.64537C10.6186 4.64537 4.23448 11.0295 4.23448 18.8765C4.23448 19.4498 4.27319 20.048 4.3489 20.6549L5.47828 20.5137C5.40827 19.9535 5.37297 19.4025 5.37297 18.8765C5.37297 11.6573 11.2465 5.78386 18.4656 5.78386C25.6854 5.78386 31.5583 11.6573 31.5583 18.8765C31.5583 19.4025 31.523 19.9535 31.4524 20.5137L32.5818 20.6549C32.6587 20.048 32.6968 19.4498 32.6968 18.8765ZM27.1563 30.1425L26.4601 29.2419C24.1496 31.026 21.3859 31.9692 18.4656 31.9692C15.546 31.9692 12.7817 31.026 10.4717 29.2419L9.77553 30.1425C12.287 32.0825 15.2915 33.1077 18.4656 33.1077C21.6398 33.1077 24.6448 32.0825 27.1563 30.1425Z" fill="#4ECDC4"/>
<path d="M12.7732 12.6148H11.6347V13.7533H12.2039V19.4458H13.3424V13.1841C13.3424 12.8698 13.0874 12.6148 12.7732 12.6148ZM15.904 12.6148C14.8054 12.6148 13.9117 13.5085 13.9117 14.6072V17.4534C13.9117 18.5521 14.8054 19.4458 15.904 19.4458C17.0027 19.4458 17.8964 18.5521 17.8964 17.4534V14.6072C17.8964 13.5085 17.0027 12.6148 15.904 12.6148ZM16.7579 17.4534C16.7579 17.9242 16.3748 18.3073 15.904 18.3073C15.4333 18.3073 15.0502 17.9242 15.0502 17.4534V14.6072C15.0502 14.1364 15.4333 13.7533 15.904 13.7533C16.3748 13.7533 16.7579 14.1364 16.7579 14.6072V17.4534ZM20.458 12.6148C19.3594 12.6148 18.4656 13.5085 18.4656 14.6072V17.4534C18.4656 18.5521 19.3594 19.4458 20.458 19.4458C21.5566 19.4458 22.4504 18.5521 22.4504 17.4534V14.6072C22.4504 13.5085 21.5566 12.6148 20.458 12.6148ZM21.3119 17.4534C21.3119 17.9242 20.9288 18.3073 20.458 18.3073C19.9872 18.3073 19.6041 17.9242 19.6041 17.4534V14.6072C19.6041 14.1364 19.9872 13.7533 20.458 13.7533C20.9288 13.7533 21.3119 14.1364 21.3119 14.6072V17.4534Z" fill="#4ECDC4"/>
<path d="M24.2173 18.6221L26.4943 14.0681L27.5127 14.577L25.2357 19.131L24.2173 18.6221Z" fill="#4ECDC4"/>
<path d="M24.7274 14.8918H23.5889V16.0303H24.7274V14.8918Z" fill="#4ECDC4"/>
<path d="M28.1428 17.1688H27.0043V18.3073H28.1428V17.1688Z" fill="#4ECDC4"/>
</svg>
