<svg width="37" height="38" viewBox="0 0 37 38" fill="none" xmlns="http://www.w3.org/2000/svg">
<path d="M13.2898 23.4324H11.0859C10.3995 23.4324 9.8409 22.8741 9.8409 22.1874V20.959C9.8409 20.8864 9.78957 20.8236 9.71359 20.8027C8.94942 20.5945 8.21249 20.2883 7.52345 19.8929C7.46094 19.857 7.38725 19.8642 7.34051 19.9109L6.46308 20.7884C6.22795 21.0235 5.9154 21.1528 5.58278 21.1528C5.25045 21.1528 4.93761 21.0235 4.70249 20.7884L3.14405 19.2299C2.90892 18.9948 2.77931 18.6819 2.77931 18.3496C2.77931 18.017 2.90892 17.7042 3.14405 17.4693L4.02119 16.5919C4.06821 16.5451 4.07538 16.4715 4.03925 16.4089C3.64412 15.7199 3.33788 14.983 3.12971 14.2188C3.10878 14.1428 3.04598 14.0915 2.97343 14.0915H1.74503C1.05857 14.0915 0.5 13.5329 0.5 12.8465V10.6426C0.5 9.95611 1.05857 9.39754 1.74503 9.39754H2.97343C3.04598 9.39754 3.10878 9.3465 3.12971 9.27023C3.33788 8.50634 3.64412 7.76942 4.03954 7.08009C4.07538 7.01758 4.06821 6.94389 4.02148 6.89715L3.14405 6.01972C2.90892 5.78488 2.77931 5.47204 2.77931 5.13942C2.77931 4.80709 2.90892 4.49426 3.14405 4.25913L4.70249 2.70069C4.93761 2.46556 5.25016 2.33624 5.58278 2.33624C5.9154 2.33624 6.22824 2.46556 6.46337 2.70097L7.34051 3.57812C7.38725 3.62485 7.46066 3.63202 7.52345 3.59618C8.21249 3.20076 8.94913 2.89481 9.7133 2.68635C9.78986 2.66542 9.8409 2.60262 9.8409 2.53007V1.30167C9.8409 0.615213 10.3995 0.0566406 11.0859 0.0566406H13.2898C13.9763 0.0566406 14.5349 0.615213 14.5349 1.30167V2.53007C14.5349 2.60262 14.5859 2.66542 14.6622 2.68606C15.4261 2.89452 16.163 3.20076 16.852 3.59618C16.9148 3.63202 16.9882 3.62485 17.0352 3.57812L17.9124 2.70069C18.399 2.21437 19.1867 2.21409 19.6733 2.70097L19.8382 2.86585C20.3528 3.38026 19.5749 4.15963 19.0596 3.64435C18.9581 3.55661 18.828 3.34241 18.6912 3.47948L17.8138 4.35662C17.4169 4.75347 16.7961 4.83347 16.3041 4.55103C15.6962 4.20235 15.0461 3.93224 14.3726 3.74844C13.8197 3.5979 13.4335 3.09668 13.4335 2.52979V1.30167C13.4335 1.22225 13.369 1.15773 13.2895 1.15773H11.0856C11.0065 1.15773 10.942 1.22225 10.942 1.30167V2.53007C10.942 3.09696 10.5557 3.5979 10.0029 3.74873C9.32906 3.93253 8.67902 4.20235 8.07113 4.55103C7.57937 4.83347 6.95857 4.75347 6.56172 4.35662L5.68458 3.47948C5.64959 3.44449 5.61002 3.43733 5.58278 3.43733C5.55554 3.43733 5.51597 3.44449 5.48128 3.47948L3.92255 5.03792C3.88785 5.07261 3.8804 5.11247 3.8804 5.13942C3.8804 5.16666 3.88785 5.20652 3.92255 5.24122L4.79998 6.11865C5.19683 6.5155 5.27683 7.13601 4.99439 7.62806C4.64571 8.23623 4.3756 8.88599 4.1918 9.55983C4.04126 10.1127 3.54004 10.4986 2.97343 10.4986H1.74503C1.66561 10.4986 1.60109 10.5634 1.60109 10.6426V12.8465C1.60109 12.9259 1.66561 12.9904 1.74503 12.9904H2.97343C3.54004 12.9904 4.04126 13.3764 4.19209 13.9292C4.3756 14.6033 4.64571 15.2531 4.99439 15.861C5.27683 16.353 5.19683 16.9735 4.79998 17.3704L3.92284 18.2478C3.88785 18.2825 3.88069 18.3224 3.88069 18.3496C3.88069 18.3766 3.88814 18.4164 3.92284 18.4514L5.48128 20.0096C5.53748 20.0658 5.62866 20.066 5.68486 20.0096L6.56201 19.1324C6.95886 18.7356 7.57965 18.6556 8.0717 18.938C8.67959 19.2867 9.32935 19.5568 10.0032 19.7406C10.556 19.8911 10.9423 20.3924 10.9423 20.9593V22.1874C10.9423 22.2668 11.0068 22.3313 11.0859 22.3313H13.2898C13.3693 22.3313 13.4338 22.2668 13.4338 22.1874V20.9593C13.4338 20.3924 13.82 19.8911 14.3729 19.7406C15.0762 19.5491 15.3647 20.6114 14.6625 20.8027C14.5862 20.8236 14.5349 20.8864 14.5349 20.9593V22.1874C14.5349 22.8738 13.9763 23.4324 13.2898 23.4324Z" fill="#4ECDC4"/>
<path d="M6.99899 11.7445C6.99899 8.10403 10.6595 5.60852 14.0328 6.8937C14.7126 7.1532 14.3218 8.18231 13.6405 7.92281C10.9784 6.90803 8.09979 8.88426 8.09979 11.7445C8.09979 14.0711 10.0594 15.9642 12.4319 15.8251C13.1573 15.7813 13.2253 16.8815 12.4967 16.9245C9.50511 17.1006 6.99899 14.7149 6.99899 11.7445Z" fill="#4ECDC4"/>
<path d="M30.9663 24.5045L25.388 23.4198V22.0414C26.9545 20.9727 27.8027 19.4593 27.9873 17.7595C28.8005 17.695 29.4423 17.0128 29.4423 16.1836V15.0521C30.7679 14.4757 30.5889 12.5411 29.1865 12.2148V11.7781C29.1865 7.85171 26.0034 4.66859 22.0773 4.66859H21.4812C17.5548 4.66859 14.372 7.85171 14.372 11.7778V12.2148C12.9701 12.5408 12.79 14.4757 14.1162 15.0521V16.1836C14.1162 17.0128 14.7579 17.695 15.5711 17.7595C15.7323 19.2425 16.4273 20.6 17.5238 21.5439C17.7337 21.7248 17.9494 21.8906 18.1704 22.0414V23.4198L12.5922 24.5045C9.64906 25.0769 7.35512 26.7359 7.35512 29.7972V35.397C7.35512 36.636 8.35958 37.6404 9.59859 37.6404H33.9599C35.1989 37.6404 36.2033 36.636 36.2033 35.397V29.7972C36.2033 26.746 33.9235 25.0794 30.9663 24.5045ZM26.3839 24.7351C25.9842 25.3163 25.3731 26.2035 24.713 27.1589C24.4441 27.5486 23.9615 27.5982 23.7728 27.4852L22.9031 26.9636C23.7513 26.4627 24.9249 25.6024 25.2811 24.5206L26.3839 24.7351ZM21.7791 26.3216C20.943 25.9007 19.2761 24.8606 19.2715 23.8777C19.2715 23.8763 19.2715 23.8748 19.2715 23.8734V22.6493C20.8738 23.3403 22.6826 23.3412 24.2869 22.6493V23.8734C24.2869 24.8581 22.6161 25.9004 21.7791 26.3216ZM15.4731 11.7778C15.4731 9.51939 16.7256 7.54805 18.5725 6.52208V7.21227C18.5725 7.94002 19.6735 7.94117 19.6735 7.21227V6.04753C20.1676 5.89125 20.6889 5.79749 21.2285 5.77512V8.49745C21.2285 9.2252 22.3296 9.22635 22.3296 8.49745V5.77512C22.8693 5.79749 23.3909 5.89125 23.8849 6.04753V7.21227C23.8849 7.94002 24.986 7.94117 24.986 7.21227V6.52208C26.8329 7.54805 28.0854 9.51939 28.0854 11.7778V12.1758H15.4731V11.7778ZM14.7121 13.2769H28.8464C29.374 13.2769 29.3734 14.0743 28.8464 14.0743H14.7121C14.1842 14.0743 14.1847 13.2769 14.7121 13.2769ZM16.6372 17.2021C16.6309 16.9027 16.3863 16.6633 16.0867 16.6633C15.9949 16.6406 15.217 16.8064 15.217 16.1836V15.1757H28.3412V16.1836C28.3412 16.8052 27.5426 16.6458 27.4715 16.6633C27.1721 16.6633 26.9275 16.9027 26.9209 17.2021C26.8914 18.5784 26.3065 19.8567 25.3163 20.7095C23.2137 22.52 20.3448 22.5203 18.2421 20.7095C17.2517 19.8567 16.6668 18.5784 16.6372 17.2021ZM18.2771 24.5206C18.6335 25.6024 19.8069 26.4627 20.6553 26.9636C19.7837 27.4304 19.8453 27.5701 19.4493 27.5233C19.203 27.4938 18.9819 27.3567 18.8408 27.1526C18.1825 26.1994 17.5735 25.3148 17.1743 24.7351L18.2771 24.5206ZM11.9249 36.5394H9.5983C8.96747 36.5394 8.45592 36.0278 8.45592 35.397V29.7972C8.45592 28.1473 9.20547 27.0066 10.8496 26.2187C10.9162 26.5117 11.9249 29.2498 11.9249 33.0758V36.5394ZM21.2285 36.5394H13.026V33.0758C13.026 28.9304 11.9794 26.2611 11.8765 25.8092C12.5193 25.5956 12.0419 25.7602 15.9958 24.9642C17.1322 26.6155 19.2529 29.6965 20.5031 31.4735C20.9779 32.1482 21.2285 32.9407 21.2285 33.7657V36.5394ZM21.7791 31.4632C21.6696 31.2484 21.5442 31.0402 21.4037 30.8401C20.9811 30.2396 20.4326 29.4517 19.8602 28.6256C20.0303 28.588 20.1963 28.5226 20.352 28.4294L21.7791 27.5735L23.2065 28.4294C23.3619 28.5226 23.5282 28.588 23.6983 28.6256C23.1259 29.4511 22.5774 30.2391 22.1547 30.8401C22.0139 31.0402 21.8886 31.2484 21.7791 31.4632ZM35.1023 35.397C35.1023 36.0278 34.591 36.5394 33.9599 36.5394H31.6333V34.4622C31.6333 33.7344 30.5322 33.7333 30.5322 34.4622V36.5394H22.3296V33.7657C22.3296 32.9407 22.5805 32.1482 23.0551 31.4738C23.7662 30.463 26.6941 26.2379 27.5627 24.9642C31.5145 25.7599 31.038 25.5953 31.6817 25.8092C31.6017 26.1478 30.6753 28.6657 30.5474 32.2374C30.521 32.9668 31.6215 33.0027 31.6476 32.2769C31.7715 28.8206 32.6194 26.5966 32.7085 26.2187C34.3527 27.0066 35.1023 28.1473 35.1023 29.7969V35.397Z" fill="#4ECDC4"/>
</svg>
