<svg width="38" height="38" viewBox="0 0 38 38" fill="none" xmlns="http://www.w3.org/2000/svg">
<path d="M9.90242 17.8785V22.7046C9.90242 23.1488 10.2618 23.5089 10.7068 23.5089H17.1416C17.5862 23.5089 17.9459 23.1488 17.9459 22.7046V17.8785C17.9459 17.4347 17.5862 17.0741 17.1416 17.0741H10.7068C10.2618 17.0741 9.90242 17.4347 9.90242 17.8785ZM11.5111 18.6828H16.3372V21.9002H11.5111V18.6828Z" fill="#4ECDC4"/>
<path d="M37.25 16.2698C37.25 11.3915 33.2805 7.42205 28.4022 7.42205C26.301 7.42205 24.313 8.1824 22.7534 9.47414C22.5617 4.76316 18.681 0.987305 13.9241 0.987305C9.04576 0.987305 5.07628 4.95678 5.07628 9.83508C5.07628 11.0322 5.3351 12.2179 5.80247 13.3124L0.571885 17.2352C0.21645 17.5015 0.143792 18.0058 0.410859 18.3612C0.67714 18.7158 1.18064 18.7893 1.53647 18.5222L3.4676 17.0742V36.3784H1.05457C0.609588 36.3784 0.250226 36.7389 0.250226 37.1827C0.250226 37.6269 0.609588 37.9871 1.05457 37.9871H36.4457C36.8902 37.9871 37.25 37.6269 37.25 37.1827V33.9654C37.25 31.7479 35.4457 29.9437 33.2283 29.9437H29.2066V25.0767C33.709 24.6691 37.25 20.8771 37.25 16.2698ZM13.9241 2.59599C17.9159 2.59599 21.1631 5.844 21.1631 9.83508C21.1631 10.3892 21.0948 10.9403 20.9699 11.4775C20.8203 11.7085 20.6828 11.948 20.554 12.1943L14.4067 7.58307C14.1212 7.36824 13.7277 7.36824 13.4422 7.58307L7.12642 12.32C6.83618 11.5282 6.68497 10.6975 6.68497 9.83508C6.68497 5.844 9.93219 2.59599 13.9241 2.59599ZM16.3371 36.3784H11.511V28.335H16.3371V36.3784ZM22.7718 36.3784H17.9458V27.5306C17.9458 27.0868 17.586 26.7263 17.1414 26.7263H10.7067C10.2617 26.7263 9.90234 27.0868 9.90234 27.5306V36.3784H5.07628V15.8677L13.9241 9.23182L22.7718 15.8677V36.3784ZM33.2283 31.5523C34.5585 31.5523 35.6413 32.6351 35.6413 33.9654V36.3784H24.3805V31.5523H33.2283ZM24.3805 29.9437V24.151C25.3808 24.664 26.4668 24.9778 27.5979 25.0791V29.9437H24.3805ZM28.4022 23.5089C26.9518 23.5089 25.5717 23.0836 24.3805 22.2847V17.0742L26.3109 18.5222C26.4558 18.6306 26.6247 18.6828 26.7928 18.6828C27.0378 18.6828 27.2786 18.5721 27.4369 18.3612C27.7039 18.0058 27.6317 17.5015 27.2762 17.2352L22.0452 13.3117C22.1992 12.9519 22.33 12.5855 22.4356 12.208C23.7651 10.2663 25.9868 9.03073 28.4022 9.03073C32.3941 9.03073 35.6413 12.2787 35.6413 16.2698C35.6413 20.2613 32.3941 23.5089 28.4022 23.5089Z" fill="#4ECDC4"/>
</svg>
