<svg width="18" height="22" viewBox="0 0 18 22" fill="none" xmlns="http://www.w3.org/2000/svg">
<path d="M16.6626 9.16303C16.6626 15.2951 8.87256 20.5512 8.87256 20.5512C8.87256 20.5512 1.08252 15.2951 1.08252 9.16303C1.08252 7.07204 1.90325 5.06669 3.36417 3.58813C4.82508 2.10957 6.80651 1.27893 8.87256 1.27893C10.9386 1.27893 12.92 2.10957 14.3809 3.58813C15.8419 5.06669 16.6626 7.07204 16.6626 9.16303Z" stroke="#171E30" stroke-width="2" stroke-linecap="round" stroke-linejoin="round"/>
<path d="M8.87256 11.7911C10.3067 11.7911 11.4692 10.6145 11.4692 9.16303C11.4692 7.71161 10.3067 6.535 8.87256 6.535C7.43845 6.535 6.27588 7.71161 6.27588 9.16303C6.27588 10.6145 7.43845 11.7911 8.87256 11.7911Z" stroke="#171E30" stroke-width="2" stroke-linecap="round" stroke-linejoin="round"/>
</svg>
