<svg width="23" height="23" viewBox="0 0 23 23" fill="none" xmlns="http://www.w3.org/2000/svg">
<path d="M21.8889 16.5424V19.5428C21.89 19.8214 21.833 20.0971 21.7214 20.3523C21.6098 20.6075 21.4462 20.8366 21.2409 21.0249C21.0357 21.2132 20.7933 21.3566 20.5295 21.4458C20.2656 21.535 19.986 21.5682 19.7086 21.5431C16.631 21.2087 13.6748 20.157 11.0774 18.4727C8.66091 16.9371 6.61214 14.8883 5.07659 12.4718C3.38633 9.86268 2.33445 6.89206 2.00616 3.80064C1.98117 3.52407 2.01404 3.24532 2.10268 2.98215C2.19132 2.71898 2.33378 2.47714 2.521 2.27205C2.70822 2.06695 2.9361 1.90308 3.19012 1.79088C3.44414 1.67868 3.71874 1.6206 3.99644 1.62034H6.99686C7.48223 1.61556 7.95278 1.78744 8.3208 2.10394C8.68882 2.42043 8.9292 2.85995 8.99713 3.34057C9.12377 4.30077 9.35863 5.24356 9.69723 6.15096C9.83179 6.50894 9.86092 6.89798 9.78115 7.272C9.70138 7.64602 9.51607 7.98933 9.24717 8.26126L7.97699 9.53143C9.40074 12.0353 11.4739 14.1085 13.9778 15.5323L15.248 14.2621C15.5199 13.9932 15.8632 13.8079 16.2373 13.7281C16.6113 13.6483 17.0003 13.6775 17.3583 13.812C18.2657 14.1506 19.2085 14.3855 20.1687 14.5121C20.6545 14.5807 21.0982 14.8254 21.4154 15.1997C21.7326 15.5741 21.9011 16.0519 21.8889 16.5424Z" stroke="#171E30" stroke-width="2" stroke-linecap="round" stroke-linejoin="round"/>
</svg>
