<svg width="46" height="46" viewBox="0 0 46 46" fill="none" xmlns="http://www.w3.org/2000/svg">
<path d="M44.6609 12.4655H25.5952C25.2556 5.94798 19.8464 0.749908 13.2458 0.749908C6.42693 0.749908 0.879395 6.29745 0.879395 13.1163V32.8158C0.879395 39.6347 6.42693 45.1823 13.2458 45.1823H44.6609C45.0204 45.1823 45.3118 44.8909 45.3118 44.5314V13.1163C45.3118 12.7569 45.0204 12.4655 44.6609 12.4655ZM2.18112 13.1163C2.18112 7.01522 7.14471 2.05164 13.2458 2.05164C19.3469 2.05164 24.3105 7.01522 24.3105 13.1163V27.2976C22.2792 23.2412 18.0828 20.4494 13.2458 20.4494C8.40886 20.4494 4.21243 23.2412 2.18112 27.2976V13.1163ZM2.18112 32.8158C2.18112 26.7147 7.14471 21.7511 13.2458 21.7511C19.3469 21.7511 24.3105 26.7147 24.3105 32.8158C24.3105 38.917 19.3469 43.8806 13.2458 43.8806C7.14471 43.8806 2.18112 38.917 2.18112 32.8158ZM18.764 43.8806C22.8205 41.8492 25.6123 37.6528 25.6123 32.8158V13.7672H41.4066V28.9107C41.4066 30.7051 39.9467 32.165 38.1523 32.165H30.3419C29.9823 32.165 29.691 32.4564 29.691 32.8158V40.6262C29.691 42.4207 28.2312 43.8806 26.4367 43.8806H18.764ZM38.1996 33.4655L30.9915 40.6736C30.9917 40.6577 30.9927 40.6421 30.9927 40.6262V33.4667H38.1523C38.1681 33.4667 38.1838 33.4657 38.1996 33.4655ZM44.01 43.8806H29.6209C29.6327 43.869 29.6451 43.858 29.6568 43.8464C29.6583 43.8478 41.3724 32.1308 41.3724 32.1308C42.1973 31.3058 42.7083 30.1667 42.7083 28.9107V13.7672H44.01V43.8806Z" fill="#171E30"/>
<path d="M13.2458 39.9754C17.1936 39.9754 20.4053 36.7636 20.4053 32.8158C20.4053 28.868 17.1936 25.6563 13.2458 25.6563C9.29803 25.6563 6.08631 28.868 6.08631 32.8158C6.08631 36.7636 9.29803 39.9754 13.2458 39.9754ZM13.2458 26.9581C16.4759 26.9581 19.1036 29.5858 19.1036 32.8158C19.1036 36.0459 16.4759 38.6736 13.2458 38.6736C10.0158 38.6736 7.38804 36.0459 7.38804 32.8158C7.38804 29.5858 10.0158 26.9581 13.2458 26.9581Z" fill="#171E30"/>
<path d="M13.2458 37.3719C15.7581 37.3719 17.8019 35.3281 17.8019 32.8158C17.8019 30.3036 15.7581 28.2598 13.2458 28.2598C10.7336 28.2598 8.68977 30.3036 8.68977 32.8158C8.68977 35.3281 10.7336 37.3719 13.2458 37.3719ZM13.2458 29.5615C15.0403 29.5615 16.5002 31.0214 16.5002 32.8158C16.5002 34.6103 15.0403 36.0702 13.2458 36.0702C11.4513 36.0702 9.9915 34.6103 9.9915 32.8158C9.9915 31.0214 11.4513 29.5615 13.2458 29.5615Z" fill="#171E30"/>
<path d="M13.2458 23.0529C11.1187 23.0529 9.09678 23.7252 7.39863 24.997C7.11095 25.2124 7.05237 25.6204 7.26785 25.9081C7.48333 26.1958 7.8912 26.2544 8.17897 26.0389C9.65019 24.937 11.4022 24.3546 13.2458 24.3546C17.9114 24.3546 21.7071 28.1503 21.7071 32.8158C21.7071 37.4814 17.9114 41.2771 13.2458 41.2771C8.58025 41.2771 4.78458 37.4814 4.78458 32.8158C4.78458 30.9723 5.36698 29.2202 6.46885 27.749C6.68433 27.4613 6.62584 27.0534 6.33807 26.8379C6.0503 26.6223 5.64242 26.6809 5.42694 26.9687C4.15515 28.6668 3.48285 30.6887 3.48285 32.8158C3.48285 38.1992 7.86248 42.5788 13.2458 42.5788C18.6292 42.5788 23.0088 38.1992 23.0088 32.8158C23.0088 27.4325 18.6292 23.0529 13.2458 23.0529Z" fill="#171E30"/>
</svg>
