<svg width="52" height="57" viewBox="0 0 52 57" fill="none" xmlns="http://www.w3.org/2000/svg">
<path d="M39.3881 25.863C39.2315 25.863 39.0795 25.8806 38.9247 25.8861V22.7647L40.0109 23.8509C40.7347 24.5745 41.908 24.5745 42.6318 23.8509L43.9423 22.5405C44.29 22.1928 44.4854 21.7212 44.4854 21.2295C44.4854 20.7378 44.29 20.2662 43.9423 19.9186L25.4067 1.38303C24.6829 0.659433 23.5096 0.659433 22.7858 1.38303L15.7552 8.41357V5.47383C15.7552 4.45014 14.9254 3.62027 13.9017 3.62027H11.1213C10.0977 3.62027 9.26778 4.45014 9.26778 5.47383V14.901L4.25021 19.9186C3.90243 20.2662 3.70705 20.7378 3.70705 21.2295C3.70705 21.7212 3.90243 22.1928 4.25021 22.5405L5.56067 23.8509C6.28448 24.5745 7.45779 24.5745 8.1816 23.8509L9.26778 22.7647V27.7165H8.8044C3.94419 27.7221 0.00561785 31.6607 0 36.5209V47.6422C0 52.5048 3.94186 56.4466 8.8044 56.4466C13.6669 56.4466 17.6088 52.5048 17.6088 47.6422C17.6088 46.8745 18.2312 46.2521 18.999 46.2521C19.7667 46.2521 20.3891 46.8745 20.3891 47.6422V51.0389C19.854 51.2637 19.4558 51.7272 19.3141 52.29L18.8507 54.1436C18.7122 54.6974 18.8367 55.2842 19.1881 55.7341C19.5396 56.184 20.0787 56.4468 20.6496 56.4466H27.5429C28.1138 56.4468 28.6529 56.184 29.0043 55.7341C29.3557 55.2842 29.4802 54.6974 29.3418 54.1436L28.8784 52.29C28.7367 51.7272 28.3385 51.2637 27.8034 51.0389V47.6422C27.8034 42.7797 23.8615 38.8378 18.999 38.8378C14.1364 38.8378 10.1946 42.7797 10.1946 47.6422C10.1946 48.41 9.57216 49.0324 8.8044 49.0324C8.03663 49.0324 7.41423 48.41 7.41423 47.6422V36.5209C7.41423 35.7531 8.03663 35.1307 8.8044 35.1307H9.26778C9.26778 36.1544 10.0977 36.9843 11.1213 36.9843H26.9581C26.9056 37.4459 26.8784 37.9099 26.8766 38.3745C26.8766 45.2844 32.4782 50.886 39.3881 50.886C46.298 50.886 51.8996 45.2844 51.8996 38.3745C51.8996 31.4645 46.298 25.863 39.3881 25.863ZM11.1213 5.47383H13.9017V10.2671L11.1213 13.0475V5.47383ZM6.87114 22.5405L5.56067 21.2291L24.0962 2.69349L42.6318 21.2291L41.3213 22.5405L25.4067 6.62581C24.6829 5.90222 23.5096 5.90222 22.7858 6.62581L6.87114 22.5405ZM20.6496 54.5931L21.1129 52.7395H27.0795L27.5429 54.5931H20.6496ZM8.8044 33.2772C7.01294 33.2772 5.56067 34.7294 5.56067 36.5209V47.6422C5.56067 49.4337 7.01294 50.886 8.8044 50.886C10.5959 50.886 12.0481 49.4337 12.0481 47.6422C12.0481 43.8034 15.1601 40.6914 18.999 40.6914C22.8378 40.6914 25.9498 43.8034 25.9498 47.6422V50.886H22.2427V47.6422C22.2427 45.8508 20.7904 44.3985 18.999 44.3985C17.2075 44.3985 15.7552 45.8508 15.7552 47.6422C15.7552 51.4811 12.6432 54.5931 8.8044 54.5931C4.96555 54.5931 1.85356 51.4811 1.85356 47.6422V36.5209C1.85764 32.6838 4.96725 29.5742 8.8044 29.5701H9.26778V33.2772H8.8044ZM16.682 35.1307V24.9362H22.2427V35.1307H16.682ZM24.0962 35.1307V24.9362C24.0962 23.9125 23.2664 23.0826 22.2427 23.0826H16.682C15.6583 23.0826 14.8285 23.9125 14.8285 24.9362V35.1307H11.1213V20.9112L24.0962 7.93628L37.0711 20.9112V26.0872C32.357 26.9859 28.5699 30.4977 27.3186 35.1307H24.0962ZM39.3881 49.0324C33.5019 49.0324 28.7301 44.2607 28.7301 38.3745C28.7301 32.4882 33.5019 27.7165 39.3881 27.7165C45.2743 27.7165 50.046 32.4882 50.046 38.3745C50.0394 44.2579 45.2716 49.0258 39.3881 49.0324Z" fill="#171E30"/>
<path d="M39.3881 30.4968C38.7023 30.4964 38.0727 30.8761 37.7532 31.4829C36.5642 33.7304 34.2908 39.2466 34.2908 41.1548C34.2908 43.9699 36.5729 46.2521 39.3881 46.2521C42.2032 46.2521 44.4854 43.9699 44.4854 41.1548C44.4854 39.2466 42.212 33.7304 41.0229 31.482C40.703 30.8757 40.0736 30.4964 39.3881 30.4968ZM39.3881 44.3985C37.5966 44.3985 36.1444 42.9463 36.1444 41.1548C36.1444 39.7804 38.1703 34.659 39.3881 32.3504C40.6087 34.6599 42.6318 39.7813 42.6318 41.1548C42.6318 42.0151 42.2901 42.8401 41.6817 43.4485C41.0734 44.0568 40.2484 44.3985 39.3881 44.3985Z" fill="#171E30"/>
</svg>
