<svg width="49" height="47" viewBox="0 0 49 47" fill="none" xmlns="http://www.w3.org/2000/svg">
<path d="M48.625 27.9345C48.625 26.7326 48.147 25.6125 47.323 24.7865C48.257 23.7645 48.733 22.3945 48.603 20.9685C48.369 18.4265 46.0789 16.4345 43.387 16.4345H31.033C31.645 14.5765 32.625 11.1705 32.625 8.43454C32.625 4.09654 28.939 0.43457 26.625 0.43457C24.549 0.43457 23.0629 1.60457 23.001 1.65257C22.7629 1.8426 22.6249 2.1306 22.6249 2.43454V9.21651L16.863 21.6945L16.6249 21.8165V21.4345C16.6249 20.8825 16.1769 20.4344 15.6249 20.4344H5.62497C2.86703 20.4345 0.625 22.6766 0.625 25.4345V41.4345C0.625 44.1926 2.86703 46.4345 5.62497 46.4345H11.625C13.7869 46.4345 15.6349 45.0545 16.3309 43.1285C17.995 43.9845 20.235 44.4345 21.625 44.4345H39.983C42.161 44.4345 44.0671 42.9665 44.515 40.9425C44.745 39.8985 44.611 38.8485 44.155 37.9365C45.631 37.1945 46.625 35.6685 46.625 33.9345C46.625 33.2265 46.463 32.5485 46.157 31.9365C47.633 31.1925 48.625 29.6685 48.625 27.9345ZM44.407 30.4025C44.021 30.4485 43.695 30.7105 43.571 31.0805C43.4491 31.4505 43.5511 31.8565 43.835 32.1245C44.3431 32.6025 44.6251 33.2465 44.6251 33.9345C44.6251 35.1965 43.6711 36.2565 42.4091 36.4025C42.0231 36.4485 41.6971 36.7105 41.5731 37.0805C41.4512 37.4505 41.5532 37.8565 41.8371 38.1245C42.4952 38.7445 42.7592 39.6145 42.5612 40.5105C42.3152 41.6265 41.2311 42.4346 39.9831 42.4346H21.625C20.001 42.4346 17.277 41.6726 16.333 40.7265C16.047 40.4426 15.615 40.3586 15.243 40.5105C14.869 40.6646 14.625 41.0306 14.625 41.4345C14.625 43.0886 13.279 44.4345 11.625 44.4345H5.62497C3.97094 44.4345 2.62497 43.0886 2.62497 41.4345V25.4345C2.62497 23.7805 3.97094 22.4345 5.62497 22.4345H14.625V23.4345C14.625 23.7806 14.805 24.1025 15.1009 24.2865C15.393 24.4625 15.7609 24.4805 16.0729 24.3285L18.0729 23.3285C18.2749 23.2285 18.4369 23.0605 18.5329 22.8545L24.5329 9.85448C24.5929 9.72248 24.6249 9.57848 24.6249 9.43448V2.97651C25.041 2.74654 25.763 2.43454 26.625 2.43454C27.721 2.43454 30.625 5.15854 30.625 8.43454C30.625 11.9546 28.709 17.0285 28.691 17.0786C28.5751 17.3846 28.615 17.7306 28.801 18.0026C28.989 18.2726 29.297 18.4346 29.625 18.4346H43.387C45.055 18.4346 46.471 19.6286 46.611 21.1526C46.717 22.2926 46.1689 23.3766 45.187 23.9826C44.881 24.1706 44.699 24.5106 44.713 24.8726C44.727 25.2345 44.935 25.5585 45.255 25.7246C46.101 26.1546 46.6249 27.0026 46.6249 27.9345C46.625 29.1965 45.671 30.2565 44.407 30.4025Z" fill="#171E30"/>
<path d="M15.625 22.4345C15.073 22.4345 14.625 22.8825 14.625 23.4345V41.4345C14.625 41.9865 15.073 42.4346 15.625 42.4346C16.177 42.4346 16.625 41.9865 16.625 41.4345V23.4345C16.625 22.8825 16.177 22.4345 15.625 22.4345Z" fill="#171E30"/>
</svg>
