<svg width="49" height="50" viewBox="0 0 49 50" fill="none" xmlns="http://www.w3.org/2000/svg">
<path d="M20.4992 37.5515C20.4058 37.5512 20.3134 37.5323 20.2274 37.4957C20.0814 37.433 19.9616 37.3217 19.8884 37.1807C19.8151 37.0397 19.7929 36.8777 19.8255 36.7222L22.0049 26.3111H17.814C17.7007 26.3111 17.5891 26.2832 17.4892 26.2297C17.3893 26.1762 17.3042 26.0989 17.2413 26.0046C17.1785 25.9103 17.1399 25.8019 17.129 25.6891C17.1181 25.5763 17.1352 25.4626 17.1789 25.358L21.8501 14.1294C21.9022 14.0039 21.9904 13.8967 22.1034 13.8213C22.2165 13.7458 22.3493 13.7055 22.4852 13.7055H30.2084C30.3337 13.7055 30.4566 13.7397 30.5638 13.8044C30.6711 13.8691 30.7587 13.9619 30.8171 14.0727C30.8755 14.1836 30.9026 14.3082 30.8953 14.4333C30.8881 14.5584 30.8469 14.6791 30.7761 14.7825L26.1978 21.4727H30.6743C30.7998 21.4727 30.923 21.5071 31.0304 21.5721C31.1378 21.6371 31.2253 21.7303 31.2836 21.8415C31.3419 21.9527 31.3686 22.0777 31.3609 22.203C31.3532 22.3284 31.3114 22.4492 31.2399 22.5524L21.0649 37.2549C21.0016 37.3463 20.917 37.4211 20.8185 37.4728C20.72 37.5244 20.6104 37.5514 20.4992 37.5515ZM18.8476 24.9348H22.8541C22.9564 24.9348 23.0575 24.9576 23.1499 25.0016C23.2423 25.0456 23.3238 25.1096 23.3883 25.189C23.4529 25.2685 23.4989 25.3613 23.523 25.4608C23.5471 25.5603 23.5488 25.6639 23.5278 25.764L21.87 33.673L29.3613 22.849H24.8931C24.7678 22.849 24.6449 22.8148 24.5376 22.7501C24.4304 22.6854 24.3428 22.5926 24.2844 22.4818C24.226 22.3709 24.1989 22.2463 24.2061 22.1212C24.2133 21.9961 24.2546 21.8754 24.3253 21.772L28.9037 15.0818H22.9442L18.8476 24.9348Z" fill="#171E30"/>
<path d="M24.2441 49.0258C19.4805 49.0258 14.8238 47.6132 10.863 44.9666C6.90216 42.3201 3.81507 38.5585 1.9921 34.1574C0.169127 29.7564 -0.307845 24.9136 0.621497 20.2415C1.55084 15.5694 3.84476 11.2777 7.21317 7.90933C10.5816 4.54092 14.8732 2.24701 19.5453 1.31766C24.2174 0.388322 29.0602 0.865294 33.4613 2.68826C37.8623 4.51123 41.6239 7.59833 44.2705 11.5592C46.917 15.52 48.3296 20.1767 48.3296 24.9403C48.3223 31.3259 45.7824 37.4479 41.2671 41.9632C36.7518 46.4786 30.6298 49.0185 24.2441 49.0258ZM24.2441 2.23118C19.7527 2.23118 15.3621 3.56305 11.6276 6.05836C7.89313 8.55367 4.98244 12.1004 3.26364 16.2499C1.54484 20.3995 1.09513 24.9655 1.97136 29.3706C2.8476 33.7758 5.01043 37.8222 8.18636 40.9981C11.3623 44.174 15.4087 46.3369 19.8138 47.2131C24.219 48.0893 28.785 47.6396 32.9346 45.9208C37.0841 44.202 40.6308 41.2913 43.1261 37.5568C45.6214 33.8223 46.9533 29.4318 46.9533 24.9403C46.9464 18.9196 44.5516 13.1475 40.2943 8.89017C36.037 4.63289 30.2649 2.2381 24.2441 2.23118Z" fill="#171E30"/>
<path d="M41.2822 33.4459C41.1663 33.4459 41.0524 33.4166 40.9508 33.3608C40.8493 33.305 40.7635 33.2245 40.7014 33.1267C40.6393 33.0289 40.6029 32.917 40.5956 32.8014C40.5882 32.6858 40.6102 32.5702 40.6594 32.4653C40.9621 31.8175 41.2228 31.1509 41.4398 30.4696C41.4625 30.3782 41.5038 30.2924 41.5611 30.2175C41.6184 30.1427 41.6904 30.0804 41.7727 30.0345C41.8551 29.9887 41.9459 29.9602 42.0397 29.9509C42.1335 29.9416 42.2282 29.9517 42.318 29.9805C42.4077 30.0093 42.4906 30.0562 42.5614 30.1184C42.6323 30.1805 42.6896 30.2566 42.7298 30.3418C42.7701 30.427 42.7924 30.5196 42.7954 30.6138C42.7984 30.708 42.782 30.8018 42.7473 30.8894C42.5124 31.627 42.2304 32.3488 41.9029 33.0502C41.8475 33.1682 41.7598 33.268 41.6499 33.338C41.54 33.4081 41.4125 33.4455 41.2822 33.4459Z" fill="#171E30"/>
<path d="M24.2441 44.3807C20.4068 44.3819 16.655 43.2474 13.4613 41.1202C10.2675 38.9929 7.77479 35.9681 6.29706 32.4267C4.81932 28.8853 4.4227 24.9858 5.15716 21.2195C5.89161 17.4531 7.72428 13.9883 10.4243 11.2616C13.1243 8.53492 16.5709 6.66827 20.3299 5.89682C24.0889 5.12538 27.9921 5.48365 31.5478 6.9265C35.1035 8.36934 38.1527 10.8322 40.3113 14.0049C42.4698 17.1775 43.6411 20.9181 43.6777 24.7552C43.6785 24.8456 43.6615 24.9352 43.6277 25.019C43.5938 25.1028 43.5438 25.1791 43.4805 25.2436C43.4172 25.3081 43.3418 25.3595 43.2586 25.3948C43.1754 25.4301 43.0861 25.4487 42.9957 25.4496H42.9895C42.8081 25.4496 42.634 25.3779 42.5051 25.2502C42.3762 25.1225 42.303 24.949 42.3013 24.7676C42.2673 20.8047 40.9321 16.9628 38.5014 13.8328C36.0706 10.7028 32.6788 8.45804 28.8477 7.4439C25.0166 6.42977 20.9585 6.70238 17.2975 8.21982C13.6364 9.73725 10.5754 12.4155 8.58507 15.8425C6.59477 19.2695 5.78551 23.2554 6.28176 27.1873C6.77801 31.1191 8.55229 34.779 11.3317 37.604C14.1111 40.4291 17.7416 42.2627 21.6648 42.8229C25.5881 43.3831 29.5867 42.6388 33.0457 40.7046C33.2044 40.6194 33.3902 40.5999 33.5632 40.6502C33.7362 40.7005 33.8826 40.8167 33.9709 40.9737C34.0592 41.1307 34.0824 41.3161 34.0355 41.4901C33.9886 41.664 33.8753 41.8127 33.7201 41.904C30.8258 43.5278 27.5628 44.3807 24.2441 44.3807Z" fill="#171E30"/>
<path d="M37.2847 39.0819C37.1468 39.082 37.0121 39.0406 36.898 38.9632C36.7839 38.8857 36.6957 38.7758 36.6448 38.6477C36.5939 38.5195 36.5827 38.379 36.6126 38.2444C36.6426 38.1098 36.7122 37.9873 36.8126 37.8928C37.2765 37.4544 37.7131 36.9881 38.1201 36.4965C38.2403 36.3698 38.4041 36.2935 38.5784 36.2831C38.7527 36.2727 38.9244 36.3289 39.0588 36.4404C39.1932 36.5518 39.2802 36.7102 39.3021 36.8834C39.3241 37.0566 39.2794 37.2317 39.1771 37.3732C38.7353 37.909 38.2607 38.417 37.7561 38.894C37.6286 39.0144 37.46 39.0816 37.2847 39.0819Z" fill="#171E30"/>
</svg>
