<svg width="50" height="49" viewBox="0 0 50 49" fill="none" xmlns="http://www.w3.org/2000/svg">
<path d="M47.992 21.9696C47.6631 21.5339 47.3229 21.083 47.2687 20.7331C47.21 20.3605 47.3982 19.8134 47.5803 19.2851C47.8452 18.5189 48.144 17.6504 47.8753 16.8225C47.6021 15.9788 46.8405 15.4468 46.1684 14.9771C45.7169 14.6618 45.251 14.3359 45.0862 14.0138C44.9176 13.6841 44.9274 13.1091 44.9364 12.5537C44.9499 11.7394 44.965 10.8174 44.4495 10.1085C43.9317 9.39652 43.0466 9.12633 42.2661 8.88851C41.7371 8.72745 41.1892 8.55962 40.931 8.30147C40.6721 8.04257 40.505 7.49467 40.344 6.96559C40.1062 6.18513 39.836 5.30006 39.1232 4.78227C38.415 4.26673 37.4923 4.28103 36.6788 4.29533C36.1233 4.30586 35.5476 4.31414 35.2187 4.14556C34.8966 3.98149 34.5707 3.51487 34.2554 3.0633C33.7865 2.39122 33.2544 1.63033 32.4107 1.35638C31.5821 1.0877 30.7121 1.38649 29.9452 1.6499C29.4168 1.83203 28.8682 2.01943 28.4971 1.96224C28.1472 1.90729 27.6964 1.56711 27.2598 1.23898C26.6036 0.743759 25.8585 0.182312 24.9644 0.182312C24.0703 0.182312 23.3252 0.743759 22.6682 1.23898C22.2324 1.56787 21.7816 1.90729 21.4316 1.96224C21.0606 2.02169 20.5127 1.83203 19.9836 1.6499C19.2167 1.38574 18.3482 1.08695 17.5211 1.35488C16.6774 1.62883 16.1453 2.38972 15.6757 3.0618C15.3603 3.51261 15.0344 3.97923 14.7123 4.1433C14.3827 4.31188 13.8069 4.30135 13.2523 4.29307C12.4379 4.27726 11.516 4.26372 10.807 4.78001C10.0951 5.2978 9.82488 6.18287 9.58705 6.96333C9.426 7.49317 9.25816 8.04032 9.00002 8.29921C8.74112 8.55811 8.19322 8.72519 7.66338 8.887C6.88293 9.12483 5.99861 9.39501 5.48006 10.107C4.96452 10.8152 4.97957 11.7379 4.99312 12.5522C5.00215 13.1084 5.01118 13.6826 4.84335 14.013C4.67928 14.3344 4.21266 14.6603 3.76185 14.9756C3.08977 15.4452 2.32888 15.9773 2.05418 16.821C1.7855 17.6496 2.08504 18.5182 2.3492 19.2851C2.53133 19.8141 2.72024 20.3605 2.66154 20.7331C2.60659 21.083 2.26717 21.5339 1.93828 21.9696C1.44231 22.6267 0.880859 23.3717 0.880859 24.2658C0.880859 25.1599 1.44231 25.905 1.93752 26.5621C2.26641 26.9978 2.60584 27.4494 2.66078 27.7993L4.14794 27.5653C4.03505 26.8435 3.57972 26.2399 3.13944 25.6559C2.76916 25.1645 2.38608 24.6564 2.38608 24.2658C2.38608 23.8752 2.76916 23.3672 3.13944 22.8758C3.57972 22.2917 4.0343 21.6881 4.14794 20.9664C4.2646 20.2243 4.01398 19.4973 3.77164 18.7944C3.5752 18.2246 3.372 17.6346 3.48564 17.2861C3.6038 16.9226 4.12235 16.5606 4.62359 16.2099C5.22568 15.7892 5.84884 15.3542 6.18375 14.6979C6.52243 14.0341 6.51038 13.2687 6.49759 12.5281C6.48781 11.9215 6.47802 11.2954 6.69703 10.9936C6.91905 10.6888 7.52039 10.5051 8.10291 10.3275C8.80886 10.1115 9.53964 9.88873 10.0642 9.36416C10.5888 8.83959 10.8116 8.10956 11.0268 7.40361C11.2044 6.82184 11.3873 6.21975 11.6929 5.99773C11.9947 5.77797 12.6216 5.78775 13.2274 5.79829C13.968 5.81033 14.7327 5.82313 15.3972 5.48445C16.0535 5.14954 16.4885 4.52713 16.91 3.92429C17.2599 3.42305 17.6227 2.90526 17.9862 2.7871C18.3339 2.6727 18.9239 2.87741 19.4937 3.07309C20.1974 3.31543 20.9236 3.56529 21.6657 3.44939C22.3867 3.3365 22.991 2.88117 23.5751 2.4409C24.0658 2.07061 24.5738 1.68753 24.9644 1.68753C25.355 1.68753 25.863 2.07061 26.3545 2.4409C26.9385 2.88117 27.5421 3.33575 28.2638 3.44939C29.0044 3.56379 29.7329 3.31543 30.4359 3.07309C31.0063 2.87666 31.5949 2.6727 31.9448 2.7871C32.3076 2.90526 32.6704 3.42305 33.0211 3.92429C33.4418 4.52638 33.8775 5.14954 34.5331 5.48445C35.1969 5.82313 35.9653 5.81259 36.7028 5.79829C37.3095 5.78926 37.9364 5.77797 38.2382 5.99773C38.543 6.21975 38.7259 6.82109 38.9042 7.40361C39.1195 8.10956 39.3423 8.84034 39.8668 9.36491C40.3906 9.88948 41.1214 10.1123 41.8274 10.3275C42.4084 10.5051 43.0105 10.6888 43.2325 10.9936C43.4523 11.2954 43.4417 11.9215 43.4319 12.5281C43.4199 13.2687 43.4079 14.0341 43.7465 14.6979C44.0814 15.3542 44.7038 15.7892 45.3059 16.2099C45.8072 16.5606 46.325 16.9226 46.4439 17.2869C46.5568 17.6353 46.3543 18.2246 46.1579 18.7944C45.9156 19.4973 45.6657 20.2243 45.7816 20.9664C45.8952 21.6874 46.3506 22.2917 46.7901 22.875C47.1596 23.3672 47.5427 23.8752 47.5427 24.2658C47.5427 24.6564 47.1596 25.1645 46.7893 25.6567C46.3498 26.2399 45.8952 26.8435 45.7808 27.5653L47.2687 27.7993C47.3229 27.4494 47.6631 26.9986 47.992 26.5621C48.4865 25.905 49.0479 25.1599 49.0479 24.2658C49.0479 23.3717 48.4865 22.6267 47.992 21.9696ZM41.8259 38.2049C41.1199 38.4202 40.3891 38.643 39.8653 39.1675C39.3407 39.6913 39.118 40.4221 38.902 41.1281C38.7251 41.7098 38.5415 42.3112 38.2359 42.5332C37.9349 42.7522 37.3042 42.7417 36.7021 42.7326C35.9615 42.7206 35.1969 42.7086 34.5316 43.0472C33.876 43.3821 33.441 44.0045 33.0203 44.6066C32.6696 45.1079 32.3076 45.6257 31.9433 45.7446C31.5941 45.859 31.0056 45.6558 30.4351 45.4586C29.7322 45.217 29.0044 44.9709 28.2631 45.0823C27.5413 45.1959 26.9377 45.6513 26.3545 46.0908C25.863 46.4611 25.355 46.8441 24.9644 46.8441C24.5738 46.8441 24.0658 46.4611 23.5736 46.0908C22.9903 45.6513 22.3859 45.1967 21.6649 45.0823C20.9251 44.9709 20.1958 45.217 19.4929 45.4586C18.9232 45.655 18.3346 45.859 17.9847 45.7446C17.6212 45.6264 17.2584 45.1079 16.9084 44.6066C16.487 44.0038 16.052 43.3814 15.3965 43.0465C14.7327 42.7078 13.9665 42.7198 13.2274 42.7326C12.6208 42.7402 11.9939 42.753 11.6921 42.5324C11.3873 42.3104 11.2037 41.7091 11.026 41.1273C10.81 40.4214 10.5873 39.6906 10.0627 39.1668C9.53813 38.6422 8.8081 38.4194 8.1014 38.2034C7.51963 38.0266 6.91755 37.8429 6.69628 37.5374L5.47931 38.4239C5.9971 39.1352 6.88217 39.4053 7.66188 39.6432C8.19172 39.805 8.73962 39.9721 8.99851 40.231C9.25741 40.4899 9.42449 41.037 9.5863 41.5668C9.82413 42.3473 10.0943 43.2316 10.8063 43.7494C11.5145 44.2665 12.4372 44.2491 13.2523 44.2364C13.8069 44.2303 14.3827 44.2183 14.7123 44.3861C15.0337 44.5502 15.3596 45.0168 15.6749 45.4684C16.1445 46.1405 16.6766 46.9013 17.5203 47.176C18.3474 47.4425 19.2167 47.1459 19.9836 46.881C20.5127 46.6996 21.0606 46.5055 21.4316 46.5694C21.7816 46.6236 22.2324 46.9638 22.6682 47.2927C23.3252 47.7879 24.0703 48.3494 24.9644 48.3494C25.8585 48.3494 26.6036 47.7879 27.2606 47.2935C27.6964 46.9646 28.1479 46.6244 28.4979 46.5702C28.8652 46.5055 29.4168 46.6996 29.9459 46.8818C30.7136 47.1467 31.5828 47.4462 32.4085 47.1768C33.2521 46.9036 33.7842 46.1412 34.2539 45.4691C34.5692 45.0183 34.8958 44.5517 35.2164 44.3876C35.5461 44.2183 36.1196 44.2273 36.6765 44.2379C37.4856 44.2506 38.412 44.2665 39.1217 43.7509C39.833 43.2331 40.1031 42.3488 40.341 41.5683C40.5028 41.0393 40.6699 40.4906 40.9288 40.2325C41.1877 39.9736 41.7348 39.8065 42.2639 39.6454C43.0443 39.4076 43.9294 39.1367 44.4472 38.4247L43.2302 37.5396C43.0097 37.8437 42.4076 38.0266 41.8259 38.2049Z" fill="#171E30"/>
<path d="M6.90174 34.8024V33.2972C6.90174 32.881 6.56457 32.5446 6.14913 32.5446H4.64391V34.0498H5.39652V34.8024C5.39652 35.2178 5.0586 35.555 4.64391 35.555C4.22922 35.555 3.8913 35.2178 3.8913 34.8024V30.2867C3.8913 29.8713 4.22922 29.5341 4.64391 29.5341C5.0586 29.5341 5.39652 29.8713 5.39652 30.2867V31.0393H6.90174V30.2867C6.90174 29.0419 5.88873 28.0289 4.64391 28.0289C3.39909 28.0289 2.38608 29.0419 2.38608 30.2867V34.8024C2.38608 36.0472 3.39909 37.0602 4.64391 37.0602C5.88873 37.0602 6.90174 36.0472 6.90174 34.8024ZM7.65435 28.0289V34.8024C7.65435 36.0472 8.66736 37.0602 9.91218 37.0602C11.157 37.0602 12.17 36.0472 12.17 34.8024V28.0289H10.6648V34.8024C10.6648 35.2178 10.3269 35.555 9.91218 35.555C9.49749 35.555 9.15957 35.2178 9.15957 34.8024V28.0289H7.65435ZM12.9226 30.2867V37.0602H14.4278V35.555H15.9331V37.0602H17.4383V30.2867C17.4383 29.0419 16.4253 28.0289 15.1805 28.0289C13.9356 28.0289 12.9226 29.0419 12.9226 30.2867ZM15.9331 30.2867V34.0498H14.4278V30.2867C14.4278 29.8713 14.7658 29.5341 15.1805 29.5341C15.5951 29.5341 15.9331 29.8713 15.9331 30.2867ZM23.4592 30.2867V37.0602H24.9644V35.555H26.4696V37.0602H27.9748V30.2867C27.9748 29.0419 26.9618 28.0289 25.717 28.0289C24.4722 28.0289 23.4592 29.0419 23.4592 30.2867ZM25.717 29.5341C26.1324 29.5341 26.4696 29.8713 26.4696 30.2867V34.0498H24.9644V30.2867C24.9644 29.8713 25.3023 29.5341 25.717 29.5341ZM18.1909 28.7815V32.5415C18.1909 32.5438 18.1909 32.5453 18.1909 32.5468V37.0602H19.6961V34.6902L21.3662 36.778C21.5092 36.9564 21.7252 37.0602 21.9539 37.0602H22.7066V35.555H22.3152L20.4833 33.2648C21.7417 33.0669 22.7066 31.9756 22.7066 30.663C22.7066 29.2105 21.525 28.0289 20.0724 28.0289H18.9435C18.5281 28.0289 18.1909 28.3653 18.1909 28.7815ZM19.6961 29.5341H20.0724C20.6948 29.5341 21.2013 30.0406 21.2013 30.663C21.2013 31.2854 20.6948 31.7919 20.0724 31.7919H19.6961V29.5341ZM31.7379 32.4L30.1792 28.5023C30.0445 28.1659 29.6863 27.9785 29.3378 28.0424C28.9833 28.1102 28.7274 28.421 28.7274 28.7815V37.0602H30.2327V32.6891L31.7913 36.5868C31.908 36.8773 32.1879 37.0602 32.4897 37.0602C32.5371 37.0602 32.5853 37.0557 32.6327 37.0467C32.9872 36.9789 33.2431 36.6681 33.2431 36.3076V28.0289H31.7379V32.4ZM37.0061 29.5341H38.5114V28.0289H33.9957V29.5341H35.5009V37.0602H37.0061V29.5341ZM43.027 29.5341V28.0289H40.0166C39.6004 28.0289 39.264 28.3653 39.264 28.7815V36.3076C39.264 36.7238 39.6004 37.0602 40.0166 37.0602H43.027V35.555H40.7692V33.2972H43.027V31.7919H40.7692V29.5341H43.027ZM43.7796 28.7815V36.3076C43.7796 36.7238 44.1161 37.0602 44.5322 37.0602H47.5427V35.555H45.2849V33.2972H47.5427V31.7919H45.2849V29.5341H47.5427V28.0289H44.5322C44.1161 28.0289 43.7796 28.3653 43.7796 28.7815Z" fill="#171E30"/>
<path d="M43.7796 24.2658C43.7796 13.8911 35.3391 5.45058 24.9644 5.45058C14.5897 5.45058 6.14913 13.8911 6.14913 24.2658C6.14913 25.0237 6.20031 25.8147 6.30041 26.617L7.79358 26.4303C7.70101 25.6898 7.65435 24.9613 7.65435 24.2658C7.65435 14.7212 15.4198 6.9558 24.9644 6.9558C34.5097 6.9558 42.2744 14.7212 42.2744 24.2658C42.2744 24.9613 42.2278 25.6898 42.1344 26.4303L43.6276 26.617C43.7292 25.8147 43.7796 25.0237 43.7796 24.2658ZM36.4545 39.1607L35.534 37.9701C32.4792 40.3288 28.8253 41.5759 24.9644 41.5759C21.1042 41.5759 17.4496 40.3288 14.3955 37.9701L13.475 39.1607C16.7956 41.7256 20.7678 43.0811 24.9644 43.0811C29.1609 43.0811 33.134 41.7256 36.4545 39.1607Z" fill="#171E30"/>
<path d="M17.4383 15.9871H15.9331V17.4923H16.6857V25.0184H18.1909V16.7397C18.1909 16.3243 17.8537 15.9871 17.4383 15.9871ZM21.5776 15.9871C20.1251 15.9871 18.9435 17.1687 18.9435 18.6213V22.3843C18.9435 23.8369 20.1251 25.0184 21.5776 25.0184C23.0302 25.0184 24.2118 23.8369 24.2118 22.3843V18.6213C24.2118 17.1687 23.0302 15.9871 21.5776 15.9871ZM22.7066 22.3843C22.7066 23.0067 22.2 23.5132 21.5776 23.5132C20.9552 23.5132 20.4487 23.0067 20.4487 22.3843V18.6213C20.4487 17.9989 20.9552 17.4923 21.5776 17.4923C22.2 17.4923 22.7066 17.9989 22.7066 18.6213V22.3843ZM27.5985 15.9871C26.146 15.9871 24.9644 17.1687 24.9644 18.6213V22.3843C24.9644 23.8369 26.146 25.0184 27.5985 25.0184C29.0511 25.0184 30.2327 23.8369 30.2327 22.3843V18.6213C30.2327 17.1687 29.0511 15.9871 27.5985 15.9871ZM28.7274 22.3843C28.7274 23.0067 28.2209 23.5132 27.5985 23.5132C26.9761 23.5132 26.4696 23.0067 26.4696 22.3843V18.6213C26.4696 17.9989 26.9761 17.4923 27.5985 17.4923C28.2209 17.4923 28.7274 17.9989 28.7274 18.6213V22.3843Z" fill="#171E30"/>
<path d="M32.5688 23.9294L35.5792 17.9085L36.9256 18.5814L33.9152 24.6023L32.5688 23.9294Z" fill="#171E30"/>
<path d="M33.2431 18.9976H31.7379V20.5028H33.2431V18.9976Z" fill="#171E30"/>
<path d="M37.7588 22.008H36.2535V23.5132H37.7588V22.008Z" fill="#171E30"/>
</svg>
