<svg width="48" height="48" viewBox="0 0 48 48" fill="none" xmlns="http://www.w3.org/2000/svg">
<path d="M32.0226 14.8105C31.5186 14.8105 31.1095 15.2185 31.1095 15.7232C31.1095 16.2276 31.5186 16.6363 32.0226 16.6363C32.5277 16.6363 32.9357 16.2276 32.9357 15.7232C32.9357 15.2185 32.5277 14.8105 32.0226 14.8105Z" fill="#171E30"/>
<path d="M15.4317 31.4009C14.9267 31.4009 14.5186 31.8101 14.5186 32.3141C14.5186 32.8191 14.9267 33.2272 15.4317 33.2272C15.9357 33.2272 16.3449 32.8191 16.3449 32.3141C16.3449 31.8101 15.9357 31.4009 15.4317 31.4009Z" fill="#171E30"/>
<path d="M45.9676 6.26107C45.6594 6.18938 45.3355 6.28247 45.1129 6.50719L41.3274 10.3226H39.5126L37.5148 8.2528V6.41267L41.2461 2.62574C41.4669 2.40174 41.5568 2.07966 41.4837 1.77326C41.4109 1.46723 41.1855 1.2204 40.8873 1.11982C39.9499 0.803793 38.969 0.643641 37.9714 0.643641C34.9974 0.643641 32.2955 2.03043 30.5584 4.4484C28.9326 6.71192 28.4315 9.48586 29.1495 12.1407L22.4235 18.8667L11.2179 7.63538V5.43107C11.2179 5.11041 11.0495 4.81293 10.7745 4.64814L4.31815 0.773831C3.95862 0.558037 3.49885 0.61475 3.2028 0.911155L0.6204 3.4932C0.324351 3.7896 0.267639 4.24937 0.483076 4.60891L4.35668 11.0653C4.52146 11.3403 4.81858 11.5083 5.13924 11.5086L7.34284 11.5093L18.5495 22.7406L11.8492 29.441C9.1944 28.7233 6.41903 29.2252 4.15444 30.852C1.73789 32.588 0.352173 35.2892 0.352173 38.2632C0.352173 39.2605 0.512324 40.2417 0.828347 41.1788C0.929289 41.4787 1.17861 41.7052 1.48679 41.7766C1.79532 41.8483 2.11883 41.7552 2.34176 41.5304L6.1269 37.7153H7.9517L10.0308 39.7945V41.6193L6.21572 45.4044C5.99101 45.6273 5.89791 45.9508 5.96961 46.2594C6.04094 46.5676 6.26744 46.8169 6.56741 46.9178C7.50442 47.2338 8.48566 47.394 9.48295 47.394C12.457 47.394 15.1578 46.0079 16.8942 43.5914C18.521 41.3268 19.0229 38.5518 18.3052 35.897L23.6865 30.5157L24.9192 31.8547L24.3535 32.42C23.9968 32.7767 23.9968 33.3549 24.3535 33.7116C24.7102 34.0679 25.288 34.0679 25.6451 33.7116L26.1573 33.1994L37.7231 45.7625C37.7317 45.7718 37.7406 45.7807 37.7495 45.7896C39.8896 47.9297 43.357 47.9304 45.4982 45.7893C47.6333 43.6531 47.6333 40.1772 45.4982 38.041C45.4889 38.0317 45.4793 38.0228 45.4696 38.0139L32.8868 26.4701L33.3933 25.9636C33.75 25.6073 33.75 25.0291 33.3933 24.6724C33.0367 24.3158 32.4588 24.3158 32.1018 24.6724L31.54 25.2346L30.1985 24.0033L35.6059 18.596C36.3745 18.8014 37.1678 18.9056 37.9714 18.9056C43.0064 18.9056 47.1022 14.8094 47.1022 9.77478C47.1022 8.77713 46.942 7.79625 46.626 6.85888C46.5251 6.55891 46.2757 6.33241 45.9676 6.26107ZM8.36796 9.95134C8.19675 9.77977 7.96455 9.69238 7.722 9.69238L5.65679 9.69167L2.41595 4.28076L3.99 2.70671L9.39164 5.94826V8.01347C9.39164 8.2553 9.48759 8.48715 9.65844 8.65835L21.1323 20.1582L19.8407 21.4494L8.36796 9.95134ZM31.5942 27.7628L44.2198 39.3454C45.6301 40.7707 45.6259 43.0785 44.2066 44.4984C42.7841 45.9209 40.4814 45.9252 39.0532 44.5109L27.4495 31.9067L31.5942 27.7628ZM30.2474 26.5268L26.2115 30.562L24.9788 29.223L28.9059 25.2956L30.2474 26.5268ZM37.9714 17.0793C37.1728 17.0793 36.3874 16.9513 35.6376 16.6987C35.3091 16.5885 34.946 16.6734 34.7006 16.9185C30.1229 21.4962 20.2591 31.3596 16.627 34.9921C16.3816 35.2375 16.2964 35.6006 16.4073 35.9294C17.1663 38.1833 16.8032 40.5874 15.4107 42.526C14.0221 44.4588 11.8613 45.5678 9.48295 45.5678C9.2158 45.5678 8.95007 45.5531 8.68683 45.525L11.587 42.6472C11.7597 42.476 11.857 42.2427 11.857 41.9991V39.416C11.857 39.1738 11.7607 38.9416 11.5895 38.7704L8.97539 36.1563C8.80418 35.9851 8.57198 35.8888 8.32979 35.8888H5.74668C5.50306 35.8888 5.26979 35.9861 5.09822 36.1588L2.22085 39.059C2.19231 38.7957 2.17804 38.53 2.17804 38.2629C2.17804 35.8841 3.28662 33.7237 5.21985 32.3351C7.15808 30.9426 9.5625 30.5791 11.8167 31.3385C12.1453 31.4495 12.5084 31.3642 12.7538 31.1188C12.804 31.0689 30.8145 13.0581 30.8273 13.0452C31.0727 12.7998 31.1576 12.4371 31.0471 12.1082C30.2877 9.85432 30.6501 7.45098 32.0415 5.51382C33.4311 3.57916 35.5923 2.46987 37.971 2.46987C38.2464 2.46987 38.52 2.48521 38.7911 2.51517L35.9511 5.39754C35.7828 5.56839 35.6886 5.79845 35.6886 6.03815V8.62126C35.6886 8.8581 35.7803 9.08531 35.9447 9.25544L38.4675 11.8696C38.6395 12.0479 38.8767 12.1485 39.1246 12.1485H41.7077C41.9509 12.1485 42.1842 12.0515 42.3558 11.8785L45.2331 8.97866C45.2617 9.24189 45.2759 9.50762 45.2759 9.77478C45.2759 13.8025 41.9991 17.0793 37.9714 17.0793Z" fill="#171E30"/>
<path d="M28.7946 17.66L17.3682 29.0864C17.0119 29.4427 17.0119 30.0209 17.3682 30.3776C17.7249 30.7343 18.3031 30.7343 18.6597 30.3776L30.0862 18.9512C30.4428 18.5949 30.4428 18.0167 30.0862 17.66C29.7295 17.3033 29.1513 17.3033 28.7946 17.66Z" fill="#171E30"/>
<path d="M40.3334 41.9164C40.69 42.272 41.2682 42.272 41.6249 41.9142C41.9809 41.5572 41.9798 40.979 41.6228 40.623L33.3923 32.4189C33.0352 32.063 32.4567 32.064 32.1011 32.4211C31.7447 32.7785 31.7458 33.3563 32.1029 33.7123L40.3334 41.9164Z" fill="#171E30"/>
</svg>
