<svg width="49" height="49" viewBox="0 0 49 49" fill="none" xmlns="http://www.w3.org/2000/svg">
<path d="M48.5057 43.5623C47.1968 38.4973 42.623 34.9599 37.3833 34.9599C36.9721 34.9599 36.5632 34.9814 36.1584 35.0245L38.8424 29.5354L38.8465 29.5377C38.981 29.6035 39.123 29.6343 39.2635 29.6343C39.6156 29.6343 39.9542 29.438 40.1193 29.1001C40.3498 28.628 40.1539 28.0581 39.6818 27.8277L36.0989 26.0771L37.1257 23.9772C37.2368 23.7504 37.2528 23.4887 37.171 23.2501C37.0889 23.0114 36.9156 22.8148 36.6885 22.704L36.4606 22.5928L43.0103 9.19496C43.169 9.1931 43.3289 9.18492 43.4891 9.16931C45.0006 9.02284 46.3541 8.08457 47.021 6.72066L47.1366 6.48386C47.195 6.49501 47.2537 6.50022 47.3117 6.50022C47.6641 6.50022 48.0028 6.30394 48.1674 5.96603C48.3983 5.49392 48.2024 4.92404 47.7303 4.69319L39.2963 0.573199C38.8238 0.342721 38.2539 0.538627 38.0234 1.01074C37.8312 1.40404 37.9349 1.86499 38.248 2.14157L38.1327 2.37762C37.4654 3.74191 37.5561 5.38574 38.3695 6.66824C38.455 6.80281 38.5453 6.93255 38.6405 7.05783L32.0897 20.4576L31.8615 20.3457C31.3894 20.1152 30.8195 20.3107 30.5886 20.7828L29.5615 22.8835L25.9776 21.133C25.5051 20.9025 24.9356 21.0984 24.7047 21.5705C24.4743 22.0427 24.6698 22.6125 25.1423 22.8434L25.1452 22.8449L21.4464 30.409C19.4978 30.6752 17.6276 31.3536 15.9558 32.4094C14.002 33.6435 12.3912 35.342 11.2656 37.3487C10.9931 37.3267 10.7217 37.3159 10.453 37.3159C6.39507 37.3159 2.7011 39.7085 1.04165 43.411C0.446867 44.7385 0.145386 46.1544 0.145386 47.6191C0.145386 47.8715 0.245755 48.1135 0.42419 48.2919C0.602626 48.4704 0.844628 48.5707 1.09704 48.5707H47.8511C48.3358 48.5707 48.7433 48.2064 48.7968 47.7247C48.8455 47.2886 48.87 46.857 48.87 46.441C48.87 45.4663 48.7474 44.498 48.5057 43.5623ZM45.311 5.88424C44.9322 6.65858 44.1638 7.19128 43.3055 7.27455C41.9709 7.40429 40.6951 6.78088 39.9769 5.64893C39.5152 4.92107 39.4635 3.988 39.8423 3.21367L39.9431 3.00772L45.4114 5.67904L45.311 5.88424ZM40.1081 8.38977C40.4089 8.57527 40.7271 8.73103 41.0579 8.85444L34.7506 21.7572L33.8001 21.2929L40.1081 8.38977ZM31.8808 22.4735L34.9978 23.9961L34.3885 25.2418L31.2719 23.7192L31.8808 22.4735ZM37.1324 28.7001L33.9347 35.239C31.3823 32.1941 27.6103 30.3711 23.6263 30.2845L26.856 23.6802L37.1324 28.7001ZM46.9638 46.6674H2.10148C2.17508 46.0117 2.32527 45.3712 2.55054 44.7519H9.94816C10.4734 44.7519 10.8998 44.3258 10.8998 43.8002C10.8998 43.2746 10.4734 42.8485 9.94816 42.8485H3.53416C5.30811 40.2843 8.42291 38.839 11.6675 39.3081C12.0738 39.3665 12.4715 39.1583 12.6548 38.791C14.689 34.7164 18.7788 32.1848 23.3289 32.1848C27.1341 32.1848 30.7433 34.0272 32.9837 37.1126C33.2339 37.4568 33.6819 37.5933 34.0815 37.4468C34.2919 37.3698 34.5038 37.3003 34.7183 37.2383C34.7253 37.2364 34.7328 37.2342 34.7398 37.2323C35.5952 36.9873 36.4814 36.8632 37.3833 36.8632C41.3319 36.8632 44.827 39.2702 46.2712 42.8489H22.2847C21.7591 42.8489 21.3331 43.2749 21.3331 43.8006C21.3331 44.3258 21.7591 44.7522 22.2847 44.7522H46.818C46.9169 45.3072 46.9667 45.8727 46.9667 46.441C46.9667 46.5158 46.9656 46.5912 46.9638 46.6674Z" fill="#171E30"/>
<path d="M30.7139 39.7107C30.4191 39.7107 30.1292 39.5746 29.9429 39.3181C28.4069 37.2029 25.9345 35.9401 23.3289 35.9401C22.8033 35.9401 22.3773 35.5141 22.3773 34.9885C22.3773 34.4628 22.8033 34.0368 23.3289 34.0368C26.5422 34.0368 29.5901 35.5929 31.483 38.1996C31.7919 38.6252 31.6975 39.22 31.2723 39.5289C31.1031 39.6516 30.9076 39.7107 30.7139 39.7107Z" fill="#171E30"/>
<path d="M19.0595 44.7522C18.9978 44.7522 18.935 44.7455 18.874 44.7329C18.813 44.7206 18.7532 44.7024 18.6959 44.6786C18.6379 44.6548 18.5826 44.6255 18.5313 44.5913C18.4788 44.5571 18.4305 44.5169 18.3866 44.4734C18.2097 44.2961 18.1078 44.0508 18.1078 43.8006C18.1078 43.7385 18.1145 43.6757 18.1268 43.614C18.1391 43.5537 18.1573 43.4939 18.1811 43.4359C18.2049 43.3786 18.2342 43.3236 18.2688 43.2723C18.303 43.2199 18.3428 43.1712 18.3866 43.1273C18.4305 43.0839 18.4788 43.0437 18.5313 43.0084C18.5826 42.9742 18.6379 42.9448 18.6959 42.921C18.7532 42.898 18.813 42.879 18.874 42.8668C19.1833 42.8051 19.5115 42.9069 19.7323 43.1273C19.7762 43.1712 19.816 43.2199 19.8502 43.2723C19.8848 43.3236 19.9141 43.3786 19.9379 43.4359C19.9617 43.4939 19.9807 43.5537 19.9929 43.614C20.0056 43.6757 20.0112 43.7385 20.0112 43.8006C20.0112 44.0508 19.9093 44.2961 19.7323 44.4734C19.5554 44.6504 19.3097 44.7522 19.0595 44.7522Z" fill="#171E30"/>
</svg>
