<svg width="15" height="19" viewBox="0 0 15 19" fill="none" xmlns="http://www.w3.org/2000/svg">
<path d="M13.8247 8.07915C13.8247 13.232 7.27867 17.6487 7.27867 17.6487C7.27867 17.6487 0.732666 13.232 0.732666 8.07915C0.732666 6.32208 1.42233 4.63697 2.64995 3.39453C3.87756 2.1521 5.54256 1.4541 7.27867 1.4541C9.01478 1.4541 10.6798 2.1521 11.9074 3.39453C13.135 4.63697 13.8247 6.32208 13.8247 8.07915Z" stroke="#4ECDC4" stroke-linecap="round" stroke-linejoin="round"/>
<path d="M7.27867 10.2875C8.48376 10.2875 9.46067 9.29878 9.46067 8.07915C9.46067 6.85951 8.48376 5.8708 7.27867 5.8708C6.07358 5.8708 5.09667 6.85951 5.09667 8.07915C5.09667 9.29878 6.07358 10.2875 7.27867 10.2875Z" stroke="#4ECDC4" stroke-linecap="round" stroke-linejoin="round"/>
</svg>
