<svg width="14" height="14" viewBox="0 0 14 14" fill="none" xmlns="http://www.w3.org/2000/svg">
<path d="M13.0003 10.2083V12.0939C13.001 12.2689 12.9651 12.4422 12.895 12.6026C12.8249 12.763 12.722 12.907 12.593 13.0253C12.4641 13.1436 12.3118 13.2337 12.146 13.2898C11.9801 13.3459 11.8044 13.3667 11.6301 13.351C9.696 13.1408 7.83816 12.4799 6.20587 11.4214C4.68723 10.4564 3.3997 9.16882 2.43469 7.65018C1.37246 6.01047 0.711412 4.14361 0.505102 2.20082C0.489395 2.02701 0.510051 1.85184 0.565755 1.68645C0.621459 1.52106 0.71099 1.36908 0.828648 1.24019C0.946305 1.1113 1.08951 1.00832 1.24915 0.937806C1.40879 0.867292 1.58136 0.830792 1.75588 0.830627H3.64147C3.9465 0.827625 4.24221 0.935641 4.47349 1.13454C4.70477 1.33344 4.85584 1.60966 4.89853 1.9117C4.97811 2.51513 5.12571 3.10762 5.3385 3.67787C5.42306 3.90284 5.44137 4.14733 5.39124 4.38238C5.34111 4.61743 5.22465 4.83318 5.05566 5.00407L4.25743 5.8023C5.15218 7.37586 6.45506 8.67874 8.02861 9.57348L8.82684 8.77525C8.99773 8.60626 9.21349 8.4898 9.44853 8.43967C9.68358 8.38955 9.92808 8.40785 10.153 8.49241C10.7233 8.7052 11.3158 8.8528 11.9192 8.93238C12.2245 8.97546 12.5034 9.12924 12.7027 9.36449C12.902 9.59975 13.0079 9.90005 13.0003 10.2083Z" stroke="#4ECDC4" stroke-linecap="round" stroke-linejoin="round"/>
</svg>
