<svg width="36" height="36" viewBox="0 0 36 36" fill="none" xmlns="http://www.w3.org/2000/svg">
<circle cx="17.7812" cy="18.0293" r="17" stroke="white"/>
<path d="M26.3124 21.2766C25.8991 20.7813 25.4322 20.3391 24.9806 19.9114C24.8219 19.761 24.6578 19.6056 24.4997 19.4512C24.4996 19.4512 24.4996 19.4512 24.4996 19.4511C24.2869 19.2437 24.1828 19.0965 24.172 18.9878C24.1613 18.8809 24.2343 18.7223 24.4023 18.4879C24.6535 18.1354 24.9212 17.7822 25.1803 17.4407C25.4105 17.1372 25.6485 16.8233 25.8767 16.5076L25.9279 16.4367C26.373 15.8206 26.8333 15.1835 27.0799 14.4071C27.1504 14.1846 27.2235 13.8552 27.0471 13.566C26.8706 13.2768 26.5434 13.191 26.3128 13.1518C26.2001 13.1325 26.0933 13.1309 25.9938 13.1309L23.1064 13.1283C22.6072 13.12 22.2609 13.3566 22.0721 13.8318C21.9211 14.2113 21.7427 14.6511 21.536 15.0683C21.1406 15.8737 20.6382 16.8013 19.9099 17.5742L19.8776 17.6087C19.828 17.6616 19.747 17.7481 19.7054 17.768C19.6265 17.7184 19.5355 17.4348 19.5396 17.2863C19.5397 17.2826 19.5398 17.279 19.5398 17.2753L19.5372 13.939C19.5372 13.922 19.536 13.9051 19.5337 13.8883C19.469 13.4123 19.3427 12.9351 18.5894 12.7865C18.5652 12.7817 18.5407 12.7793 18.5161 12.7793H15.5126C14.9475 12.7793 14.6486 13.0381 14.409 13.3186C14.3396 13.4004 14.1553 13.6176 14.2492 13.8831C14.3442 14.1517 14.6273 14.2053 14.7202 14.2229C15.0475 14.2851 15.2168 14.47 15.2692 14.8237C15.3728 15.5109 15.3855 16.246 15.3092 17.136C15.2879 17.375 15.2484 17.5566 15.1846 17.7076C15.1669 17.7495 15.1514 17.7754 15.1405 17.7906C15.1233 17.7836 15.0963 17.7703 15.0591 17.7448C14.8291 17.5874 14.6557 17.3427 14.4881 17.1062C13.8186 16.1609 13.2554 15.1168 12.7661 13.9139C12.5647 13.4209 12.1859 13.1456 11.7004 13.1385C10.7753 13.1231 9.91971 13.1235 9.08562 13.1397C8.69221 13.1465 8.41633 13.2703 8.26551 13.5078C8.11451 13.7457 8.12004 14.0491 8.28199 14.4096C9.43969 16.9839 10.4909 18.8566 11.6903 20.4819C12.5348 21.626 13.3849 22.4203 14.3656 22.9814C15.3961 23.5709 16.5581 23.8598 17.9063 23.8598C18.0596 23.8598 18.2156 23.856 18.3736 23.8485C19.2054 23.8106 19.5438 23.4797 19.5807 22.6697C19.6014 22.2415 19.649 21.8947 19.8144 21.5933C19.8606 21.509 19.9128 21.4524 19.9539 21.4421C19.9976 21.4312 20.0752 21.4579 20.1614 21.5139C20.319 21.6163 20.4547 21.7551 20.5663 21.8769C20.6794 22.0007 20.7937 22.1287 20.9043 22.2524C21.1397 22.5157 21.3831 22.7881 21.6381 23.0479C22.2149 23.6358 22.8799 23.9055 23.6153 23.849L26.2577 23.8502C26.2578 23.8502 26.2579 23.8502 26.2579 23.8502C26.2663 23.8502 26.2747 23.85 26.2831 23.8494C26.5878 23.8291 26.8514 23.6604 27.0061 23.3863C27.1924 23.0564 27.1896 22.6384 26.9984 22.2678C26.7989 21.8826 26.5401 21.551 26.3124 21.2766ZM26.347 23.0142C26.3105 23.0787 26.2656 23.0905 26.2424 23.0933L23.6005 23.0921C23.6005 23.0921 23.6004 23.0921 23.6003 23.0921C23.5898 23.0921 23.5794 23.0925 23.5691 23.0934C23.0486 23.1367 22.6062 22.9537 22.1784 22.5177C21.9357 22.2705 21.6983 22.0049 21.4687 21.748C21.3568 21.6228 21.2411 21.4933 21.1249 21.3661C20.9808 21.2087 20.8026 21.0278 20.5737 20.8791C20.2309 20.6566 19.9469 20.6634 19.769 20.7082C19.593 20.7525 19.3428 20.8791 19.1507 21.2296C18.9019 21.683 18.8471 22.1722 18.8247 22.6343C18.8118 22.917 18.764 22.9916 18.744 23.0106C18.7179 23.0355 18.6304 23.0792 18.3387 23.0925C16.9368 23.1584 15.7604 22.9074 14.7416 22.3245C13.8553 21.8174 13.0792 21.089 12.2994 20.0324C11.1332 18.4523 10.1071 16.6225 8.97243 14.0994C8.93131 14.0079 8.91862 13.9509 8.91495 13.9204C8.94389 13.9109 9.00045 13.8984 9.09961 13.8965C9.92524 13.8805 10.7719 13.8801 11.6886 13.8954C11.8141 13.8972 11.957 13.9349 12.0652 14.1997C12.5764 15.4566 13.1669 16.5504 13.8705 17.5438C14.0573 17.8075 14.2898 18.1357 14.6316 18.3695C14.9446 18.5838 15.1986 18.5736 15.3566 18.5273C15.5147 18.4809 15.7341 18.3522 15.8819 18.0023C15.9772 17.7768 16.0349 17.5228 16.0634 17.202C16.1449 16.25 16.1305 15.4585 16.0179 14.7119C15.9386 14.1771 15.6625 13.7907 15.2274 13.5934C15.3047 13.5531 15.3917 13.5363 15.5127 13.5363H18.4769C18.6437 13.5738 18.6767 13.6177 18.688 13.6327C18.7361 13.6966 18.7635 13.8477 18.7803 13.9657L18.7828 17.2713C18.7761 17.5882 18.9301 18.291 19.4545 18.4837C19.4588 18.4853 19.4632 18.4868 19.4675 18.4882C19.9449 18.6442 20.2607 18.3072 20.4302 18.1261L20.4604 18.094C21.2581 17.2473 21.7953 16.258 22.215 15.4032C22.4337 14.9618 22.619 14.5052 22.7756 14.1116C22.854 13.9142 22.9253 13.8817 23.0955 13.8853C23.0978 13.8853 23.1001 13.8853 23.1025 13.8853L25.9936 13.8879C26.0608 13.8879 26.131 13.8887 26.1855 13.898C26.3232 13.9214 26.3799 13.95 26.3986 13.9619C26.4006 13.9838 26.4001 14.0469 26.3585 14.1785C26.1488 14.8387 25.7435 15.3996 25.3145 15.9934L25.2632 16.0644C25.0403 16.3729 24.8049 16.6832 24.5773 16.9834C24.3149 17.3293 24.0437 17.687 23.7866 18.0479C23.2368 18.8149 23.2852 19.3239 23.9712 19.9931C24.1334 20.1514 24.2995 20.3088 24.4603 20.461C24.9161 20.8927 25.3466 21.3005 25.7308 21.7609C25.9319 22.0033 26.1599 22.2945 26.3261 22.6155C26.4128 22.7835 26.3915 22.9353 26.347 23.0142Z" fill="white"/>
</svg>
