<svg width="14" height="14" viewBox="0 0 14 14" fill="none" xmlns="http://www.w3.org/2000/svg">
<path d="M12.7212 9.57963V11.3772C12.7219 11.5441 12.6877 11.7092 12.6209 11.8621C12.554 12.015 12.456 12.1523 12.333 12.2651C12.21 12.3779 12.0649 12.4638 11.9068 12.5173C11.7487 12.5707 11.5812 12.5906 11.415 12.5756C9.5712 12.3752 7.80009 11.7452 6.24399 10.7361C4.79625 9.8161 3.56881 8.58867 2.64885 7.14092C1.63621 5.57776 1.00602 3.79804 0.809337 1.94594C0.794364 1.78025 0.814056 1.61325 0.867159 1.45558C0.920263 1.29791 1.00561 1.15303 1.11778 1.03015C1.22995 0.907277 1.36647 0.809103 1.51865 0.741882C1.67084 0.67466 1.83536 0.639863 2.00173 0.639707H3.7993C4.09009 0.636845 4.372 0.739818 4.59248 0.929435C4.81297 1.11905 4.95698 1.38237 4.99768 1.67031C5.07355 2.24558 5.21425 2.81041 5.41711 3.35404C5.49773 3.5685 5.51518 3.80158 5.46739 4.02566C5.4196 4.24974 5.30858 4.45542 5.14747 4.61833L4.3865 5.3793C5.23948 6.8794 6.48155 8.12146 7.98165 8.97444L8.74262 8.21347C8.90553 8.05237 9.11121 7.94135 9.33529 7.89356C9.55936 7.84577 9.79244 7.86322 10.0069 7.94384C10.5505 8.14669 11.1154 8.2874 11.6906 8.36327C11.9817 8.40433 12.2475 8.55094 12.4375 8.77521C12.6276 8.99948 12.7285 9.28577 12.7212 9.57963Z" stroke="#6C7A96" stroke-linecap="round" stroke-linejoin="round"/>
</svg>
