<svg width="41" height="41" viewBox="0 0 41 41" fill="none" xmlns="http://www.w3.org/2000/svg">
<circle cx="20.8022" cy="20.6223" r="19.5" stroke="#171E30"/>
<path d="M28.8375 24.8576V27.3718C28.8384 27.6052 28.7906 27.8362 28.6971 28.05C28.6036 28.2639 28.4665 28.4558 28.2945 28.6136C28.1225 28.7714 27.9194 28.8915 27.6983 28.9663C27.4773 29.0411 27.243 29.0689 27.0105 29.0479C24.4317 28.7676 21.9546 27.8864 19.7782 26.4751C17.7534 25.1884 16.0367 23.4717 14.75 21.4468C13.3337 19.2605 12.4523 16.7714 12.1772 14.181C12.1563 13.9493 12.1838 13.7157 12.2581 13.4952C12.3324 13.2747 12.4517 13.072 12.6086 12.9002C12.7655 12.7283 12.9564 12.591 13.1693 12.497C13.3821 12.403 13.6122 12.3543 13.8449 12.3541H16.359C16.7657 12.3501 17.16 12.4941 17.4684 12.7593C17.7768 13.0245 17.9782 13.3928 18.0351 13.7955C18.1412 14.6001 18.338 15.3901 18.6217 16.1504C18.7345 16.4504 18.7589 16.7764 18.6921 17.0898C18.6252 17.4031 18.4699 17.6908 18.2446 17.9187L17.1803 18.983C18.3733 21.0811 20.1105 22.8182 22.2086 24.0112L23.2729 22.9469C23.5007 22.7216 23.7884 22.5663 24.1018 22.4995C24.4152 22.4326 24.7412 22.457 25.0411 22.5698C25.8015 22.8535 26.5915 23.0503 27.396 23.1564C27.8031 23.2139 28.1749 23.4189 28.4407 23.7326C28.7064 24.0462 28.8477 24.4467 28.8375 24.8576Z" stroke="#171E30" stroke-linecap="round" stroke-linejoin="round"/>
</svg>
