<svg width="14" height="15" viewBox="0 0 14 15" fill="none" xmlns="http://www.w3.org/2000/svg">
<path d="M13.293 10.5862V12.4718C13.2937 12.6469 13.2579 12.8201 13.1877 12.9805C13.1176 13.1409 13.0148 13.2849 12.8858 13.4032C12.7568 13.5216 12.6045 13.6116 12.4387 13.6677C12.2729 13.7238 12.0972 13.7446 11.9228 13.7289C9.98872 13.5187 8.13089 12.8578 6.4986 11.7993C4.97996 10.8343 3.69242 9.54675 2.72741 8.02811C1.66518 6.3884 1.00414 4.52154 0.797826 2.57875C0.78212 2.40494 0.802776 2.22977 0.85848 2.06438C0.914183 1.89899 1.00371 1.74701 1.12137 1.61812C1.23903 1.48923 1.38224 1.38625 1.54187 1.31574C1.70151 1.24522 1.87408 1.20872 2.0486 1.20856H3.93419C4.23922 1.20555 4.53494 1.31357 4.76622 1.51247C4.9975 1.71137 5.14856 1.98759 5.19125 2.28963C5.27084 2.89306 5.41844 3.48555 5.63122 4.0558C5.71579 4.28077 5.73409 4.52526 5.68396 4.76031C5.63383 4.99536 5.51737 5.21111 5.34839 5.382L4.55015 6.18023C5.4449 7.75379 6.74778 9.05667 8.32133 9.95141L9.11957 9.15318C9.29046 8.98419 9.50621 8.86773 9.74126 8.8176C9.97631 8.76748 10.2208 8.78578 10.4458 8.87034C11.016 9.08313 11.6085 9.23073 12.2119 9.31031C12.5173 9.35339 12.7961 9.50717 12.9954 9.74242C13.1947 9.97768 13.3007 10.278 13.293 10.5862Z" stroke="white" stroke-linecap="round" stroke-linejoin="round"/>
</svg>
