<svg width="18" height="17" viewBox="0 0 18 17" fill="none" xmlns="http://www.w3.org/2000/svg">
<path d="M1.71495 5.35642C1.4388 5.35642 1.21495 5.58028 1.21495 5.85642C1.21495 6.13257 1.4388 6.35642 1.71495 6.35642V5.35642ZM16.6858 6.35642C16.962 6.35642 17.1858 6.13257 17.1858 5.85642C17.1858 5.58028 16.962 5.35642 16.6858 5.35642V6.35642ZM1.71527 10.6481C1.43913 10.6481 1.21527 10.8719 1.21527 11.1481C1.21527 11.4242 1.43913 11.6481 1.71527 11.6481V10.6481ZM16.686 11.6481C16.9622 11.6481 17.186 11.4242 17.186 11.1481C17.186 10.8719 16.9622 10.6481 16.686 10.6481V11.6481ZM16.6379 8.50226C16.6379 12.6099 13.3081 15.9398 9.20044 15.9398V16.9398C13.8603 16.9398 17.6379 13.1622 17.6379 8.50226H16.6379ZM9.20044 15.9398C5.09282 15.9398 1.76294 12.6099 1.76294 8.50226H0.762939C0.762939 13.1622 4.54054 16.9398 9.20044 16.9398V15.9398ZM1.76294 8.50226C1.76294 4.39464 5.09282 1.06476 9.20044 1.06476V0.0647583C4.54054 0.0647583 0.762939 3.84236 0.762939 8.50226H1.76294ZM9.20044 1.06476C13.3081 1.06476 16.6379 4.39464 16.6379 8.50226H17.6379C17.6379 3.84236 13.8603 0.0647583 9.20044 0.0647583V1.06476ZM1.71495 6.35642H16.6858V5.35642H1.71495V6.35642ZM1.71527 11.6481H16.686V10.6481H1.71527V11.6481ZM12.0077 8.50227C12.0077 10.5843 11.6454 12.4455 11.0794 13.7675C10.796 14.4294 10.4714 14.933 10.1364 15.264C9.80354 15.5928 9.48783 15.7267 9.20044 15.7267V16.7267C9.82633 16.7267 10.3807 16.4283 10.8392 15.9754C11.2955 15.5245 11.6836 14.897 11.9987 14.1611C12.6297 12.6874 13.0077 10.6863 13.0077 8.50227H12.0077ZM9.20044 15.7267C8.91305 15.7267 8.59734 15.5928 8.26448 15.264C7.92949 14.933 7.60487 14.4294 7.32147 13.7675C6.75544 12.4455 6.39315 10.5843 6.39315 8.50227H5.39315C5.39315 10.6863 5.77122 12.6874 6.40219 14.1611C6.71729 14.897 7.10534 15.5245 7.5617 15.9754C8.02021 16.4283 8.57454 16.7267 9.20044 16.7267V15.7267ZM6.39315 8.50227C6.39315 6.42026 6.75544 4.55908 7.32147 3.23707C7.60487 2.57517 7.92949 2.0715 8.26448 1.74057C8.59734 1.41176 8.91305 1.27784 9.20044 1.27784V0.277843C8.57454 0.277843 8.02021 0.576223 7.5617 1.02916C7.10534 1.47999 6.71729 2.10753 6.40219 2.84347C5.77122 4.31716 5.39315 6.31819 5.39315 8.50227H6.39315ZM9.20044 1.27784C9.48783 1.27784 9.80354 1.41176 10.1364 1.74057C10.4714 2.0715 10.796 2.57517 11.0794 3.23707C11.6454 4.55908 12.0077 6.42026 12.0077 8.50227H13.0077C13.0077 6.31819 12.6297 4.31716 11.9987 2.84347C11.6836 2.10753 11.2955 1.47999 10.8392 1.02916C10.3807 0.576223 9.82633 0.277843 9.20044 0.277843V1.27784Z" fill="#4ECDC4"/>
</svg>
