<svg width="41" height="41" viewBox="0 0 41 41" fill="none" xmlns="http://www.w3.org/2000/svg">
<circle cx="20.8737" cy="20.387" r="19.5" stroke="white"/>
<path d="M30.6236 24.0982C30.1513 23.5321 29.6176 23.0267 29.1015 22.5379C28.9202 22.3661 28.7325 22.1884 28.5519 22.012C28.5518 22.012 28.5518 22.0119 28.5517 22.0119C28.3087 21.7749 28.1897 21.6066 28.1773 21.4823C28.1651 21.3602 28.2486 21.179 28.4406 20.9111C28.7277 20.5082 29.0337 20.1046 29.3297 19.7143C29.5928 19.3674 29.8648 19.0086 30.1256 18.6478L30.1841 18.5668C30.6929 17.8627 31.2188 17.1346 31.5007 16.2474C31.5812 15.993 31.6648 15.6165 31.4632 15.2861C31.2615 14.9555 30.8875 14.8575 30.624 14.8127C30.4953 14.7906 30.3731 14.7888 30.2594 14.7888L26.9595 14.7858C26.389 14.7763 25.9932 15.0468 25.7775 15.5898C25.6049 16.0235 25.401 16.5261 25.1648 17.0029C24.7129 17.9234 24.1387 18.9836 23.3064 19.8669L23.2695 19.9062C23.2128 19.9667 23.1202 20.0656 23.0727 20.0883C22.9825 20.0316 22.8785 19.7076 22.8832 19.5378C22.8833 19.5336 22.8834 19.5294 22.8834 19.5253L22.8805 15.7123C22.8805 15.693 22.8791 15.6736 22.8765 15.6544C22.8025 15.1104 22.6582 14.5651 21.7973 14.3951C21.7696 14.3897 21.7416 14.387 21.7135 14.387H18.2809C17.6351 14.387 17.2935 14.6827 17.0196 15.0033C16.9404 15.0968 16.7298 15.345 16.8371 15.6484C16.9456 15.9554 17.2692 16.0167 17.3754 16.0368C17.7494 16.1078 17.9429 16.3192 18.0028 16.7234C18.1211 17.5088 18.1356 18.3489 18.0485 19.3661C18.0242 19.6392 17.979 19.8467 17.906 20.0193C17.8858 20.0671 17.8681 20.0967 17.8557 20.1142C17.8359 20.1062 17.8052 20.0909 17.7626 20.0618C17.4997 19.8819 17.3016 19.6023 17.1101 19.332C16.3449 18.2516 15.7012 17.0584 15.1421 15.6836C14.9119 15.1203 14.479 14.8056 13.9241 14.7975C12.8668 14.7799 11.889 14.7803 10.9358 14.7988C10.4862 14.8066 10.1709 14.9482 9.99853 15.2196C9.82596 15.4915 9.83228 15.8381 10.0174 16.2501C11.3404 19.1922 12.5418 21.3325 13.9126 23.1899C14.8777 24.4975 15.8493 25.4052 16.9701 26.0465C18.1477 26.7202 19.4758 27.0504 21.0165 27.0503C21.1917 27.0503 21.37 27.0461 21.5506 27.0374C22.5012 26.9941 22.888 26.616 22.9302 25.6902C22.9538 25.2009 23.0083 24.8045 23.1972 24.4602C23.2501 24.3638 23.3097 24.2991 23.3567 24.2873C23.4067 24.2748 23.4953 24.3054 23.5938 24.3694C23.7739 24.4864 23.929 24.645 24.0565 24.7842C24.1858 24.9258 24.3164 25.072 24.4429 25.2133C24.7119 25.5143 24.9901 25.8256 25.2815 26.1225C25.9407 26.7944 26.7007 27.1026 27.5411 27.038L30.5611 27.0394C30.5612 27.0394 30.5612 27.0394 30.5612 27.0394C30.5708 27.0394 30.5804 27.0391 30.59 27.0385C30.9383 27.0153 31.2395 26.8225 31.4164 26.5093C31.6293 26.1322 31.6261 25.6545 31.4076 25.231C31.1796 24.7907 30.8837 24.4118 30.6236 24.0982ZM30.6631 26.0839C30.6214 26.1577 30.5701 26.1711 30.5436 26.1744L27.5243 26.173C27.5242 26.173 27.5241 26.173 27.524 26.173C27.512 26.173 27.5001 26.1734 27.4883 26.1745C26.8935 26.224 26.3879 26.0149 25.899 25.5166C25.6216 25.234 25.3503 24.9305 25.0879 24.6369C24.96 24.4938 24.8278 24.3459 24.695 24.2005C24.5302 24.0206 24.3266 23.8138 24.065 23.6439C23.6733 23.3896 23.3486 23.3973 23.1454 23.4486C22.9442 23.4992 22.6583 23.6439 22.4388 24.0444C22.1544 24.5626 22.0917 25.1217 22.0662 25.6499C22.0514 25.9729 21.9968 26.0582 21.974 26.0799C21.9441 26.1083 21.8442 26.1583 21.5108 26.1735C19.9086 26.2488 18.5641 25.9619 17.3997 25.2957C16.3869 24.7162 15.4999 23.8838 14.6087 22.6763C13.2759 20.8704 12.1032 18.7792 10.8064 15.8956C10.7594 15.7911 10.7449 15.7259 10.7407 15.691C10.7738 15.6802 10.8385 15.6659 10.9518 15.6638C11.8954 15.6455 12.8629 15.645 13.9106 15.6625C14.0541 15.6646 14.2174 15.7077 14.3411 16.0103C14.9253 17.4467 15.6001 18.6968 16.4042 19.8321C16.6177 20.1334 16.8835 20.5085 17.274 20.7758C17.6318 21.0207 17.9221 21.009 18.1027 20.9561C18.2833 20.9031 18.5341 20.756 18.703 20.3561C18.8119 20.0984 18.8778 19.8081 18.9104 19.4414C19.0036 18.3534 18.987 17.4489 18.8585 16.5957C18.7678 15.9844 18.4522 15.5428 17.955 15.3173C18.0433 15.2713 18.1428 15.2522 18.281 15.2522H21.6687C21.8593 15.2949 21.8971 15.3451 21.91 15.3623C21.9649 15.4353 21.9963 15.608 22.0154 15.7429L22.0183 19.5207C22.0107 19.8828 22.1867 20.686 22.786 20.9063C22.7909 20.9081 22.7958 20.9098 22.8008 20.9114C23.3464 21.0897 23.7073 20.7046 23.901 20.4976L23.9355 20.4609C24.8472 19.4933 25.4611 18.3627 25.9408 17.3857C26.1907 16.8812 26.4025 16.3594 26.5815 15.9095C26.6711 15.684 26.7526 15.6468 26.9471 15.6509C26.9497 15.651 26.9524 15.651 26.9551 15.651L30.2592 15.6539C30.336 15.6539 30.4162 15.6548 30.4785 15.6655C30.6359 15.6923 30.7007 15.7249 30.7221 15.7385C30.7243 15.7635 30.7238 15.8356 30.6762 15.9861C30.4366 16.7406 29.9734 17.3816 29.4831 18.0603L29.4245 18.1414C29.1697 18.4939 28.9007 18.8486 28.6406 19.1917C28.3407 19.587 28.0308 19.9957 27.7369 20.4082C27.1086 21.2848 27.1638 21.8666 27.9479 22.6313C28.1332 22.8122 28.3231 22.9921 28.5069 23.1661C29.0277 23.6595 29.5197 24.1255 29.9588 24.6516C30.1887 24.9287 30.4493 25.2615 30.6392 25.6283C30.7383 25.8203 30.714 25.9938 30.6631 26.0839Z" fill="white"/>
</svg>
