<svg width="30" height="31" viewBox="0 0 30 31" fill="none" xmlns="http://www.w3.org/2000/svg">
<circle cx="15.0001" cy="15.7744" r="14.5" stroke="#171E30"/>
<path d="M22.3126 18.5578C21.9583 18.1333 21.5581 17.7542 21.171 17.3876C21.035 17.2588 20.8943 17.1255 20.7588 16.9932C20.7587 16.9932 20.7587 16.9931 20.7587 16.9931C20.5764 16.8153 20.4872 16.6891 20.4779 16.5959C20.4687 16.5043 20.5313 16.3684 20.6753 16.1675C20.8906 15.8653 21.1201 15.5626 21.3421 15.2699C21.5395 15.0097 21.7435 14.7407 21.9391 14.4701L21.983 14.4093C22.3645 13.8812 22.759 13.3352 22.9704 12.6697C23.0308 12.4789 23.0935 12.1966 22.9423 11.9487C22.791 11.7008 22.5105 11.6273 22.3129 11.5937C22.2163 11.5771 22.1247 11.5758 22.0395 11.5758L19.5645 11.5736C19.1366 11.5665 18.8398 11.7693 18.678 12.1765C18.5486 12.5018 18.3957 12.8788 18.2185 13.2364C17.8796 13.9267 17.4489 14.7219 16.8247 15.3843L16.797 15.4139C16.7545 15.4592 16.685 15.5334 16.6494 15.5504C16.5818 15.5079 16.5037 15.2649 16.5073 15.1375C16.5074 15.1344 16.5074 15.1313 16.5074 15.1282L16.5052 12.2684C16.5052 12.2539 16.5042 12.2394 16.5023 12.225C16.4468 11.817 16.3385 11.408 15.6928 11.2806C15.6721 11.2764 15.6511 11.2744 15.63 11.2744H13.0555C12.5712 11.2744 12.315 11.4962 12.1096 11.7367C12.0502 11.8068 11.8922 11.9929 11.9727 12.2205C12.0541 12.4508 12.2967 12.4967 12.3764 12.5118C12.6569 12.5651 12.802 12.7236 12.8469 13.0268C12.9357 13.6158 12.9466 14.2459 12.8812 15.0087C12.863 15.2136 12.8291 15.3692 12.7744 15.4987C12.7592 15.5345 12.746 15.5568 12.7367 15.5698C12.7218 15.5638 12.6988 15.5524 12.6668 15.5305C12.4697 15.3956 12.3211 15.1859 12.1774 14.9832C11.6035 14.1729 11.1208 13.278 10.7015 12.2469C10.5288 11.8244 10.2041 11.5884 9.78794 11.5823C8.99501 11.5691 8.26166 11.5694 7.54672 11.5833C7.20952 11.5892 6.97305 11.6953 6.84378 11.8989C6.71435 12.1028 6.71909 12.3628 6.8579 12.6718C7.85021 14.8784 8.75123 16.4836 9.77929 17.8766C10.5032 18.8573 11.2318 19.5381 12.0725 20.0191C12.9557 20.5243 13.9517 20.772 15.1073 20.7719C15.2387 20.7719 15.3724 20.7687 15.5079 20.7623C16.2208 20.7298 16.5109 20.4462 16.5425 19.7519C16.5603 19.3849 16.6011 19.0876 16.7428 18.8293C16.7824 18.757 16.8272 18.7085 16.8624 18.6997C16.8999 18.6903 16.9663 18.7132 17.0402 18.7612C17.1753 18.849 17.2916 18.9679 17.3873 19.0724C17.4842 19.1785 17.5822 19.2882 17.677 19.3942C17.8788 19.6199 18.0874 19.8534 18.306 20.076C18.8004 20.58 19.3704 20.8111 20.0007 20.7627L22.2657 20.7638C22.2657 20.7638 22.2658 20.7638 22.2658 20.7638C22.273 20.7638 22.2802 20.7636 22.2874 20.7631C22.5486 20.7457 22.7745 20.601 22.9071 20.3662C23.0669 20.0833 23.0644 19.7251 22.9006 19.4074C22.7296 19.0772 22.5077 18.793 22.3126 18.5578ZM22.3422 20.0472C22.311 20.1025 22.2724 20.1126 22.2525 20.115L19.9881 20.1139C19.988 20.1139 19.9879 20.1139 19.9879 20.1139C19.9789 20.1139 19.97 20.1143 19.9611 20.115C19.515 20.1522 19.1358 19.9954 18.7691 19.6216C18.5611 19.4097 18.3576 19.182 18.1608 18.9619C18.0649 18.8546 17.9657 18.7436 17.8661 18.6345C17.7426 18.4996 17.5898 18.3445 17.3936 18.2171C17.0998 18.0264 16.8564 18.0322 16.7039 18.0706C16.553 18.1086 16.3386 18.2171 16.174 18.5175C15.9607 18.9062 15.9137 19.3255 15.8945 19.7216C15.8835 19.9638 15.8425 20.0278 15.8254 20.0441C15.8029 20.0654 15.728 20.1029 15.478 20.1143C14.2763 20.1708 13.2679 19.9556 12.3947 19.456C11.635 19.0213 10.9698 18.397 10.3014 17.4914C9.30178 16.137 8.42226 14.5686 7.4497 12.4059C7.41446 12.3275 7.40358 12.2787 7.40043 12.2525C7.42524 12.2443 7.47372 12.2336 7.55871 12.2321C8.2664 12.2183 8.99209 12.218 9.77786 12.2311C9.88544 12.2327 10.0079 12.2649 10.1007 12.4919C10.5388 13.5692 11.0449 14.5068 11.648 15.3583C11.8082 15.5843 12.0075 15.8656 12.3004 16.066C12.5687 16.2497 12.7864 16.241 12.9219 16.2013C13.0574 16.1615 13.2454 16.0512 13.3721 15.7513C13.4538 15.558 13.5032 15.3403 13.5277 15.0653C13.5976 14.2493 13.5852 13.5709 13.4887 12.931C13.4207 12.4725 13.184 12.1413 12.8111 11.9722C12.8774 11.9377 12.952 11.9233 13.0556 11.9233H15.5964C15.7394 11.9554 15.7677 11.993 15.7774 12.0059C15.8185 12.0607 15.8421 12.1902 15.8564 12.2913L15.8586 15.1247C15.8529 15.3963 15.9849 15.9987 16.4344 16.1639C16.438 16.1653 16.4418 16.1665 16.4455 16.1677C16.8547 16.3015 17.1253 16.0126 17.2706 15.8574L17.2965 15.8299C17.9803 15.1041 18.4407 14.2562 18.8005 13.5235C18.9879 13.1451 19.1467 12.7537 19.281 12.4164C19.3482 12.2472 19.4093 12.2193 19.5552 12.2224C19.5572 12.2224 19.5592 12.2224 19.5612 12.2224L22.0393 12.2246C22.0969 12.2246 22.1571 12.2253 22.2037 12.2333C22.3218 12.2534 22.3704 12.2779 22.3865 12.288C22.3881 12.3068 22.3877 12.3609 22.352 12.4738C22.1723 13.0396 21.8249 13.5204 21.4572 14.0294L21.4132 14.0902C21.2222 14.3546 21.0204 14.6206 20.8253 14.8779C20.6004 15.1744 20.368 15.481 20.1476 15.7904C19.6763 16.4478 19.7178 16.8841 20.3058 17.4577C20.4448 17.5933 20.5872 17.7283 20.725 17.8588C21.1157 18.2288 21.4847 18.5783 21.814 18.9729C21.9864 19.1807 22.1818 19.4303 22.3243 19.7054C22.3986 19.8494 22.3804 19.9795 22.3422 20.0472Z" fill="#171E30"/>
</svg>
