<svg width="164" height="147" viewBox="0 0 164 147" fill="none" xmlns="http://www.w3.org/2000/svg">
<path opacity="0.5" d="M0.133698 93.0042C0.133698 63.0219 4.39044 40.2576 12.9039 24.7113C21.4174 9.1649 35.4832 1.02157 55.1012 0.28125L65.6505 21.9351C54.546 23.0456 46.7728 28.4128 42.331 38.0367C37.8891 47.6606 35.6682 63.207 35.6682 84.6758H65.0953V146.861H0.133698V93.0042ZM97.8537 93.0042C97.8537 63.0219 102.11 40.2576 110.624 24.7113C119.137 9.1649 133.203 1.02157 152.821 0.28125L163.37 21.9351C152.266 23.0456 144.493 28.4128 140.051 38.0367C135.609 47.6606 133.388 63.207 133.388 84.6758H162.815V146.861H97.8537V93.0042Z" fill="#E2EDF3"/>
</svg>
