<svg width="147" height="102" viewBox="0 0 147 102" fill="none" xmlns="http://www.w3.org/2000/svg">
<path d="M52.3623 20.8282C45.5624 19.9468 41.0441 14.4467 46.444 7.73281C51.103 1.93999 75.4059 -2.71903 99.9605 7.73275C119.657 16.1166 134.463 31.5316 141.389 45.7607C148.395 60.1555 146.425 67.4191 141.389 69.6857C136.352 71.9523 127.789 71.0713 127.663 63.2641C127.537 55.457 131.441 57.3458 132.322 59.6124C133.019 61.4027 131.358 62.1124 131.033 62.2513L131.021 62.2564M108.649 63.1378C108.274 67.661 108.946 72.0634 110.132 76.1572M110.132 76.1572C113.73 88.5658 122.064 98.1401 120.36 99.655C119.633 100.301 110.286 103.936 105.753 91.8479C102.694 83.691 105.718 78.8628 110.132 76.1572ZM110.132 76.1572C112.26 74.8532 114.711 74.0422 116.96 73.5893M30.263 40.598C29.0248 47.8385 22.6447 67.7339 22.6447 67.7339C22.6447 67.7339 48.4586 78.0595 54.1251 72.456C68.3449 58.3942 30.0756 33.9532 20.8917 31.8401C-9.90018 24.7555 0.265017 62.0178 21.7004 58.2899M62.8137 54.7641C62.8137 63.7675 71.8309 71.3883 79.3724 67.4192C84.1574 64.9008 83.0638 68.7588 84.1574 69.0561C91.3349 71.0079 99.0791 72.7078 99.205 67.0414C99.3309 61.3749 87.6832 53.3789 84.1574 56.6529C80.6316 59.9269 86.5499 65.5304 92.0904 64.2082" stroke="#3D6ADD" stroke-width="2" stroke-linejoin="round"/>
</svg>
