<svg width="169" height="82" viewBox="0 0 169 82" fill="none" xmlns="http://www.w3.org/2000/svg">
<path fill-rule="evenodd" clip-rule="evenodd" d="M21.9609 47.0298C26.3086 44.2902 25.6222 36.9847 26.7663 30.0901C27.4528 26.0264 30.4276 22.0083 35.5534 22.0083H48.139L48.1848 48.1713H53.7225L51.9376 58.8556H45.3015L46.2168 54.3353H30.931C30.0157 53.6504 29.0546 52.9199 28.002 52.235C25.4849 50.4999 23.4712 48.8105 21.9609 47.0298ZM33.082 33.4232C32.3955 38.2631 32.3955 44.5185 29.1919 48.2169H34.7753C35.0042 48.2169 35.1872 48.2169 35.4161 48.2169C41.6402 48.3539 41.5945 45.66 41.5945 40.2722L41.686 28.2637H39.8554C35.233 28.218 33.86 28.0811 33.082 33.4232ZM67.3149 49.4497C68.0014 49.4497 68.6422 49.4497 69.2829 49.4041C69.9236 49.3584 70.3813 49.3127 70.7932 49.2671V44.0162C70.5186 43.9706 70.1067 43.8793 69.5575 43.8336C69.0083 43.7879 68.5049 43.7423 68.0014 43.7423C67.3607 43.7423 66.72 43.7879 66.1708 43.8793C65.5758 43.9706 65.0724 44.1076 64.6605 44.3359C64.2029 44.5642 63.8825 44.8381 63.6537 45.2034C63.4248 45.5687 63.2875 46.0253 63.2875 46.6188C63.2875 47.7147 63.6537 48.4452 64.3859 48.8562C65.0724 49.2671 66.0335 49.4497 67.3149 49.4497ZM66.7658 29.2226C68.8252 29.2226 70.5186 29.4509 71.8915 29.9074C73.2645 30.364 74.3629 31.0489 75.1867 31.9165C76.0105 32.784 76.6054 33.8342 76.9258 35.067C77.2462 36.2998 77.4292 37.6696 77.4292 39.222V53.6504C76.4224 53.8787 75.0494 54.107 73.2645 54.4266C71.4796 54.7006 69.3286 54.8832 66.8573 54.8832C65.2555 54.8832 63.8367 54.7462 62.5553 54.4723C61.2738 54.1983 60.1755 53.7417 59.2144 53.1025C58.299 52.4633 57.5668 51.6414 57.0634 50.6369C56.5599 49.6324 56.3311 48.3539 56.3311 46.8928C56.3311 45.4773 56.6057 44.2445 57.2007 43.2857C57.7956 42.2812 58.5279 41.505 59.489 40.9114C60.4501 40.3178 61.5484 39.9069 62.7841 39.6329C64.0198 39.359 65.3012 39.222 66.6285 39.222C67.5438 39.222 68.3218 39.2677 69.0083 39.359C69.6948 39.4503 70.2897 39.5416 70.7016 39.6786V39.0394C70.7016 37.8522 70.3355 36.939 69.649 36.2085C68.9625 35.4779 67.7268 34.9757 65.9877 34.9757C64.7978 34.9757 63.6537 35.067 62.5095 35.2496C61.3654 35.4322 60.3585 35.6605 59.5347 35.9802L58.6652 30.4097C59.0771 30.2727 59.5805 30.1357 60.1755 29.9988C60.7704 29.8618 61.4569 29.7248 62.1434 29.6335C62.8757 29.5422 63.6079 29.4509 64.3859 29.3595C65.1639 29.2226 65.942 29.2226 66.7658 29.2226ZM94.7288 35.5236C94.683 36.4368 94.6372 37.3956 94.5915 38.4001C94.5457 39.4046 94.4542 40.4091 94.3169 41.4136C94.1796 42.4182 94.0423 43.4227 93.8134 44.3815C93.6304 45.3404 93.3558 46.2536 93.0354 47.0754C92.6693 48.0799 92.1659 48.9931 91.6167 49.8607C91.0217 50.7282 90.2895 51.4587 89.4199 52.1436C88.5504 52.8285 87.452 53.3764 86.2163 53.833C84.9806 54.2896 83.4703 54.5636 81.8228 54.7462L80.9074 48.9931C82.5093 48.6735 83.6992 48.2626 84.5687 47.669C85.4383 47.0754 86.079 46.3449 86.5367 45.4773C86.857 44.7011 87.1316 43.7879 87.3604 42.7834C87.5435 41.7789 87.7266 40.6831 87.8181 39.5416C87.9096 38.4001 87.9554 37.2586 88.0012 36.0715C88.0012 34.8843 88.0469 33.7428 88.0469 32.6927V29.9074H106.445V54.381H99.4884V35.5236H94.7288ZM135.872 42.0529C135.872 43.9706 135.598 45.7513 135.049 47.3494C134.499 48.9475 133.676 50.3173 132.623 51.4587C131.57 52.6002 130.289 53.4678 128.824 54.107C127.36 54.7462 125.712 55.0202 123.882 55.0202C122.097 55.0202 120.449 54.7006 118.985 54.107C117.52 53.4678 116.239 52.6002 115.186 51.4587C114.134 50.3173 113.31 48.9475 112.715 47.3494C112.12 45.7513 111.845 44.0162 111.845 42.0529C111.845 40.1352 112.166 38.4001 112.761 36.802C113.356 35.204 114.225 33.8798 115.278 32.7383C116.33 31.6425 117.612 30.775 119.076 30.1357C120.541 29.4965 122.143 29.2226 123.882 29.2226C125.667 29.2226 127.268 29.5422 128.733 30.1357C130.197 30.775 131.479 31.6425 132.531 32.7383C133.584 33.8342 134.408 35.204 135.003 36.802C135.552 38.3545 135.872 40.0895 135.872 42.0529ZM128.779 42.0529C128.779 39.9069 128.367 38.2175 127.497 37.0303C126.628 35.8432 125.438 35.204 123.836 35.204C122.234 35.204 121.044 35.7975 120.175 37.0303C119.305 38.2631 118.847 39.9525 118.847 42.0529C118.847 44.1989 119.305 45.8883 120.175 47.1667C121.044 48.3996 122.28 49.0388 123.836 49.0388C125.438 49.0388 126.628 48.3996 127.497 47.1667C128.367 45.8883 128.779 44.1532 128.779 42.0529ZM140.083 42.0985C140.083 40.3178 140.357 38.6741 140.952 37.1217C141.547 35.5692 142.371 34.1994 143.424 33.0123C144.522 31.8708 145.849 30.912 147.405 30.2271C148.961 29.5422 150.746 29.2226 152.714 29.2226C154.041 29.2226 155.231 29.3595 156.284 29.5878C157.382 29.8161 158.435 30.1357 159.442 30.5923L157.977 36.1171C157.337 35.8888 156.604 35.6605 155.826 35.4779C155.048 35.2953 154.179 35.204 153.218 35.204C151.158 35.204 149.648 35.8432 148.641 37.1217C147.634 38.4001 147.131 40.0439 147.131 42.1442C147.131 44.3359 147.588 46.0709 148.55 47.2581C149.511 48.4452 151.158 49.0845 153.492 49.0845C154.316 49.0845 155.231 48.9931 156.192 48.8562C157.154 48.7192 158.023 48.4452 158.847 48.1256L159.808 53.7874C158.984 54.107 157.977 54.4266 156.787 54.6549C155.598 54.8832 154.225 55.0202 152.76 55.0202C150.517 55.0202 148.595 54.7006 146.993 54.0157C145.392 53.3308 144.064 52.4633 143.012 51.2761C141.959 50.1346 141.227 48.7648 140.724 47.2124C140.312 45.6143 140.083 43.9249 140.083 42.0985Z" fill="#00224D"/>
<path fill-rule="evenodd" clip-rule="evenodd" d="M47.6813 68.8094C47.6813 69.2203 47.7271 69.5856 47.8186 69.9052C47.9102 70.2248 48.0475 70.4988 48.2305 70.7271C48.4136 70.9554 48.6424 71.138 48.917 71.275C49.1916 71.412 49.4662 71.4576 49.8323 71.4576C50.1527 71.4576 50.4731 71.412 50.7019 71.275C50.9765 71.138 51.2053 70.9554 51.3884 70.7271C51.5714 70.4988 51.7087 70.2248 51.8003 69.9052C51.8918 69.5856 51.9376 69.2203 51.9376 68.8094C51.9376 68.3984 51.8918 68.0331 51.8003 67.7135C51.7087 67.3939 51.5714 67.12 51.3884 66.8917C51.2053 66.6634 50.9765 66.4807 50.7019 66.3437C50.4273 66.2068 50.1527 66.1611 49.8323 66.1611C49.512 66.1611 49.1916 66.2068 48.917 66.3437C48.6424 66.4807 48.4136 66.6634 48.2305 66.8917C48.0475 67.12 47.9102 67.3939 47.8186 67.7135C47.7271 68.0331 47.6813 68.3984 47.6813 68.8094ZM53.3563 68.8094C53.3563 69.4486 53.2648 69.9965 53.0817 70.4531C52.8987 70.9097 52.6241 71.3206 52.3495 71.6403C52.0291 71.9599 51.663 72.1882 51.2511 72.3708C50.8392 72.5534 50.3815 72.5991 49.8781 72.5991C49.3747 72.5991 48.9628 72.5078 48.5051 72.3708C48.0932 72.1882 47.6813 71.9599 47.4067 71.6403C47.1321 71.3206 46.8576 70.9097 46.6287 70.4531C46.4457 69.9965 46.3541 69.4486 46.3541 68.8094C46.3541 68.1701 46.4457 67.6222 46.6287 67.1656C46.8118 66.709 47.0864 66.2981 47.4067 65.9785C47.7271 65.6589 48.0932 65.4306 48.5509 65.2479C48.9628 65.0653 49.4204 65.0196 49.8781 65.0196C50.3358 65.0196 50.7934 65.1109 51.2053 65.2479C51.6172 65.4306 51.9833 65.6589 52.3037 65.9785C52.6241 66.2981 52.8529 66.709 53.0817 67.1656C53.2648 67.6222 53.3563 68.1701 53.3563 68.8094ZM55.6446 68.6724C55.6446 68.992 55.7361 69.2203 55.9192 69.3573C56.1023 69.4943 56.3769 69.5399 56.6972 69.5399C56.8803 69.5399 57.0176 69.5399 57.1549 69.4943C57.2922 69.4943 57.4295 69.4486 57.5668 69.4486V66.9373H58.8482V72.4165H57.5668V70.4531C57.4295 70.4531 57.2922 70.4988 57.0634 70.5444C56.8803 70.5901 56.6972 70.5901 56.5142 70.5901C56.1938 70.5901 55.8734 70.5444 55.5989 70.4988C55.3243 70.4531 55.0954 70.3161 54.9124 70.1791C54.7293 70.0422 54.5462 69.8139 54.4547 69.5856C54.3632 69.3573 54.3174 69.0377 54.3174 68.6724V66.983H55.5989V68.6724H55.6446ZM65.3012 66.983V72.4621H64.0656C64.0656 72.0512 64.0656 71.6859 64.0656 71.275C64.0656 70.864 64.0656 70.5444 64.0656 70.1791C64.0656 69.8595 64.0656 69.5399 64.0656 69.3116C64.0656 69.0833 64.0656 68.9007 64.0656 68.7637C63.8367 69.0377 63.6537 69.3573 63.4248 69.6769C63.196 69.9965 62.9672 70.3161 62.7383 70.6357C62.5095 70.9554 62.3264 71.275 62.0976 71.5946C61.9146 71.9142 61.7315 72.1882 61.5942 72.4621H60.4958V66.983H61.7315C61.7315 67.3939 61.7315 67.7592 61.7315 68.1245C61.7315 68.4897 61.7315 68.8094 61.7315 69.129C61.7315 69.4486 61.7315 69.6769 61.7315 69.9052C61.7315 70.1335 61.7315 70.3161 61.7315 70.4074C61.9146 70.0878 62.1434 69.8139 62.3264 69.4943C62.5553 69.1746 62.7383 68.855 62.9672 68.5811C63.196 68.2614 63.3791 67.9875 63.6079 67.7135C63.8367 67.4396 64.0198 67.2113 64.2029 66.983H65.3012ZM66.5827 69.6769C66.5827 69.266 66.6284 68.9007 66.7657 68.5354C66.903 68.1701 67.0861 67.8962 67.3149 67.6222C67.5438 67.3483 67.8184 67.1656 68.1845 67.0286C68.5049 66.8917 68.9167 66.8003 69.3286 66.8003C69.8321 66.8003 70.3355 66.8917 70.7932 67.0743L70.5186 68.1245C70.3813 68.0788 70.1982 67.9875 70.0151 67.9875C69.8321 67.9418 69.649 67.9418 69.4202 67.9418C68.9167 67.9418 68.5506 68.0788 68.276 68.3984C68.0014 68.718 67.9099 69.129 67.9099 69.7226C67.9099 70.2705 68.0472 70.6814 68.276 71.001C68.5049 71.3206 68.9167 71.4576 69.5117 71.4576C69.7405 71.4576 69.9236 71.4576 70.1524 71.412C70.3813 71.3663 70.5643 71.3206 70.7016 71.275L70.8847 72.3251C70.7474 72.4165 70.5186 72.4621 70.244 72.5078C69.9694 72.5534 69.649 72.5991 69.3744 72.5991C68.9167 72.5991 68.5049 72.5078 68.1387 72.3708C67.7726 72.2338 67.498 72.0512 67.2692 71.7772C67.0403 71.5033 66.8573 71.2293 66.7657 70.864C66.6284 70.4988 66.5827 70.0878 66.5827 69.6769ZM76.102 68.0331H74.3171V72.4621H73.0357V68.0331H71.2966V66.983H76.102V68.0331ZM81.6397 72.4165H80.3582V70.1335H78.2988V72.4165H77.0173V66.9373H78.2988V69.0833H80.3582V66.9373H81.6397V72.4165ZM89.9233 72.4165H88.6419V66.9373H89.9233V72.4165ZM84.5229 68.992C84.6145 68.9463 84.7975 68.9463 84.9806 68.9007C85.1637 68.9007 85.3925 68.855 85.5756 68.855C85.8959 68.855 86.1705 68.9007 86.4451 68.9463C86.7197 69.0377 86.9485 69.129 87.1316 69.266C87.3147 69.4029 87.4977 69.5856 87.5893 69.8595C87.6808 70.1335 87.7723 70.3618 87.7723 70.6814C87.7723 71.001 87.7266 71.275 87.5893 71.5033C87.4977 71.7316 87.3147 71.9142 87.1316 72.0512C86.9485 72.1882 86.6739 72.3251 86.3993 72.3708C86.1248 72.4621 85.8044 72.4621 85.484 72.4621C85.0721 72.4621 84.706 72.4621 84.3399 72.4165C83.9738 72.3708 83.6076 72.3251 83.2873 72.2338V66.8917H84.5687V68.992H84.5229ZM85.3925 71.5489C85.7129 71.5489 85.9875 71.5033 86.1705 71.3663C86.3536 71.2293 86.4451 71.001 86.4451 70.7271C86.4451 70.5901 86.3993 70.4531 86.3536 70.3618C86.3078 70.2705 86.2163 70.1791 86.079 70.0878C85.9874 70.0422 85.8502 69.9965 85.7129 69.9509C85.5756 69.9052 85.4383 69.9052 85.301 69.9052C85.1637 69.9052 85.0264 69.9052 84.8891 69.9052C84.7518 69.9052 84.6145 69.9509 84.4772 69.9509V71.5033C84.5687 71.5033 84.706 71.5489 84.8891 71.5489C85.0721 71.5489 85.2552 71.5489 85.3925 71.5489ZM91.2048 69.7226C91.2048 69.2203 91.2963 68.8094 91.4336 68.4441C91.5709 68.0788 91.754 67.7592 91.9828 67.5309C92.2116 67.3026 92.4862 67.12 92.8066 66.983C93.1269 66.846 93.4473 66.8003 93.7677 66.8003C94.4999 66.8003 95.0949 67.0286 95.5525 67.4852C95.9644 67.9418 96.1933 68.6267 96.1933 69.5856C96.1933 69.6769 96.1933 69.7226 96.1933 69.8139C96.1933 69.9052 96.1933 69.9965 96.1933 70.0422H92.532C92.5778 70.4988 92.715 70.8184 92.9896 71.0467C93.2642 71.275 93.6761 71.412 94.1796 71.412C94.4999 71.412 94.7745 71.3663 95.0033 71.3206C95.2779 71.275 95.461 71.1837 95.5983 71.138L95.7814 72.1882C95.6898 72.2338 95.5983 72.2795 95.5068 72.2795C95.3695 72.3251 95.2322 72.3708 95.0949 72.3708C94.9576 72.4165 94.7745 72.4165 94.5915 72.4621C94.4084 72.4621 94.2253 72.5078 94.0423 72.5078C93.5388 72.5078 93.1269 72.4165 92.8066 72.2795C92.4405 72.1425 92.1659 71.9599 91.937 71.6859C91.7082 71.4119 91.5251 71.138 91.4336 70.7727C91.2963 70.4988 91.2048 70.1335 91.2048 69.7226ZM94.9118 69.1746C94.9118 68.992 94.866 68.855 94.8203 68.6724C94.7745 68.5354 94.683 68.3984 94.5915 68.2614C94.4999 68.1245 94.3626 68.0788 94.2253 67.9875C94.088 67.9418 93.905 67.8962 93.7219 67.8962C93.5388 67.8962 93.3558 67.9418 93.2185 67.9875C93.0812 68.0788 92.9439 68.1701 92.8523 68.2614C92.7608 68.3984 92.6693 68.5354 92.6235 68.6724C92.5777 68.8094 92.532 68.992 92.4862 69.129H94.9118V69.1746ZM99.6257 69.6769C99.6257 69.266 99.6715 68.9007 99.8088 68.5354C99.9461 68.1701 100.129 67.8962 100.358 67.6222C100.587 67.3483 100.861 67.1656 101.228 67.0286C101.548 66.8917 101.96 66.8003 102.372 66.8003C102.875 66.8003 103.379 66.8917 103.836 67.0743L103.562 68.1245C103.424 68.0788 103.241 67.9875 103.058 67.9875C102.875 67.9418 102.692 67.9418 102.463 67.9418C101.96 67.9418 101.594 68.0788 101.319 68.3984C101.044 68.718 100.953 69.129 100.953 69.7226C100.953 70.2705 101.09 70.6814 101.319 71.001C101.548 71.3206 101.96 71.4576 102.555 71.4576C102.784 71.4576 102.967 71.4576 103.195 71.412C103.424 71.3663 103.607 71.3206 103.745 71.275L103.928 72.3251C103.79 72.4165 103.562 72.4621 103.287 72.5078C103.012 72.5534 102.692 72.5991 102.417 72.5991C101.96 72.5991 101.548 72.5078 101.182 72.3708C100.816 72.2338 100.541 72.0512 100.312 71.7772C100.083 71.5033 99.9003 71.2293 99.8088 70.864C99.6715 70.4988 99.6257 70.0878 99.6257 69.6769ZM109.694 69.6769C109.694 70.0878 109.648 70.4988 109.511 70.864C109.374 71.2293 109.191 71.5033 108.962 71.7772C108.733 72.0055 108.459 72.2338 108.138 72.3708C107.818 72.5078 107.452 72.5991 107.086 72.5991C106.674 72.5991 106.353 72.5078 106.033 72.3708C105.713 72.2338 105.438 72.0512 105.209 71.7772C104.98 71.5489 104.797 71.2293 104.66 70.864C104.523 70.4988 104.477 70.1335 104.477 69.6769C104.477 69.2203 104.523 68.855 104.66 68.4897C104.797 68.1245 104.98 67.8505 105.209 67.5766C105.438 67.3483 105.713 67.12 106.033 66.983C106.353 66.846 106.719 66.8003 107.086 66.8003C107.452 66.8003 107.818 66.8917 108.138 66.983C108.459 67.12 108.733 67.3026 108.962 67.5766C109.191 67.8048 109.374 68.1245 109.511 68.4897C109.648 68.855 109.694 69.266 109.694 69.6769ZM108.413 69.6769C108.413 69.129 108.275 68.718 108.047 68.3984C107.818 68.0788 107.497 67.9418 107.086 67.9418C106.674 67.9418 106.353 68.0788 106.124 68.3984C105.896 68.718 105.758 69.129 105.758 69.6769C105.758 70.2248 105.896 70.6814 106.124 71.001C106.353 71.3206 106.674 71.5033 107.086 71.5033C107.497 71.5033 107.818 71.3663 108.047 71.001C108.275 70.6814 108.413 70.2248 108.413 69.6769ZM115.964 69.6769C115.964 70.0878 115.918 70.4988 115.781 70.864C115.644 71.2293 115.461 71.5033 115.232 71.7772C115.003 72.0055 114.728 72.2338 114.408 72.3708C114.088 72.5078 113.722 72.5991 113.355 72.5991C112.944 72.5991 112.623 72.5078 112.303 72.3708C111.983 72.2338 111.708 72.0512 111.479 71.7772C111.25 71.5489 111.067 71.2293 110.93 70.864C110.793 70.4988 110.747 70.1335 110.747 69.6769C110.747 69.2203 110.793 68.855 110.93 68.4897C111.067 68.1245 111.25 67.8505 111.479 67.5766C111.708 67.3483 111.983 67.12 112.303 66.983C112.623 66.846 112.989 66.8003 113.355 66.8003C113.722 66.8003 114.088 66.8917 114.408 66.983C114.728 67.0743 115.003 67.3026 115.232 67.5766C115.461 67.8505 115.644 68.1245 115.781 68.4897C115.918 68.855 115.964 69.266 115.964 69.6769ZM114.683 69.6769C114.683 69.129 114.545 68.718 114.317 68.3984C114.088 68.0788 113.767 67.9418 113.355 67.9418C112.944 67.9418 112.623 68.0788 112.394 68.3984C112.166 68.718 112.028 69.129 112.028 69.6769C112.028 70.2248 112.166 70.6814 112.394 71.001C112.623 71.3206 112.944 71.5033 113.355 71.5033C113.767 71.5033 114.088 71.3663 114.317 71.001C114.545 70.6814 114.683 70.2248 114.683 69.6769ZM120.907 69.7226C120.907 69.1746 120.77 68.718 120.541 68.3984C120.266 68.0788 119.854 67.9418 119.305 67.9418C119.168 67.9418 119.076 67.9418 118.939 67.9418C118.802 67.9418 118.664 67.9875 118.573 67.9875V71.0923C118.664 71.1837 118.847 71.2293 119.03 71.3206C119.214 71.412 119.397 71.412 119.625 71.412C120.083 71.412 120.403 71.275 120.632 70.9554C120.815 70.6814 120.907 70.2705 120.907 69.7226ZM122.188 69.6769C122.188 70.0878 122.143 70.4988 122.005 70.8184C121.914 71.1837 121.731 71.4576 121.548 71.7316C121.365 71.9599 121.09 72.1882 120.77 72.3251C120.449 72.4621 120.129 72.5534 119.717 72.5534C119.442 72.5534 119.214 72.5078 118.985 72.4621C118.756 72.4165 118.573 72.3251 118.436 72.2338V74.3342H117.154V67.12C117.429 67.0286 117.749 66.983 118.115 66.9373C118.481 66.8917 118.893 66.846 119.305 66.846C119.717 66.846 120.129 66.8917 120.449 67.0286C120.77 67.1656 121.09 67.3483 121.319 67.5766C121.548 67.8048 121.731 68.1245 121.868 68.4897C122.143 68.855 122.188 69.266 122.188 69.6769ZM127.863 66.983C127.314 69.0377 126.628 70.9554 125.895 72.5991C125.758 72.9187 125.621 73.1927 125.483 73.421C125.346 73.6493 125.163 73.8319 124.98 73.9689C124.797 74.1059 124.614 74.2428 124.385 74.2885C124.156 74.3342 123.882 74.3798 123.607 74.3798C123.424 74.3798 123.195 74.3798 123.012 74.3342C122.829 74.2885 122.692 74.2428 122.6 74.1972L122.829 73.1927C123.104 73.284 123.332 73.3297 123.561 73.3297C123.882 73.3297 124.156 73.2383 124.339 73.1014C124.522 72.9644 124.705 72.6904 124.843 72.3708C124.431 71.5946 124.065 70.7727 123.699 69.8595C123.332 68.9463 123.012 67.9875 122.738 66.983H124.065C124.156 67.2569 124.202 67.5766 124.339 67.9418C124.431 68.2614 124.568 68.6267 124.66 68.992C124.797 69.3573 124.889 69.6769 125.026 70.0422C125.163 70.4074 125.3 70.7271 125.438 71.001C125.667 70.3618 125.85 69.7226 126.078 69.0377C126.261 68.3528 126.445 67.6679 126.628 67.0286H127.863V66.983ZM128.138 72.4165C128.458 71.8685 128.824 71.3663 129.236 70.864C129.648 70.3618 130.06 69.9052 130.472 69.4943C130.06 69.0833 129.694 68.6267 129.328 68.2158C128.962 67.7592 128.641 67.3483 128.321 66.983H129.785C130.014 67.2569 130.243 67.5766 130.563 67.9418C130.838 68.3071 131.204 68.718 131.616 69.266V66.983H132.852V69.266C133.309 68.7637 133.676 68.3071 133.95 67.9418C134.225 67.5766 134.499 67.2569 134.682 66.983H136.101C135.827 67.3483 135.506 67.7592 135.14 68.2158C134.774 68.6724 134.362 69.0833 133.95 69.4943C134.408 69.9509 134.82 70.4074 135.232 70.9097C135.598 71.412 135.964 71.9142 136.284 72.4621H134.865C134.728 72.2338 134.591 72.0512 134.408 71.8229C134.225 71.5946 134.087 71.3663 133.904 71.138C133.721 70.9097 133.538 70.6814 133.355 70.4988C133.172 70.2705 132.989 70.0878 132.806 69.9052V72.4621H131.57V69.9052C131.387 70.0878 131.204 70.3161 131.021 70.4988C130.838 70.7271 130.655 70.9554 130.472 71.1837C130.289 71.412 130.106 71.6403 129.969 71.8685C129.785 72.0968 129.648 72.3251 129.511 72.5078H128.138V72.4165ZM136.65 69.7226C136.65 69.2203 136.742 68.8094 136.879 68.4441C137.016 68.0788 137.2 67.7592 137.428 67.5309C137.657 67.3026 137.932 67.12 138.252 66.983C138.573 66.846 138.893 66.8003 139.213 66.8003C139.946 66.8003 140.54 67.0286 140.998 67.4852C141.41 67.9418 141.639 68.6267 141.639 69.5856C141.639 69.6769 141.639 69.7226 141.639 69.8139C141.639 69.9052 141.639 69.9965 141.639 70.0422H138.023C138.069 70.4988 138.206 70.8184 138.481 71.0467C138.756 71.275 139.167 71.412 139.671 71.412C139.991 71.412 140.266 71.3663 140.495 71.3206C140.769 71.275 140.952 71.1837 141.09 71.138L141.273 72.1882C141.181 72.2338 141.09 72.2795 140.998 72.2795C140.861 72.3251 140.724 72.3708 140.586 72.3708C140.449 72.4165 140.266 72.4165 140.083 72.4621C139.9 72.5078 139.717 72.5078 139.534 72.5078C139.03 72.5078 138.618 72.4165 138.298 72.2795C137.932 72.1425 137.657 71.9599 137.428 71.6859C137.2 71.4119 137.016 71.138 136.925 70.7727C136.696 70.4988 136.65 70.1335 136.65 69.7226ZM140.357 69.1746C140.357 68.992 140.312 68.855 140.266 68.6724C140.22 68.5354 140.129 68.3984 140.037 68.2614C139.946 68.1245 139.808 68.0788 139.671 67.9875C139.534 67.9418 139.351 67.8962 139.167 67.8962C138.984 67.8962 138.801 67.9418 138.664 67.9875C138.527 68.0788 138.389 68.1701 138.298 68.2614C138.206 68.3984 138.115 68.5354 138.069 68.6724C138.023 68.8094 137.978 68.992 137.932 69.129H140.357V69.1746ZM147.543 72.4165H146.261V70.1335H144.202V72.4165H142.92V66.9373H144.202V69.0833H146.261V66.9373H147.543V72.4165ZM153.95 66.983V72.4621H152.714C152.714 72.0512 152.714 71.6859 152.714 71.275C152.714 70.864 152.714 70.5444 152.714 70.1791C152.714 69.8139 152.714 69.5399 152.714 69.3116C152.714 69.0833 152.714 68.9007 152.714 68.7637C152.485 69.0377 152.302 69.3573 152.074 69.6769C151.845 69.9965 151.616 70.3161 151.387 70.6357C151.158 70.9554 150.975 71.275 150.746 71.5946C150.563 71.9142 150.38 72.1882 150.243 72.4621H149.144V66.983H150.38C150.38 67.3939 150.38 67.7592 150.38 68.1245C150.38 68.4897 150.38 68.8094 150.38 69.129C150.38 69.4486 150.38 69.6769 150.38 69.9052C150.38 70.1335 150.38 70.3161 150.38 70.4074C150.563 70.0878 150.792 69.8139 150.975 69.4943C151.204 69.1746 151.387 68.855 151.616 68.5811C151.845 68.2614 152.028 67.9875 152.257 67.7135C152.485 67.4396 152.668 67.2113 152.852 66.983H153.95ZM157.977 70.4074H157.748C157.657 70.4074 157.565 70.4074 157.52 70.4074C157.291 70.7271 157.108 71.0923 156.879 71.4576C156.696 71.8229 156.513 72.1425 156.375 72.4621H155.094C155.277 72.0512 155.506 71.5946 155.735 71.2293C155.964 70.8184 156.192 70.4988 156.375 70.2248C156.055 70.0878 155.781 69.8595 155.643 69.6312C155.506 69.4029 155.414 69.0833 155.414 68.7637C155.414 68.4441 155.46 68.1701 155.597 67.9418C155.735 67.7135 155.872 67.5309 156.101 67.3483C156.33 67.2113 156.559 67.0743 156.833 66.983C157.108 66.8917 157.428 66.846 157.794 66.846C158.206 66.846 158.618 66.8917 158.984 66.9373C159.35 66.983 159.671 67.0286 159.945 67.12V72.4165H158.664V70.4074H157.977ZM158.618 67.8962C158.526 67.8962 158.435 67.8505 158.252 67.8505C158.069 67.8505 157.932 67.8505 157.748 67.8505C156.97 67.8505 156.604 68.1245 156.604 68.718C156.604 68.855 156.65 68.992 156.696 69.0833C156.742 69.1746 156.833 69.266 156.925 69.3116C157.016 69.3573 157.154 69.4029 157.291 69.4486C157.428 69.4943 157.565 69.4943 157.748 69.4943H158.618V67.8962Z" fill="#00224D"/>
<path fill-rule="evenodd" clip-rule="evenodd" d="M166.536 22.4649C166.078 22.0084 165.437 21.7344 164.705 21.7344C164.018 21.7344 163.378 22.0084 162.874 22.4649C162.417 22.9215 162.142 23.5608 162.142 24.2913C162.142 24.9762 162.417 25.6155 162.874 26.1177C163.332 26.5743 163.973 26.8483 164.705 26.8483C165.391 26.8483 166.032 26.5743 166.536 26.1177C166.993 25.6611 167.268 25.0219 167.268 24.2913C167.314 23.5608 167.039 22.9215 166.536 22.4649ZM164.751 21.0038C165.666 21.0038 166.49 21.3691 167.085 21.9627C167.68 22.5563 168.046 23.3781 168.046 24.2913C168.046 25.2045 167.68 26.0264 167.085 26.62C166.49 27.2135 165.666 27.5788 164.751 27.5788C163.835 27.5788 163.012 27.2135 162.417 26.62C161.822 26.0264 161.456 25.2045 161.456 24.2913C161.456 23.3781 161.822 22.5563 162.417 21.9627C163.012 21.3691 163.835 21.0038 164.751 21.0038Z" fill="#007DB0"/>
<path fill-rule="evenodd" clip-rule="evenodd" d="M164.156 24.0174H164.613C164.888 24.0174 165.071 24.0174 165.163 23.9717C165.254 23.9261 165.3 23.9261 165.346 23.8347C165.391 23.7891 165.391 23.6978 165.391 23.6064C165.391 23.5151 165.346 23.4238 165.3 23.3781C165.254 23.3325 165.163 23.2868 165.071 23.2412C165.025 23.2412 164.888 23.2412 164.613 23.2412H164.156V24.0174ZM163.561 25.7524V22.7389H164.842C165.163 22.7389 165.391 22.7846 165.529 22.8302C165.666 22.8759 165.803 22.9672 165.895 23.1042C165.986 23.2412 166.032 23.3781 166.032 23.5608C166.032 23.7891 165.986 23.9717 165.849 24.1087C165.712 24.2457 165.529 24.337 165.254 24.3826C165.391 24.474 165.483 24.5196 165.574 24.6566C165.666 24.7479 165.758 24.9306 165.941 25.1589L166.307 25.7524H165.574L165.117 25.1132C164.979 24.8849 164.842 24.7479 164.796 24.6566C164.751 24.6109 164.659 24.5653 164.613 24.5196C164.568 24.474 164.43 24.474 164.293 24.474H164.156V25.7068H163.561V25.7524Z" fill="#007DB0"/>
<path fill-rule="evenodd" clip-rule="evenodd" d="M40.0842 17.5794C36.1941 11.8263 32.8074 5.9362 31.0683 0.274414L30.7479 2.46607C30.0614 7.30598 28.2765 12.0089 26.3544 16.4835C25.439 18.6752 24.5237 20.7755 23.6542 22.7846C26.2171 19.5884 30.1072 17.5337 34.638 17.5337H40.0842V17.5794Z" fill="#007DB0"/>
<path fill-rule="evenodd" clip-rule="evenodd" d="M20.0845 24.474C16.3316 34.2908 15.2333 43.6966 28.002 52.1893C43.1963 62.28 42.1437 72.5534 36.7433 77.7586C32.4413 81.9136 26.5375 81.8223 21.1371 80.4069C25.4848 81.457 30.153 81.1374 33.3566 77.6216C38.0247 72.5534 37.7044 63.6955 24.6153 52.8285C11.9381 42.2812 15.6909 32.6014 20.0845 24.474Z" fill="#007DB0"/>
<path fill-rule="evenodd" clip-rule="evenodd" d="M28.002 2.1008C26.9036 9.86292 24.3864 16.3466 20.0387 24.474C15.6909 32.6014 11.8923 42.2812 24.6153 52.8285C37.7043 63.6955 37.9789 72.5535 33.3566 77.6217C28.963 82.4159 21.8236 81.2288 16.5605 78.7631C1.7323 71.8686 -3.89692 51.961 5.80547 37.4413C10.8397 29.9075 24.2034 10.6848 28.002 2.1008Z" fill="#009AC6"/>
</svg>
