<svg width="121" height="59" viewBox="0 0 121 59" fill="none" xmlns="http://www.w3.org/2000/svg">
<path fill-rule="evenodd" clip-rule="evenodd" d="M15.3998 34.0047C18.5228 32.0368 18.0297 26.7893 18.8515 21.8369C19.3446 18.9179 21.4814 16.0317 25.1633 16.0317H34.2036L34.2364 34.8246H38.2142L36.9321 42.4992H32.1654L32.8229 39.2522H21.843C21.1856 38.7603 20.4952 38.2355 19.7391 37.7435C17.9311 36.4973 16.4846 35.2838 15.3998 34.0047ZM23.3881 24.2311C22.895 27.7076 22.895 32.2008 20.5938 34.8574H24.6044C24.7688 34.8574 24.9003 34.8574 25.0647 34.8574C29.5355 34.9558 29.5026 33.0207 29.5026 29.1507L29.5684 20.525H28.2534C24.9332 20.4922 23.947 20.3938 23.3881 24.2311ZM47.9777 35.7429C48.4708 35.7429 48.931 35.7429 49.3912 35.7101C49.8515 35.6773 50.1802 35.6445 50.4761 35.6117V31.84C50.2788 31.8072 49.983 31.7416 49.5885 31.7088C49.194 31.676 48.8324 31.6433 48.4708 31.6433C48.0105 31.6433 47.5503 31.676 47.1558 31.7416C46.7285 31.8072 46.3668 31.9056 46.071 32.0696C45.7422 32.2336 45.5121 32.4304 45.3478 32.6928C45.1834 32.9551 45.0848 33.2831 45.0848 33.7095C45.0848 34.4966 45.3478 35.0214 45.8737 35.3165C46.3668 35.6117 47.0572 35.7429 47.9777 35.7429ZM47.5832 21.2137C49.0625 21.2137 50.2788 21.3777 51.265 21.7057C52.2512 22.0336 53.0402 22.5256 53.6319 23.1488C54.2237 23.7719 54.651 24.5262 54.8811 25.4118C55.1113 26.2973 55.2428 27.2812 55.2428 28.3963V38.7603C54.5195 38.9243 53.5333 39.0882 52.2512 39.3178C50.9692 39.5146 49.4241 39.6458 47.6489 39.6458C46.4983 39.6458 45.4793 39.5474 44.5588 39.3506C43.6383 39.1538 42.8494 38.8259 42.159 38.3667C41.5015 37.9075 40.9756 37.3172 40.6139 36.5956C40.2523 35.8741 40.088 34.9558 40.088 33.9063C40.088 32.8895 40.2852 32.004 40.7126 31.3153C41.1399 30.5937 41.6659 30.0362 42.3563 29.6098C43.0466 29.1835 43.8356 28.8883 44.7232 28.6915C45.6108 28.4947 46.5312 28.3963 47.4846 28.3963C48.142 28.3963 48.7009 28.4291 49.194 28.4947C49.6871 28.5603 50.1145 28.6259 50.4103 28.7243V28.2651C50.4103 27.4124 50.1473 26.7565 49.6542 26.2317C49.1611 25.7069 48.2735 25.3462 47.0243 25.3462C46.1696 25.3462 45.3478 25.4118 44.5259 25.543C43.7041 25.6741 42.9809 25.8381 42.3891 26.0677L41.7645 22.0664C42.0604 21.968 42.422 21.8697 42.8494 21.7713C43.2767 21.6729 43.7698 21.5745 44.2629 21.5089C44.7889 21.4433 45.3149 21.3777 45.8737 21.3121C46.4326 21.2137 46.9914 21.2137 47.5832 21.2137ZM67.669 25.7397C67.6362 26.3957 67.6033 27.0844 67.5704 27.806C67.5375 28.5275 67.4718 29.249 67.3732 29.9706C67.2745 30.6921 67.1759 31.4137 67.0116 32.1024C66.8801 32.7912 66.6828 33.4471 66.4527 34.0375C66.1897 34.759 65.8281 35.4149 65.4336 36.0381C65.0063 36.6612 64.4803 37.186 63.8557 37.678C63.2311 38.1699 62.4421 38.5635 61.5545 38.8915C60.6669 39.2194 59.5821 39.4162 58.3986 39.5474L57.7412 35.4149C58.8917 35.1854 59.7465 34.8902 60.3711 34.4638C60.9957 34.0375 61.4559 33.5127 61.7846 32.8895C62.0147 32.332 62.212 31.676 62.3764 30.9545C62.5079 30.233 62.6393 29.4458 62.7051 28.6259C62.7708 27.806 62.8037 26.986 62.8366 26.1333C62.8366 25.2806 62.8695 24.4606 62.8695 23.7063V21.7057H76.0847V39.285H71.0879V25.7397H67.669ZM97.2225 30.4298C97.2225 31.8072 97.0253 33.0863 96.6308 34.2342C96.2363 35.3821 95.6446 36.3661 94.8885 37.186C94.1324 38.0059 93.2119 38.6291 92.16 39.0882C91.108 39.5474 89.9246 39.7442 88.6096 39.7442C87.3275 39.7442 86.1441 39.5146 85.0921 39.0882C84.0402 38.6291 83.1197 38.0059 82.3636 37.186C81.6075 36.3661 81.0158 35.3821 80.5884 34.2342C80.1611 33.0863 79.9638 31.84 79.9638 30.4298C79.9638 29.0523 80.1939 27.806 80.6213 26.6581C81.0486 25.5102 81.6732 24.559 82.4293 23.7391C83.1854 22.952 84.1059 22.3288 85.1579 21.8697C86.2098 21.4105 87.3604 21.2137 88.6096 21.2137C89.8917 21.2137 91.0423 21.4433 92.0942 21.8697C93.1462 22.3288 94.0666 22.952 94.8227 23.7391C95.5788 24.5262 96.1706 25.5102 96.5979 26.6581C96.9924 27.7732 97.2225 29.0195 97.2225 30.4298ZM92.1271 30.4298C92.1271 28.8883 91.8312 27.6748 91.2066 26.822C90.582 25.9693 89.7273 25.5102 88.5767 25.5102C87.4261 25.5102 86.5714 25.9365 85.9468 26.822C85.3222 27.7076 84.9935 28.9211 84.9935 30.4298C84.9935 31.9712 85.3222 33.1847 85.9468 34.103C86.5714 34.9886 87.459 35.4477 88.5767 35.4477C89.7273 35.4477 90.582 34.9886 91.2066 34.103C91.8312 33.1847 92.1271 31.9384 92.1271 30.4298ZM100.247 30.4625C100.247 29.1835 100.444 28.0028 100.872 26.8876C101.299 25.7725 101.891 24.7886 102.647 23.9359C103.436 23.116 104.389 22.4272 105.507 21.9353C106.624 21.4433 107.907 21.2137 109.32 21.2137C110.273 21.2137 111.128 21.3121 111.884 21.4761C112.673 21.6401 113.429 21.8697 114.153 22.1976L113.101 26.1661C112.64 26.0021 112.114 25.8381 111.555 25.7069C110.997 25.5758 110.372 25.5102 109.682 25.5102C108.202 25.5102 107.118 25.9693 106.394 26.8876C105.671 27.806 105.309 28.9867 105.309 30.4953C105.309 32.0696 105.638 33.3159 106.329 34.1686C107.019 35.0214 108.202 35.4805 109.879 35.4805C110.471 35.4805 111.128 35.4149 111.818 35.3165C112.509 35.2182 113.133 35.0214 113.725 34.7918L114.415 38.8587C113.824 39.0882 113.101 39.3178 112.246 39.4818C111.391 39.6458 110.405 39.7442 109.353 39.7442C107.742 39.7442 106.361 39.5146 105.211 39.0226C104.06 38.5307 103.107 37.9075 102.351 37.0548C101.595 36.2349 101.069 35.251 100.707 34.1358C100.411 32.9879 100.247 31.7744 100.247 30.4625Z" fill="white"/>
<path fill-rule="evenodd" clip-rule="evenodd" d="M33.8748 49.6487C33.8748 49.9439 33.9077 50.2062 33.9735 50.4358C34.0392 50.6654 34.1378 50.8622 34.2693 51.0262C34.4008 51.1902 34.5652 51.3213 34.7624 51.4197C34.9597 51.5181 35.1569 51.5509 35.4199 51.5509C35.65 51.5509 35.8801 51.5181 36.0445 51.4197C36.2418 51.3213 36.4061 51.1902 36.5376 51.0262C36.6691 50.8622 36.7677 50.6654 36.8335 50.4358C36.8992 50.2062 36.9321 49.9439 36.9321 49.6487C36.9321 49.3535 36.8992 49.0911 36.8335 48.8616C36.7677 48.632 36.6691 48.4352 36.5376 48.2712C36.4061 48.1072 36.2418 47.976 36.0445 47.8776C35.8473 47.7792 35.65 47.7464 35.4199 47.7464C35.1898 47.7464 34.9597 47.7792 34.7624 47.8776C34.5652 47.976 34.4008 48.1072 34.2693 48.2712C34.1378 48.4352 34.0392 48.632 33.9735 48.8616C33.9077 49.0911 33.8748 49.3535 33.8748 49.6487ZM37.9512 49.6487C37.9512 50.1079 37.8854 50.5014 37.754 50.8294C37.6225 51.1574 37.4252 51.4525 37.228 51.6821C36.9979 51.9117 36.7349 52.0757 36.439 52.2069C36.1431 52.3381 35.8144 52.3709 35.4528 52.3709C35.0912 52.3709 34.7953 52.3053 34.4666 52.2069C34.1707 52.0757 33.8748 51.9117 33.6776 51.6821C33.4804 51.4525 33.2831 51.1574 33.1188 50.8294C32.9873 50.5014 32.9215 50.1079 32.9215 49.6487C32.9215 49.1895 32.9873 48.796 33.1188 48.468C33.2502 48.14 33.4475 47.8448 33.6776 47.6153C33.9077 47.3857 34.1707 47.2217 34.4994 47.0905C34.7953 46.9593 35.1241 46.9265 35.4528 46.9265C35.7815 46.9265 36.1103 46.9921 36.4061 47.0905C36.702 47.2217 36.965 47.3857 37.1951 47.6153C37.4252 47.8448 37.5896 48.14 37.754 48.468C37.8854 48.796 37.9512 49.1895 37.9512 49.6487ZM39.5949 49.5503C39.5949 49.7799 39.6606 49.9439 39.7921 50.0423C39.9236 50.1406 40.1209 50.1734 40.351 50.1734C40.4825 50.1734 40.5811 50.1734 40.6797 50.1406C40.7783 50.1406 40.877 50.1078 40.9756 50.1078V48.304H41.896V52.2397H40.9756V50.8294C40.877 50.8294 40.7783 50.8622 40.614 50.895C40.4825 50.9278 40.351 50.9278 40.2195 50.9278C39.9894 50.9278 39.7592 50.895 39.562 50.8622C39.3648 50.8294 39.2004 50.731 39.0689 50.6326C38.9374 50.5342 38.8059 50.3702 38.7402 50.2062C38.6744 50.0423 38.6415 49.8127 38.6415 49.5503V48.3368H39.562V49.5503H39.5949ZM46.5312 48.3368V52.2725H45.6436C45.6436 51.9773 45.6436 51.7149 45.6436 51.4197C45.6436 51.1246 45.6436 50.895 45.6436 50.6326C45.6436 50.403 45.6436 50.1734 45.6436 50.0095C45.6436 49.8455 45.6436 49.7143 45.6436 49.6159C45.4793 49.8127 45.3478 50.0423 45.1834 50.2718C45.019 50.5014 44.8547 50.731 44.6903 50.9606C44.5259 51.1902 44.3944 51.4197 44.2301 51.6493C44.0986 51.8789 43.9671 52.0757 43.8685 52.2725H43.0795V48.3368H43.9671C43.9671 48.632 43.9671 48.8944 43.9671 49.1567C43.9671 49.4191 43.9671 49.6487 43.9671 49.8783C43.9671 50.1078 43.9671 50.2718 43.9671 50.4358C43.9671 50.5998 43.9671 50.731 43.9671 50.7966C44.0986 50.567 44.263 50.3702 44.3944 50.1406C44.5588 49.9111 44.6903 49.6815 44.8547 49.4847C45.019 49.2551 45.1505 49.0583 45.3149 48.8616C45.4793 48.6648 45.6108 48.5008 45.7423 48.3368H46.5312ZM47.4517 50.2718C47.4517 49.9767 47.4846 49.7143 47.5832 49.4519C47.6818 49.1895 47.8133 48.9927 47.9777 48.796C48.1421 48.5992 48.3393 48.468 48.6023 48.3696C48.8324 48.2712 49.1283 48.2056 49.4241 48.2056C49.7857 48.2056 50.1474 48.2712 50.4761 48.4024L50.2788 49.1567C50.1802 49.1239 50.0487 49.0583 49.9172 49.0583C49.7857 49.0255 49.6542 49.0255 49.4899 49.0255C49.1283 49.0255 48.8653 49.1239 48.668 49.3535C48.4708 49.5831 48.405 49.8783 48.405 50.3046C48.405 50.6982 48.5037 50.9934 48.668 51.223C48.8324 51.4525 49.1283 51.5509 49.5556 51.5509C49.72 51.5509 49.8515 51.5509 50.0159 51.5181C50.1802 51.4853 50.3117 51.4525 50.4103 51.4197L50.5418 52.1741C50.4432 52.2397 50.2788 52.2725 50.0816 52.3053C49.8844 52.3381 49.6542 52.3709 49.457 52.3709C49.1283 52.3709 48.8324 52.3053 48.5694 52.2069C48.3064 52.1085 48.1092 51.9773 47.9448 51.7805C47.7804 51.5837 47.6489 51.3869 47.5832 51.1246C47.4846 50.8622 47.4517 50.567 47.4517 50.2718ZM54.2894 49.0911H53.0074V52.2725H52.0869V49.0911H50.8377V48.3368H54.2894V49.0911ZM58.2672 52.2397H57.3467V50.5998H55.8674V52.2397H54.9469V48.304H55.8674V49.8455H57.3467V48.304H58.2672V52.2397ZM64.2173 52.2397H63.2968V48.304H64.2173V52.2397ZM60.3382 49.7799C60.404 49.7471 60.5355 49.7471 60.6669 49.7143C60.7984 49.7143 60.9628 49.6815 61.0943 49.6815C61.3244 49.6815 61.5217 49.7143 61.7189 49.7471C61.9162 49.8127 62.0805 49.8783 62.212 49.9767C62.3435 50.0751 62.475 50.2062 62.5408 50.403C62.6065 50.5998 62.6722 50.7638 62.6722 50.9934C62.6722 51.223 62.6394 51.4197 62.5408 51.5837C62.475 51.7477 62.3435 51.8789 62.212 51.9773C62.0805 52.0757 61.8833 52.1741 61.686 52.2069C61.4888 52.2725 61.2587 52.2725 61.0286 52.2725C60.7327 52.2725 60.4697 52.2725 60.2067 52.2397C59.9437 52.2069 59.6807 52.1741 59.4506 52.1085V48.2712H60.3711V49.7799H60.3382ZM60.9628 51.6165C61.1929 51.6165 61.3902 51.5837 61.5217 51.4853C61.6532 51.3869 61.7189 51.223 61.7189 51.0262C61.7189 50.9278 61.686 50.8294 61.6532 50.7638C61.6203 50.6982 61.5545 50.6326 61.4559 50.567C61.3902 50.5342 61.2916 50.5014 61.1929 50.4686C61.0943 50.4358 60.9957 50.4358 60.8971 50.4358C60.7984 50.4358 60.6998 50.4358 60.6012 50.4358C60.5026 50.4358 60.404 50.4686 60.3053 50.4686V51.5837C60.3711 51.5837 60.4697 51.6165 60.6012 51.6165C60.7327 51.6165 60.8642 51.6165 60.9628 51.6165ZM65.1378 50.3046C65.1378 49.9439 65.2035 49.6487 65.3022 49.3863C65.4008 49.1239 65.5323 48.8944 65.6966 48.7304C65.861 48.5664 66.0582 48.4352 66.2884 48.3368C66.5185 48.2384 66.7486 48.2056 66.9787 48.2056C67.5047 48.2056 67.932 48.3696 68.2608 48.6976C68.5566 49.0255 68.721 49.5175 68.721 50.2062C68.721 50.2718 68.721 50.3046 68.721 50.3702C68.721 50.4358 68.721 50.5014 68.721 50.5342H66.0911C66.124 50.8622 66.2226 51.0918 66.4199 51.2558C66.6171 51.4197 66.913 51.5181 67.2746 51.5181C67.5047 51.5181 67.7019 51.4853 67.8663 51.4525C68.0635 51.4197 68.195 51.3541 68.2937 51.3213L68.4252 52.0757C68.3594 52.1085 68.2937 52.1413 68.2279 52.1413C68.1293 52.1741 68.0307 52.2069 67.932 52.2069C67.8334 52.2397 67.7019 52.2397 67.5704 52.2725C67.4389 52.2725 67.3074 52.3053 67.176 52.3053C66.8143 52.3053 66.5185 52.2397 66.2884 52.1413C66.0254 52.0429 65.8281 51.9117 65.6638 51.7149C65.4994 51.5181 65.3679 51.3213 65.3022 51.059C65.2035 50.8622 65.1378 50.5998 65.1378 50.3046ZM67.8005 49.9111C67.8005 49.7799 67.7677 49.6815 67.7348 49.5503C67.7019 49.4519 67.6362 49.3535 67.5704 49.2551C67.5047 49.1567 67.4061 49.1239 67.3074 49.0583C67.2088 49.0255 67.0773 48.9927 66.9458 48.9927C66.8143 48.9927 66.6828 49.0255 66.5842 49.0583C66.4856 49.1239 66.387 49.1895 66.3212 49.2551C66.2555 49.3535 66.1897 49.4519 66.1569 49.5503C66.124 49.6487 66.0911 49.7799 66.0582 49.8783H67.8005V49.9111ZM71.1865 50.2718C71.1865 49.9767 71.2194 49.7143 71.318 49.4519C71.4167 49.1895 71.5482 48.9927 71.7125 48.796C71.8769 48.5992 72.0741 48.468 72.3371 48.3696C72.5672 48.2712 72.8631 48.2056 73.159 48.2056C73.5206 48.2056 73.8822 48.2712 74.2109 48.4024L74.0137 49.1567C73.9151 49.1239 73.7836 49.0583 73.6521 49.0583C73.5206 49.0255 73.3891 49.0255 73.2247 49.0255C72.8631 49.0255 72.6001 49.1239 72.4029 49.3535C72.2056 49.5831 72.1399 49.8783 72.1399 50.3046C72.1399 50.6982 72.2385 50.9934 72.4029 51.223C72.5672 51.4525 72.8631 51.5509 73.2905 51.5509C73.4548 51.5509 73.5863 51.5509 73.7507 51.5181C73.9151 51.4853 74.0466 51.4525 74.1452 51.4197L74.2767 52.1741C74.1781 52.2397 74.0137 52.2725 73.8164 52.3053C73.6192 52.3381 73.3891 52.3709 73.1918 52.3709C72.8631 52.3709 72.5672 52.3053 72.3043 52.2069C72.0413 52.1085 71.844 51.9773 71.6797 51.7805C71.5153 51.5837 71.3838 51.3869 71.318 51.1246C71.2194 50.8622 71.1865 50.567 71.1865 50.2718ZM78.4188 50.2718C78.4188 50.567 78.3859 50.8622 78.2873 51.1246C78.1887 51.3869 78.0572 51.5837 77.8928 51.7805C77.7284 51.9445 77.5312 52.1085 77.3011 52.2069C77.0709 52.3053 76.808 52.3709 76.545 52.3709C76.2491 52.3709 76.019 52.3053 75.7889 52.2069C75.5588 52.1085 75.3615 51.9773 75.1971 51.7805C75.0328 51.6165 74.9013 51.3869 74.8027 51.1246C74.704 50.8622 74.6712 50.5998 74.6712 50.2718C74.6712 49.9439 74.704 49.6815 74.8027 49.4191C74.9013 49.1567 75.0328 48.9599 75.1971 48.7632C75.3615 48.5992 75.5588 48.4352 75.7889 48.3368C76.019 48.2384 76.282 48.2056 76.545 48.2056C76.808 48.2056 77.0709 48.2712 77.3011 48.3368C77.5312 48.4352 77.7284 48.5664 77.8928 48.7632C78.0572 48.9271 78.1887 49.1567 78.2873 49.4191C78.3859 49.6815 78.4188 49.9767 78.4188 50.2718ZM77.4983 50.2718C77.4983 49.8783 77.3997 49.5831 77.2353 49.3535C77.0709 49.1239 76.8408 49.0255 76.545 49.0255C76.2491 49.0255 76.019 49.1239 75.8546 49.3535C75.6903 49.5831 75.5916 49.8783 75.5916 50.2718C75.5916 50.6654 75.6903 50.9934 75.8546 51.223C76.019 51.4525 76.2491 51.5837 76.545 51.5837C76.8408 51.5837 77.0709 51.4853 77.2353 51.223C77.3997 50.9934 77.4983 50.6654 77.4983 50.2718ZM82.9225 50.2718C82.9225 50.567 82.8896 50.8622 82.791 51.1246C82.6924 51.3869 82.5609 51.5837 82.3965 51.7805C82.2321 51.9445 82.0349 52.1085 81.8048 52.2069C81.5747 52.3053 81.3117 52.3709 81.0487 52.3709C80.7528 52.3709 80.5227 52.3053 80.2926 52.2069C80.0625 52.1085 79.8652 51.9773 79.7008 51.7805C79.5365 51.6165 79.405 51.3869 79.3064 51.1246C79.2077 50.8622 79.1749 50.5998 79.1749 50.2718C79.1749 49.9439 79.2077 49.6815 79.3064 49.4191C79.405 49.1567 79.5365 48.9599 79.7008 48.7632C79.8652 48.5992 80.0625 48.4352 80.2926 48.3368C80.5227 48.2384 80.7857 48.2056 81.0487 48.2056C81.3117 48.2056 81.5747 48.2712 81.8048 48.3368C82.0349 48.4024 82.2321 48.5664 82.3965 48.7632C82.5609 48.9599 82.6924 49.1567 82.791 49.4191C82.8896 49.6815 82.9225 49.9767 82.9225 50.2718ZM82.002 50.2718C82.002 49.8783 81.9034 49.5831 81.739 49.3535C81.5746 49.1239 81.3445 49.0255 81.0487 49.0255C80.7528 49.0255 80.5227 49.1239 80.3583 49.3535C80.1939 49.5831 80.0953 49.8783 80.0953 50.2718C80.0953 50.6654 80.1939 50.9934 80.3583 51.223C80.5227 51.4525 80.7528 51.5837 81.0487 51.5837C81.3445 51.5837 81.5746 51.4853 81.739 51.223C81.9034 50.9934 82.002 50.6654 82.002 50.2718ZM86.4728 50.3046C86.4728 49.9111 86.3742 49.5831 86.2099 49.3535C86.0126 49.1239 85.7167 49.0255 85.3223 49.0255C85.2236 49.0255 85.1579 49.0255 85.0593 49.0255C84.9606 49.0255 84.862 49.0583 84.7963 49.0583V51.2886C84.862 51.3541 84.9935 51.3869 85.125 51.4525C85.2565 51.5181 85.388 51.5181 85.5524 51.5181C85.8811 51.5181 86.1112 51.4197 86.2756 51.1902C86.4071 50.9934 86.4728 50.6982 86.4728 50.3046ZM87.3933 50.2718C87.3933 50.567 87.3604 50.8622 87.2618 51.0918C87.1961 51.3541 87.0646 51.5509 86.9331 51.7477C86.8016 51.9117 86.6043 52.0757 86.3742 52.1741C86.1441 52.2725 85.914 52.3381 85.6181 52.3381C85.4209 52.3381 85.2565 52.3053 85.0921 52.2725C84.9278 52.2397 84.7963 52.1741 84.6977 52.1085V53.6172H83.7772V48.4352C83.9744 48.3696 84.2045 48.3368 84.4675 48.304C84.7305 48.2712 85.0264 48.2384 85.3223 48.2384C85.6181 48.2384 85.914 48.2712 86.1441 48.3696C86.3742 48.468 86.6043 48.5992 86.7687 48.7632C86.9331 48.9271 87.0646 49.1567 87.1632 49.4191C87.3604 49.6815 87.3933 49.9767 87.3933 50.2718ZM91.4697 48.3368C91.0752 49.8127 90.5821 51.1902 90.0561 52.3709C89.9575 52.6004 89.8588 52.7972 89.7602 52.9612C89.6616 53.1252 89.5301 53.2564 89.3986 53.3548C89.2671 53.4532 89.1356 53.5516 88.9712 53.5844C88.8069 53.6172 88.6096 53.65 88.4124 53.65C88.2809 53.65 88.1165 53.65 87.985 53.6172C87.8535 53.5844 87.7549 53.5516 87.6892 53.5188L87.8535 52.7972C88.0508 52.8628 88.2151 52.8956 88.3795 52.8956C88.6096 52.8956 88.8069 52.83 88.9384 52.7316C89.0699 52.6332 89.2014 52.4365 89.3 52.2069C89.0041 51.6493 88.7411 51.059 88.4781 50.403C88.2151 49.7471 87.985 49.0583 87.7878 48.3368H88.7411C88.8069 48.5336 88.8397 48.7632 88.9384 49.0255C89.0041 49.2551 89.1027 49.5175 89.1685 49.7799C89.2671 50.0423 89.3329 50.2718 89.4315 50.5342C89.5301 50.7966 89.6287 51.0262 89.7273 51.223C89.8917 50.7638 90.0232 50.3046 90.1876 49.8127C90.3191 49.3207 90.4506 48.8288 90.5821 48.3696H91.4697V48.3368ZM91.6669 52.2397C91.897 51.8461 92.16 51.4853 92.4559 51.1246C92.7517 50.7638 93.0476 50.4358 93.3434 50.1406C93.0476 49.8455 92.7846 49.5175 92.5216 49.2223C92.2586 48.8944 92.0285 48.5992 91.7984 48.3368H92.8503C93.0147 48.5336 93.1791 48.7632 93.4092 49.0255C93.6064 49.2879 93.8694 49.5831 94.1653 49.9767V48.3368H95.0529V49.9767C95.3816 49.6159 95.6446 49.2879 95.8419 49.0255C96.0391 48.7632 96.2363 48.5336 96.3678 48.3368H97.3869C97.1897 48.5992 96.9596 48.8944 96.6966 49.2223C96.4336 49.5503 96.1377 49.8455 95.8419 50.1406C96.1706 50.4686 96.4664 50.7966 96.7623 51.1574C97.0253 51.5181 97.2883 51.8789 97.5184 52.2725H96.4993C96.4007 52.1085 96.3021 51.9773 96.1706 51.8133C96.0391 51.6493 95.9405 51.4853 95.809 51.3213C95.6775 51.1574 95.546 50.9934 95.4145 50.8622C95.283 50.6982 95.1515 50.567 95.02 50.4358V52.2725H94.1324V50.4358C94.0009 50.567 93.8694 50.731 93.7379 50.8622C93.6064 51.0262 93.4749 51.1902 93.3434 51.3541C93.212 51.5181 93.0805 51.6821 92.9818 51.8461C92.8503 52.0101 92.7517 52.1741 92.6531 52.3053H91.6669V52.2397ZM97.7814 50.3046C97.7814 49.9439 97.8471 49.6487 97.9458 49.3863C98.0444 49.1239 98.1759 48.8944 98.3403 48.7304C98.5046 48.5664 98.7019 48.4352 98.932 48.3368C99.1621 48.2384 99.3922 48.2056 99.6223 48.2056C100.148 48.2056 100.576 48.3696 100.904 48.6976C101.2 49.0255 101.365 49.5175 101.365 50.2062C101.365 50.2718 101.365 50.3046 101.365 50.3702C101.365 50.4358 101.365 50.5014 101.365 50.5342H98.7676C98.8005 50.8622 98.8991 51.0918 99.0964 51.2558C99.2936 51.4197 99.5895 51.5181 99.9511 51.5181C100.181 51.5181 100.378 51.4853 100.543 51.4525C100.74 51.4197 100.872 51.3541 100.97 51.3213L101.102 52.0757C101.036 52.1085 100.97 52.1413 100.904 52.1413C100.806 52.1741 100.707 52.2069 100.609 52.2069C100.51 52.2397 100.378 52.2397 100.247 52.2725C100.115 52.3053 99.9839 52.3053 99.8525 52.3053C99.4908 52.3053 99.195 52.2397 98.9649 52.1413C98.7019 52.0429 98.5046 51.9117 98.3403 51.7149C98.1759 51.5181 98.0444 51.3213 97.9786 51.059C97.8143 50.8622 97.7814 50.5998 97.7814 50.3046ZM100.444 49.9111C100.444 49.7799 100.411 49.6815 100.378 49.5503C100.346 49.4519 100.28 49.3535 100.214 49.2551C100.148 49.1567 100.05 49.1239 99.9511 49.0583C99.8524 49.0255 99.721 48.9927 99.5895 48.9927C99.458 48.9927 99.3265 49.0255 99.2278 49.0583C99.1292 49.1239 99.0306 49.1895 98.9649 49.2551C98.8991 49.3535 98.8334 49.4519 98.8005 49.5503C98.7676 49.6487 98.7347 49.7799 98.7019 49.8783H100.444V49.9111ZM105.605 52.2397H104.685V50.5998H103.206V52.2397H102.285V48.304H103.206V49.8455H104.685V48.304H105.605V52.2397ZM110.208 48.3368V52.2725H109.32C109.32 51.9773 109.32 51.7149 109.32 51.4197C109.32 51.1246 109.32 50.895 109.32 50.6326C109.32 50.3702 109.32 50.1734 109.32 50.0095C109.32 49.8455 109.32 49.7143 109.32 49.6159C109.156 49.8127 109.024 50.0423 108.86 50.2718C108.695 50.5014 108.531 50.731 108.367 50.9606C108.202 51.1902 108.071 51.4197 107.907 51.6493C107.775 51.8789 107.644 52.0757 107.545 52.2725H106.756V48.3368H107.644C107.644 48.632 107.644 48.8944 107.644 49.1567C107.644 49.4191 107.644 49.6487 107.644 49.8783C107.644 50.1078 107.644 50.2718 107.644 50.4358C107.644 50.5998 107.644 50.731 107.644 50.7966C107.775 50.567 107.939 50.3702 108.071 50.1406C108.235 49.9111 108.367 49.6815 108.531 49.4847C108.695 49.2551 108.827 49.0583 108.991 48.8616C109.156 48.6648 109.287 48.5008 109.419 48.3368H110.208ZM113.101 50.7966H112.936C112.87 50.7966 112.805 50.7966 112.772 50.7966C112.607 51.0262 112.476 51.2885 112.312 51.5509C112.18 51.8133 112.049 52.0429 111.95 52.2725H111.03C111.161 51.9773 111.325 51.6493 111.49 51.3869C111.654 51.0918 111.818 50.8622 111.95 50.6654C111.72 50.567 111.523 50.403 111.424 50.239C111.325 50.075 111.26 49.8455 111.26 49.6159C111.26 49.3863 111.293 49.1895 111.391 49.0255C111.49 48.8616 111.588 48.7304 111.753 48.5992C111.917 48.5008 112.081 48.4024 112.279 48.3368C112.476 48.2712 112.706 48.2384 112.969 48.2384C113.265 48.2384 113.561 48.2712 113.824 48.304C114.087 48.3368 114.317 48.3696 114.514 48.4352V52.2397H113.594V50.7966H113.101ZM113.561 48.9927C113.495 48.9927 113.429 48.9599 113.298 48.9599C113.166 48.9599 113.068 48.9599 112.936 48.9599C112.377 48.9599 112.114 49.1567 112.114 49.5831C112.114 49.6815 112.147 49.7799 112.18 49.8455C112.213 49.9111 112.279 49.9767 112.344 50.0095C112.41 50.0423 112.509 50.0751 112.607 50.1078C112.706 50.1406 112.805 50.1406 112.936 50.1406H113.561V48.9927Z" fill="white"/>
<path fill-rule="evenodd" clip-rule="evenodd" d="M119.248 16.3593C118.919 16.0314 118.459 15.8346 117.933 15.8346C117.44 15.8346 116.98 16.0314 116.618 16.3593C116.289 16.6873 116.092 17.1465 116.092 17.6712C116.092 18.1632 116.289 18.6223 116.618 18.9831C116.947 19.3111 117.407 19.5079 117.933 19.5079C118.426 19.5079 118.886 19.3111 119.248 18.9831C119.577 18.6551 119.774 18.196 119.774 17.6712C119.807 17.1465 119.61 16.6873 119.248 16.3593ZM117.966 15.3098C118.623 15.3098 119.215 15.5722 119.642 15.9986C120.07 16.4249 120.333 17.0153 120.333 17.6712C120.333 18.3272 120.07 18.9175 119.642 19.3439C119.215 19.7702 118.623 20.0326 117.966 20.0326C117.308 20.0326 116.717 19.7702 116.289 19.3439C115.862 18.9175 115.599 18.3272 115.599 17.6712C115.599 17.0153 115.862 16.4249 116.289 15.9986C116.717 15.5722 117.308 15.3098 117.966 15.3098Z" fill="#007DB0"/>
<path fill-rule="evenodd" clip-rule="evenodd" d="M117.538 17.475H117.867C118.064 17.475 118.196 17.475 118.262 17.4422C118.327 17.4094 118.36 17.4094 118.393 17.3438C118.426 17.311 118.426 17.2454 118.426 17.1798C118.426 17.1142 118.393 17.0486 118.36 17.0158C118.327 16.983 118.262 16.9502 118.196 16.9174C118.163 16.9174 118.064 16.9174 117.867 16.9174H117.538V17.475ZM117.111 18.7213V16.5566H118.032C118.262 16.5566 118.426 16.5894 118.525 16.6222C118.623 16.655 118.722 16.7206 118.788 16.819C118.853 16.9174 118.886 17.0158 118.886 17.147C118.886 17.311 118.853 17.4422 118.755 17.5406C118.656 17.639 118.525 17.7045 118.327 17.7373C118.426 17.8029 118.492 17.8357 118.558 17.9341C118.623 17.9997 118.689 18.1309 118.821 18.2949L119.084 18.7213H118.558L118.229 18.2621C118.13 18.0981 118.032 17.9997 117.999 17.9341C117.966 17.9013 117.9 17.8685 117.867 17.8357C117.834 17.8029 117.736 17.8029 117.637 17.8029H117.538V18.6885H117.111V18.7213Z" fill="#007DB0"/>
<path fill-rule="evenodd" clip-rule="evenodd" d="M28.4178 12.8503C25.6235 8.71788 23.1908 4.48703 21.9416 0.420166L21.7115 1.99444C21.2184 5.47095 19.9363 8.84907 18.5556 12.0632C17.8982 13.6375 17.2407 15.1462 16.6161 16.5892C18.457 14.2934 21.2513 12.8175 24.5058 12.8175H28.4178V12.8503Z" fill="#007DB0"/>
<path fill-rule="evenodd" clip-rule="evenodd" d="M14.052 17.8027C11.3563 24.8542 10.5674 31.6104 19.7391 37.7107C30.6532 44.9589 29.8971 52.3383 26.018 56.0772C22.9279 59.0617 18.6872 58.9961 14.8081 57.9794C17.9311 58.7337 21.2842 58.5042 23.5854 55.9788C26.9385 52.3383 26.7084 45.9756 17.3065 38.1698C8.20045 30.5937 10.8961 23.6407 14.052 17.8027Z" fill="#007DB0"/>
<path fill-rule="evenodd" clip-rule="evenodd" d="M19.7391 1.73242C18.9501 7.30796 17.1421 11.9652 14.0191 17.8031C10.8961 23.641 8.16753 30.594 17.3064 38.1702C26.7083 45.976 26.9056 52.3386 23.5853 55.9791C20.4294 59.4229 15.3011 58.5701 11.5207 56.7991C0.869558 51.8467 -3.17391 37.5471 3.79532 27.1175C7.41143 21.706 17.0106 7.89831 19.7391 1.73242Z" fill="#009AC6"/>
</svg>
